HiTall.ufo
<glyph name="exclam" format="1">
  <advance width="198"/>
  <unicode hex="0021"/>
  <outline>
    <contour>
      <point x="54.625" y="46" type="curve" smooth="yes"/>
      <point x="54.625" y="71"/>
      <point x="73.375" y="92.25"/>
      <point x="98.375" y="92.25" type="curve" smooth="yes"/>
      <point x="123.375" y="92.25"/>
      <point x="143.375" y="71"/>
      <point x="143.375" y="46" type="curve" smooth="yes"/>
      <point x="143.375" y="21"/>
      <point x="123.375" y="-0.25"/>
      <point x="98.375" y="-0.25" type="curve" smooth="yes"/>
      <point x="73.375" y="-0.25"/>
      <point x="54.625" y="21"/>
    </contour>
    <contour>
      <point x="136.096" y="584.048" type="curve" smooth="yes"/>
      <point x="136.096" y="160.444" type="line" smooth="yes"/>
      <point x="136.096" y="144.398"/>
      <point x="119.945" y="130.492"/>
      <point x="99.0459" y="130.492" type="curve" smooth="yes"/>
      <point x="78.1455" y="130.492"/>
      <point x="61.9951" y="144.62"/>
      <point x="61.9961" y="160.444" type="curve" smooth="yes"/>
      <point x="61.9961" y="160.444"/>
      <point x="61.7881" y="583.88"/>
      <point x="61.9961" y="584.048" type="curve" smooth="yes"/>
      <point x="61.9961" y="600.094"/>
      <point x="78.1455" y="614"/>
      <point x="99.0459" y="614" type="curve" smooth="yes"/>
      <point x="119.945" y="614"/>
      <point x="135.67" y="600.094"/>
    </contour>
  </outline>
</glyph>
<glyph name="quotedbl" format="1">
  <advance width="320"/>
  <unicode hex="0022"/>
  <outline>
    <contour>
      <point x="174.439" y="653.75" type="curve" smooth="yes"/>
      <point x="174.439" y="678.75"/>
      <point x="193.189" y="700"/>
      <point x="218.189" y="700" type="curve" smooth="yes"/>
      <point x="243.189" y="700"/>
      <point x="263.189" y="678.75"/>
      <point x="263.189" y="653.75" type="curve"/>
      <point x="268.19" y="633.318"/>
      <point x="278.189" y="600"/>
      <point x="271.939" y="583.75" type="curve" smooth="yes"/>
      <point x="268.189" y="572.5"/>
      <point x="221.938" y="562.084"/>
      <point x="186.939" y="557.5" type="curve"/>
      <point x="215.113" y="571.015"/>
      <point x="239.802" y="577.021"/>
      <point x="239.482" y="613.066" type="curve"/>
      <point x="233.156" y="609.527"/>
      <point x="225.911" y="607.5"/>
      <point x="218.189" y="607.5" type="curve" smooth="yes"/>
      <point x="193.189" y="607.5"/>
      <point x="174.439" y="628.75"/>
    </contour>
    <contour>
      <point x="52.0875" y="653.75" type="curve" smooth="yes"/>
      <point x="52.0875" y="678.75"/>
      <point x="70.8375" y="700"/>
      <point x="95.8375" y="700" type="curve" smooth="yes"/>
      <point x="120.837" y="700"/>
      <point x="140.837" y="678.75"/>
      <point x="140.837" y="653.75" type="curve"/>
      <point x="145.838" y="633.318"/>
      <point x="155.837" y="600"/>
      <point x="149.587" y="583.75" type="curve" smooth="yes"/>
      <point x="145.837" y="572.5"/>
      <point x="99.5865" y="562.084"/>
      <point x="64.5875" y="557.5" type="curve"/>
      <point x="92.7613" y="571.015"/>
      <point x="117.45" y="577.021"/>
      <point x="117.13" y="613.066" type="curve"/>
      <point x="110.804" y="609.527"/>
      <point x="103.559" y="607.5"/>
      <point x="95.8375" y="607.5" type="curve" smooth="yes"/>
      <point x="70.8375" y="607.5"/>
      <point x="52.0875" y="628.75"/>
    </contour>
  </outline>
</glyph>
<glyph name="numbersign" format="1">
  <advance width="831"/>
  <unicode hex="0023"/>
  <outline>
    <contour>
      <point x="686.482" y="622.012" type="curve" smooth="yes"/>
      <point x="617.657" y="432.635" type="line"/>
      <point x="746.002" y="432.198" type="line" smooth="yes"/>
      <point x="762.905" y="432.141"/>
      <point x="783.397" y="416.906"/>
      <point x="790.956" y="397.256" type="curve" smooth="yes"/>
      <point x="798.515" y="377.605"/>
      <point x="789.475" y="362.47"/>
      <point x="772.804" y="362.527" type="curve" smooth="yes"/>
      <point x="772.804" y="362.527"/>
      <point x="693.288" y="362.791"/>
      <point x="590.609" y="363.14" type="curve"/>
      <point x="550.417" y="252.626" type="line"/>
      <point x="697.015" y="252.126" type="line" smooth="yes"/>
      <point x="713.918" y="252.068"/>
      <point x="734.41" y="236.817"/>
      <point x="741.969" y="217.146" type="curve" smooth="yes"/>
      <point x="749.528" y="197.474"/>
      <point x="740.488" y="182.321"/>
      <point x="723.817" y="182.379" type="curve" smooth="yes"/>
      <point x="723.817" y="182.379"/>
      <point x="634.722" y="182.674"/>
      <point x="523.367" y="183.054" type="curve"/>
      <point x="467.739" y="29.9876" type="line" smooth="yes"/>
      <point x="461.901" y="13.9228"/>
      <point x="439.762" y="0"/>
      <point x="417.66" y="0" type="curve" smooth="yes"/>
      <point x="395.557" y="0"/>
      <point x="383.618" y="14.1445"/>
      <point x="389.376" y="29.9876" type="curve" smooth="yes"/>
      <point x="389.376" y="29.9876"/>
      <point x="413.166" y="95.5122"/>
      <point x="445.054" y="183.323" type="curve"/>
      <point x="393.934" y="183.499"/>
      <point x="341.477" y="183.682"/>
      <point x="293.116" y="183.856" type="curve"/>
      <point x="237.197" y="29.9876" type="line" smooth="yes"/>
      <point x="231.359" y="13.9228"/>
      <point x="209.22" y="0"/>
      <point x="187.119" y="0" type="curve" smooth="yes"/>
      <point x="165.016" y="0"/>
      <point x="153.076" y="14.1445"/>
      <point x="158.835" y="29.9876" type="curve" smooth="yes"/>
      <point x="158.835" y="29.9876"/>
      <point x="182.772" y="95.9201"/>
      <point x="214.81" y="184.142" type="curve"/>
      <point x="141.677" y="184.397"/>
      <point x="90.5851" y="184.595"/>
      <point x="90.5138" y="184.651" type="curve" smooth="yes"/>
      <point x="73.6109" y="184.708"/>
      <point x="53.1202" y="199.942"/>
      <point x="45.5605" y="219.594" type="curve" smooth="yes"/>
      <point x="38.0008" y="239.246"/>
      <point x="46.963" y="253.981"/>
      <point x="63.712" y="254.324" type="curve" smooth="yes"/>
      <point x="241.854" y="253.675" type="line"/>
      <point x="254.974" y="289.774"/>
      <point x="268.631" y="327.35"/>
      <point x="282.008" y="364.151" type="curve"/>
      <point x="199.286" y="364.436"/>
      <point x="139.578" y="364.662"/>
      <point x="139.501" y="364.723" type="curve" smooth="yes"/>
      <point x="122.598" y="364.781"/>
      <point x="102.107" y="380.032"/>
      <point x="94.5477" y="399.706" type="curve" smooth="yes"/>
      <point x="86.988" y="419.379"/>
      <point x="95.9502" y="434.132"/>
      <point x="112.699" y="434.475" type="curve" smooth="yes"/>
      <point x="309.065" y="433.76" type="line"/>
      <point x="347.124" y="538.498"/>
      <point x="377.473" y="621.95"/>
      <point x="377.578" y="622.012" type="curve" smooth="yes"/>
      <point x="383.416" y="638.077"/>
      <point x="405.554" y="652"/>
      <point x="427.657" y="652" type="curve" smooth="yes"/>
      <point x="449.759" y="652"/>
      <point x="461.329" y="638.077"/>
      <point x="455.941" y="622.012" type="curve" smooth="yes"/>
      <point x="387.421" y="433.474" type="line"/>
      <point x="539.302" y="432.921" type="line"/>
      <point x="577.503" y="538.052"/>
      <point x="608.014" y="621.95"/>
      <point x="608.12" y="622.012" type="curve" smooth="yes"/>
      <point x="613.958" y="638.077"/>
      <point x="636.096" y="652"/>
      <point x="658.199" y="652" type="curve" smooth="yes"/>
      <point x="680.3" y="652"/>
      <point x="691.87" y="638.077"/>
    </contour>
    <contour>
      <point x="360.357" y="363.886" type="curve"/>
      <point x="320.182" y="253.409" type="line"/>
      <point x="472.092" y="252.892" type="line"/>
      <point x="485.208" y="288.981"/>
      <point x="498.868" y="326.565"/>
      <point x="512.254" y="363.39" type="curve"/>
      <point x="461.803" y="363.552"/>
      <point x="409.389" y="363.723"/>
    </contour>
  </outline>
</glyph>
<glyph name="dollar" format="1">
  <advance width="554"/>
  <unicode hex="0024"/>
  <outline>
    <contour>
      <point x="238.467" y="480.701" type="curve"/>
      <point x="167.88" y="474.995"/>
      <point x="112.139" y="452.107"/>
      <point x="112.139" y="393.34" type="curve" smooth="yes"/>
      <point x="112.139" y="391.802"/>
      <point x="95.1895" y="338.279"/>
      <point x="174.9" y="338.497" type="curve" smooth="yes"/>
      <point x="174.9" y="338.497"/>
      <point x="198.153" y="338.655"/>
      <point x="238.475" y="338.806" type="curve"/>
      <point x="238.467" y="389.413"/>
      <point x="238.467" y="438.817"/>
    </contour>
    <contour>
      <point x="312.661" y="140.176" type="line"/>
      <point x="387.245" y="144.706"/>
      <point x="447.545" y="167.011"/>
      <point x="447.545" y="228.114" type="curve" smooth="yes"/>
      <point x="447.545" y="229.651"/>
      <point x="464.496" y="283.059"/>
      <point x="384.784" y="282.94" type="curve" smooth="yes"/>
      <point x="384.564" y="283.001"/>
      <point x="358.083" y="282.828"/>
      <point x="312.661" y="282.661" type="curve"/>
    </contour>
    <contour>
      <point x="312.661" y="593.745" type="curve" smooth="yes"/>
      <point x="312.661" y="538.302" type="line"/>
      <point x="417.559" y="538.212"/>
      <point x="485.627" y="537.776"/>
      <point x="485.627" y="537.776" type="curve" smooth="yes"/>
      <point x="497.317" y="537.776"/>
      <point x="507.449" y="525.663"/>
      <point x="507.449" y="509.988" type="curve" smooth="yes"/>
      <point x="507.449" y="494.313"/>
      <point x="497.317" y="482.2"/>
      <point x="485.627" y="482.2" type="curve" smooth="yes"/>
      <point x="485.627" y="482.2"/>
      <point x="393.707" y="482.216"/>
      <point x="312.661" y="482.22" type="curve"/>
      <point x="312.661" y="339.019" type="line"/>
      <point x="334.352" y="339.057"/>
      <point x="358.085" y="339.082"/>
      <point x="383.503" y="339.082" type="curve" smooth="yes"/>
      <point x="440.764" y="339.082"/>
      <point x="509.399" y="352.124"/>
      <point x="509.399" y="227.55" type="curve" smooth="yes"/>
      <point x="509.399" y="115.61"/>
      <point x="423.731" y="87.5814"/>
      <point x="312.661" y="83.6571" type="curve"/>
      <point x="312.661" y="30.2546" type="line" smooth="yes"/>
      <point x="312.661" y="14.0468"/>
      <point x="296.51" y="0"/>
      <point x="275.611" y="0" type="curve" smooth="yes"/>
      <point x="254.711" y="0"/>
      <point x="238.56" y="14.2705"/>
      <point x="238.561" y="30.2546" type="curve" smooth="yes"/>
      <point x="238.561" y="30.2546"/>
      <point x="238.554" y="50.3941"/>
      <point x="238.544" y="83.1474" type="curve"/>
      <point x="138.468" y="83.2603"/>
      <point x="74.0402" y="83.7067"/>
      <point x="74.0402" y="83.7067" type="curve" smooth="yes"/>
      <point x="62.3591" y="83.7067"/>
      <point x="52.2355" y="95.819"/>
      <point x="52.2355" y="111.494" type="curve" smooth="yes"/>
      <point x="52.2355" y="127.169"/>
      <point x="62.3592" y="139.281"/>
      <point x="74.0403" y="139.281" type="curve" smooth="yes"/>
      <point x="74.0403" y="139.281"/>
      <point x="159.712" y="139.267"/>
      <point x="238.525" y="139.262" type="curve"/>
      <point x="238.513" y="181.242"/>
      <point x="238.498" y="231.168"/>
      <point x="238.487" y="282.452" type="curve"/>
      <point x="219.135" y="282.42"/>
      <point x="198.255" y="282.399"/>
      <point x="176.08" y="282.399" type="curve" smooth="yes"/>
      <point x="118.865" y="282.399"/>
      <point x="50.2853" y="269.357"/>
      <point x="50.2853" y="393.936" type="curve" smooth="yes"/>
      <point x="50.2853" y="503.045"/>
      <point x="131.602" y="532.438"/>
      <point x="238.481" y="537.491" type="curve"/>
      <point x="238.494" y="572.208"/>
      <point x="238.519" y="593.736"/>
      <point x="238.559" y="593.768" type="curve" smooth="yes"/>
      <point x="238.559" y="609.964"/>
      <point x="254.709" y="624"/>
      <point x="275.61" y="624" type="curve" smooth="yes"/>
      <point x="296.51" y="624"/>
      <point x="312.235" y="609.953"/>
    </contour>
  </outline>
</glyph>
<glyph name="percent" format="1">
  <advance width="627"/>
  <unicode hex="0025"/>
  <outline>
    <contour>
      <point x="234.923" y="529.772" type="curve" smooth="yes"/>
      <point x="234.923" y="563.751"/>
      <point x="204.759" y="593.796"/>
      <point x="167.699" y="593.796" type="curve" smooth="yes"/>
      <point x="130.639" y="593.796"/>
      <point x="100.475" y="563.751"/>
      <point x="100.475" y="529.772" type="curve" smooth="yes"/>
      <point x="100.475" y="495.794"/>
      <point x="130.639" y="465.749"/>
      <point x="167.699" y="465.749" type="curve" smooth="yes"/>
      <point x="204.759" y="465.749"/>
      <point x="234.923" y="495.794"/>
    </contour>
    <contour>
      <point x="293.66" y="529.772" type="curve" smooth="yes"/>
      <point x="293.66" y="462.31"/>
      <point x="237.139" y="407.545"/>
      <point x="167.699" y="407.545" type="curve" smooth="yes"/>
      <point x="98.2592" y="407.545"/>
      <point x="41.7383" y="462.31"/>
      <point x="41.7383" y="529.772" type="curve" smooth="yes"/>
      <point x="41.7383" y="597.235"/>
      <point x="98.2592" y="652"/>
      <point x="167.699" y="652" type="curve" smooth="yes"/>
      <point x="237.139" y="652"/>
      <point x="293.66" y="597.235"/>
    </contour>
    <contour>
      <point x="396.653" y="121.787" type="curve" smooth="yes"/>
      <point x="396.653" y="87.8084"/>
      <point x="426.818" y="57.7637"/>
      <point x="463.878" y="57.7637" type="curve" smooth="yes"/>
      <point x="500.938" y="57.7637"/>
      <point x="531.102" y="87.8084"/>
      <point x="531.102" y="121.787" type="curve" smooth="yes"/>
      <point x="531.102" y="155.766"/>
      <point x="500.938" y="185.811"/>
      <point x="463.878" y="185.811" type="curve" smooth="yes"/>
      <point x="426.818" y="185.811"/>
      <point x="396.653" y="155.766"/>
    </contour>
    <contour>
      <point x="337.917" y="121.787" type="curve" smooth="yes"/>
      <point x="337.917" y="189.25"/>
      <point x="394.438" y="244.015"/>
      <point x="463.878" y="244.015" type="curve" smooth="yes"/>
      <point x="533.318" y="244.015"/>
      <point x="589.838" y="189.25"/>
      <point x="589.838" y="121.787" type="curve" smooth="yes"/>
      <point x="589.838" y="54.3243"/>
      <point x="533.318" y="-0.44043"/>
      <point x="463.878" y="-0.44043" type="curve" smooth="yes"/>
      <point x="394.438" y="-0.44043"/>
      <point x="337.917" y="54.3243"/>
    </contour>
    <contour>
      <point x="536.225" y="622.46" type="curve" smooth="yes"/>
      <point x="171.812" y="29.5405" type="line" smooth="yes"/>
      <point x="162.085" y="13.7152"/>
      <point x="136.858" y="0"/>
      <point x="115.12" y="0" type="curve" smooth="yes"/>
      <point x="93.3803" y="0"/>
      <point x="85.1445" y="13.9336"/>
      <point x="94.7383" y="29.5405" type="curve" smooth="yes"/>
      <point x="94.7383" y="29.5405"/>
      <point x="458.833" y="622.294"/>
      <point x="459.151" y="622.46" type="curve" smooth="yes"/>
      <point x="468.878" y="638.285"/>
      <point x="494.105" y="652"/>
      <point x="515.844" y="652" type="curve" smooth="yes"/>
      <point x="537.582" y="652"/>
      <point x="545.509" y="638.285"/>
    </contour>
  </outline>
</glyph>
<glyph name="ampersand" format="1">
  <advance width="826"/>
  <unicode hex="0026"/>
  <outline>
    <contour>
      <point x="389.909" y="438.1" type="curve" smooth="yes"/>
      <point x="611.264" y="438.1" type="line" smooth="yes"/>
      <point x="615.644" y="439.354"/>
      <point x="620.44" y="440.05"/>
      <point x="625.501" y="440.05" type="curve" smooth="yes"/>
      <point x="630.563" y="440.05"/>
      <point x="635.334" y="439.354"/>
      <point x="639.686" y="438.1" type="curve" smooth="yes"/>
      <point x="758.48" y="438.1" type="line" smooth="yes"/>
      <point x="774.187" y="438.1"/>
      <point x="787.799" y="421.949"/>
      <point x="787.799" y="401.05" type="curve" smooth="yes"/>
      <point x="787.799" y="380.149"/>
      <point x="773.832" y="363.999"/>
      <point x="758.188" y="364" type="curve" smooth="yes"/>
      <point x="663.064" y="363.932" type="line"/>
      <point x="663.064" y="37.0498" type="line" smooth="yes"/>
      <point x="663.064" y="16.1494"/>
      <point x="649.41" y="0"/>
      <point x="633.655" y="0" type="curve" smooth="yes"/>
      <point x="633.489" y="-0.208008"/>
      <point x="72.794" y="0"/>
      <point x="72.794" y="0" type="curve" smooth="yes"/>
      <point x="57.2569" y="-0.000976562"/>
      <point x="43.3856" y="16.1494"/>
      <point x="43.3856" y="37.0498" type="curve" smooth="yes"/>
      <point x="43.3856" y="130.594"/>
      <point x="58.5772" y="213.971"/>
      <point x="105.261" y="267.138" type="curve"/>
      <point x="101.38" y="273.338"/>
      <point x="99.0112" y="281.141"/>
      <point x="99.0112" y="289.75" type="curve" smooth="yes"/>
      <point x="99.0112" y="449.882"/>
      <point x="237.653" y="580.222"/>
      <point x="408.444" y="580.222" type="curve" smooth="yes"/>
      <point x="579.235" y="580.222"/>
      <point x="554.383" y="579.5"/>
      <point x="554.383" y="579.5" type="curve" smooth="yes"/>
      <point x="570.246" y="579.5"/>
      <point x="583.994" y="563.35"/>
      <point x="583.994" y="542.45" type="curve" smooth="yes"/>
      <point x="583.994" y="521.55"/>
      <point x="570.246" y="505.4"/>
      <point x="554.383" y="505.4" type="curve" smooth="yes"/>
      <point x="554.383" y="505.4"/>
      <point x="526.379" y="505.426"/>
      <point x="408.444" y="505.426" type="curve" smooth="yes"/>
      <point x="303.247" y="505.426"/>
      <point x="228.711" y="426.552"/>
      <point x="196.176" y="326.8" type="curve"/>
      <point x="237.263" y="326.8" type="line" smooth="yes"/>
      <point x="244.176" y="327.278"/>
      <point x="251.32" y="327.521"/>
      <point x="258.698" y="327.521" type="curve" smooth="yes"/>
      <point x="429.489" y="327.521"/>
      <point x="431.076" y="326.8"/>
      <point x="431.076" y="326.8" type="curve" smooth="yes"/>
      <point x="446.938" y="326.8"/>
      <point x="460.686" y="310.649"/>
      <point x="460.686" y="289.75" type="curve" smooth="yes"/>
      <point x="460.686" y="268.85"/>
      <point x="446.938" y="252.7"/>
      <point x="431.076" y="252.7" type="curve" smooth="yes"/>
      <point x="430.983" y="252.584"/>
      <point x="336.044" y="252.598"/>
      <point x="252.572" y="252.633" type="curve" smooth="yes"/>
      <point x="154.259" y="249.582"/>
      <point x="172.439" y="171.869"/>
      <point x="140.55" y="74.0996" type="curve"/>
      <point x="588.941" y="74.0996" type="line"/>
      <point x="588.901" y="136.3"/>
      <point x="588.835" y="264.65"/>
      <point x="588.885" y="363.914" type="curve"/>
      <point x="484.386" y="363.897"/>
      <point x="390.276" y="363.907"/>
      <point x="390.202" y="364" type="curve" smooth="yes"/>
      <point x="374.339" y="364"/>
      <point x="360.591" y="380.149"/>
      <point x="360.591" y="401.05" type="curve" smooth="yes"/>
      <point x="360.591" y="421.949"/>
      <point x="374.203" y="437.674"/>
    </contour>
  </outline>
</glyph>
<glyph name="quotesingle" format="1">
  <advance width="198"/>
  <unicode hex="0027"/>
  <outline>
    <contour>
      <point x="52.0875" y="653.75" type="curve" smooth="yes"/>
      <point x="52.0875" y="678.75"/>
      <point x="70.8375" y="700"/>
      <point x="95.8375" y="700" type="curve" smooth="yes"/>
      <point x="120.837" y="700"/>
      <point x="140.837" y="678.75"/>
      <point x="140.837" y="653.75" type="curve"/>
      <point x="145.838" y="633.318"/>
      <point x="155.837" y="600"/>
      <point x="149.587" y="583.75" type="curve" smooth="yes"/>
      <point x="145.837" y="572.5"/>
      <point x="99.5865" y="562.084"/>
      <point x="64.5875" y="557.5" type="curve"/>
      <point x="92.7613" y="571.015"/>
      <point x="117.45" y="577.021"/>
      <point x="117.13" y="613.066" type="curve"/>
      <point x="110.804" y="609.527"/>
      <point x="103.559" y="607.5"/>
      <point x="95.8375" y="607.5" type="curve" smooth="yes"/>
      <point x="70.8375" y="607.5"/>
      <point x="52.0875" y="628.75"/>
    </contour>
  </outline>
</glyph>
<glyph name="parenleft" format="1">
  <advance width="408"/>
  <unicode hex="0028"/>
  <outline>
    <contour>
      <point x="292.327" y="614.075" type="curve"/>
      <point x="308.19" y="614.075"/>
      <point x="321.938" y="597.925"/>
      <point x="321.938" y="577.025" type="curve" smooth="yes"/>
      <point x="321.938" y="556.125"/>
      <point x="308.19" y="539.976"/>
      <point x="292.327" y="539.976" type="curve" smooth="yes"/>
      <point x="174.392" y="539.976"/>
      <point x="127.216" y="436.687"/>
      <point x="127.216" y="309.792" type="curve" smooth="yes"/>
      <point x="127.216" y="182.897"/>
      <point x="174.392" y="79.6085"/>
      <point x="292.327" y="79.6085" type="curve" smooth="yes"/>
      <point x="308.19" y="79.6085"/>
      <point x="321.938" y="62.3727"/>
      <point x="321.938" y="40.0664" type="curve" smooth="yes"/>
      <point x="321.938" y="17.7612"/>
      <point x="308.19" y="0.524414"/>
      <point x="292.327" y="0.524414" type="curve"/>
      <point x="292.327" y="0.524414"/>
      <point x="292.327" y="-0.171875"/>
      <point x="292.327" y="-0.171875" type="curve" smooth="yes"/>
      <point x="124.748" y="-0.171875"/>
      <point x="44.7457" y="137.796"/>
      <point x="44.7457" y="307.3" type="curve" smooth="yes"/>
      <point x="44.7457" y="476.803"/>
      <point x="124.748" y="614.771"/>
      <point x="292.327" y="614.771" type="curve" smooth="yes"/>
      <point x="292.327" y="614.771"/>
      <point x="292.327" y="614.075"/>
    </contour>
  </outline>
</glyph>
<glyph name="parenright" format="1">
  <advance width="410"/>
  <unicode hex="0029"/>
  <outline>
    <contour>
      <point x="121.71" y="614.075" type="curve"/>
      <point x="121.71" y="614.075"/>
      <point x="121.71" y="614.771"/>
      <point x="121.71" y="614.771" type="curve" smooth="yes"/>
      <point x="289.29" y="614.771"/>
      <point x="369.292" y="476.803"/>
      <point x="369.292" y="307.3" type="curve" smooth="yes"/>
      <point x="369.292" y="137.796"/>
      <point x="289.29" y="-0.171875"/>
      <point x="121.71" y="-0.171875" type="curve" smooth="yes"/>
      <point x="121.71" y="-0.171875"/>
      <point x="121.71" y="0.524414"/>
      <point x="121.71" y="0.524414" type="curve"/>
      <point x="105.847" y="0.524414"/>
      <point x="92.0991" y="16.6748"/>
      <point x="92.0991" y="37.5742" type="curve" smooth="yes"/>
      <point x="92.0991" y="58.4746"/>
      <point x="105.847" y="74.624"/>
      <point x="121.71" y="74.624" type="curve" smooth="yes"/>
      <point x="239.645" y="74.624"/>
      <point x="286.821" y="177.912"/>
      <point x="286.821" y="304.808" type="curve" smooth="yes"/>
      <point x="286.821" y="431.703"/>
      <point x="239.645" y="534.991"/>
      <point x="121.71" y="534.991" type="curve" smooth="yes"/>
      <point x="105.847" y="534.991"/>
      <point x="92.0991" y="552.227"/>
      <point x="92.0991" y="574.533" type="curve" smooth="yes"/>
      <point x="92.0991" y="596.838"/>
      <point x="105.847" y="614.075"/>
    </contour>
  </outline>
</glyph>
<glyph name="asterisk" format="1">
  <advance width="343"/>
  <unicode hex="002A"/>
  <outline>
    <contour>
      <point x="188.989" y="734.801" type="curve" smooth="yes"/>
      <point x="188.989" y="658.23" type="line"/>
      <point x="220.398" y="687.936"/>
      <point x="246.242" y="712.364"/>
      <point x="246.285" y="712.358" type="curve" smooth="yes"/>
      <point x="257.059" y="722.549"/>
      <point x="278.884" y="701.843"/>
      <point x="268.449" y="691.4" type="curve" smooth="yes"/>
      <point x="211.191" y="637.257" type="line"/>
      <point x="255.614" y="637.26"/>
      <point x="292.156" y="637.253"/>
      <point x="292.183" y="637.221" type="curve" smooth="yes"/>
      <point x="298.528" y="637.221"/>
      <point x="304.026" y="630.761"/>
      <point x="304.026" y="622.4" type="curve" smooth="yes"/>
      <point x="304.026" y="614.041"/>
      <point x="298.528" y="607.751"/>
      <point x="292.183" y="607.58" type="curve" smooth="yes"/>
      <point x="211.207" y="607.58" type="line"/>
      <point x="242.621" y="577.88"/>
      <point x="268.455" y="553.441"/>
      <point x="268.449" y="553.4" type="curve" smooth="yes"/>
      <point x="279.226" y="543.213"/>
      <point x="257.329" y="522.575"/>
      <point x="246.285" y="532.442" type="curve" smooth="yes"/>
      <point x="188.989" y="586.622" type="line"/>
      <point x="188.989" y="510" type="line" smooth="yes"/>
      <point x="188.989" y="504"/>
      <point x="182.528" y="498.801"/>
      <point x="174.169" y="498.801" type="curve" smooth="yes"/>
      <point x="165.808" y="498.801"/>
      <point x="159.348" y="504.083"/>
      <point x="159.348" y="510" type="curve" smooth="yes"/>
      <point x="159.348" y="510"/>
      <point x="159.335" y="544.571"/>
      <point x="159.324" y="586.599" type="curve"/>
      <point x="102.052" y="532.442" type="line" smooth="yes"/>
      <point x="91.246" y="522.223"/>
      <point x="69.1949" y="543.292"/>
      <point x="79.8879" y="553.4" type="curve" smooth="yes"/>
      <point x="79.8879" y="553.4"/>
      <point x="105.73" y="577.855"/>
      <point x="137.149" y="607.58" type="curve"/>
      <point x="56.1544" y="607.58" type="line" smooth="yes"/>
      <point x="49.8092" y="607.58"/>
      <point x="44.3109" y="614.041"/>
      <point x="44.3109" y="622.4" type="curve" smooth="yes"/>
      <point x="44.3109" y="630.761"/>
      <point x="49.897" y="637.221"/>
      <point x="56.1544" y="637.221" type="curve" smooth="yes"/>
      <point x="56.1544" y="637.221"/>
      <point x="92.7146" y="637.233"/>
      <point x="137.16" y="637.243" type="curve"/>
      <point x="79.8879" y="691.4" type="line" smooth="yes"/>
      <point x="69.0802" y="701.618"/>
      <point x="91.3617" y="722.47"/>
      <point x="102.052" y="712.358" type="curve" smooth="yes"/>
      <point x="102.052" y="712.358"/>
      <point x="127.892" y="687.942"/>
      <point x="159.31" y="658.248" type="curve"/>
      <point x="159.307" y="700.239"/>
      <point x="159.314" y="734.775"/>
      <point x="159.348" y="734.801" type="curve" smooth="yes"/>
      <point x="159.348" y="740.801"/>
      <point x="165.808" y="746"/>
      <point x="174.169" y="746" type="curve" smooth="yes"/>
      <point x="182.528" y="746"/>
      <point x="188.818" y="740.801"/>
    </contour>
  </outline>
</glyph>
<glyph name="plus" format="1">
  <advance width="595"/>
  <unicode hex="002B"/>
  <outline>
    <contour>
      <point x="521.329" y="288.904" type="curve" smooth="yes"/>
      <point x="337.463" y="288.904" type="line"/>
      <point x="337.48" y="189.413"/>
      <point x="337.469" y="100.386"/>
      <point x="337.372" y="100.311" type="curve" smooth="yes"/>
      <point x="337.372" y="84.0484"/>
      <point x="321.222" y="69.9541"/>
      <point x="300.322" y="69.9541" type="curve" smooth="yes"/>
      <point x="279.423" y="69.9541"/>
      <point x="263.698" y="84.0484"/>
      <point x="263.272" y="100.311" type="curve" smooth="yes"/>
      <point x="263.272" y="288.904" type="line"/>
      <point x="79.3147" y="288.904" type="line" smooth="yes"/>
      <point x="63.4518" y="288.904"/>
      <point x="49.7039" y="305.055"/>
      <point x="49.7039" y="325.954" type="curve" smooth="yes"/>
      <point x="49.7039" y="346.854"/>
      <point x="63.6707" y="363.005"/>
      <point x="79.3147" y="363.004" type="curve" smooth="yes"/>
      <point x="79.3147" y="363.004"/>
      <point x="166.185" y="363.047"/>
      <point x="263.272" y="363.078" type="curve"/>
      <point x="263.272" y="551.597" type="line" smooth="yes"/>
      <point x="263.272" y="567.86"/>
      <point x="279.423" y="581.954"/>
      <point x="300.322" y="581.954" type="curve" smooth="yes"/>
      <point x="321.222" y="581.954"/>
      <point x="337.373" y="567.635"/>
      <point x="337.372" y="551.597" type="curve" smooth="yes"/>
      <point x="337.372" y="551.597"/>
      <point x="337.414" y="462.593"/>
      <point x="337.443" y="363.097" type="curve"/>
      <point x="434.46" y="363.115"/>
      <point x="521.256" y="363.103"/>
      <point x="521.329" y="363.004" type="curve" smooth="yes"/>
      <point x="537.192" y="363.004"/>
      <point x="550.94" y="346.854"/>
      <point x="550.94" y="325.954" type="curve" smooth="yes"/>
      <point x="550.94" y="305.055"/>
      <point x="537.192" y="289.33"/>
    </contour>
  </outline>
</glyph>
<glyph name="comma" format="1">
  <advance width="205"/>
  <unicode hex="002C"/>
  <outline>
    <contour>
      <point x="55.7888" y="80" type="curve" smooth="yes"/>
      <point x="55.7888" y="105"/>
      <point x="74.5388" y="126.25"/>
      <point x="99.5388" y="126.25" type="curve" smooth="yes"/>
      <point x="124.539" y="126.25"/>
      <point x="144.539" y="105"/>
      <point x="144.539" y="80" type="curve"/>
      <point x="149.54" y="52.3509"/>
      <point x="159.539" y="7.26299"/>
      <point x="153.289" y="-14.7273" type="curve" smooth="yes"/>
      <point x="149.539" y="-29.9513"/>
      <point x="103.288" y="-44.0467"/>
      <point x="68.2888" y="-50.25" type="curve"/>
      <point x="96.4626" y="-28.466"/>
      <point x="121.151" y="-18.7853"/>
      <point x="120.832" y="39.3164" type="curve"/>
      <point x="114.506" y="35.7773"/>
      <point x="107.26" y="33.75"/>
      <point x="99.5388" y="33.75" type="curve" smooth="yes"/>
      <point x="74.5388" y="33.75"/>
      <point x="55.7888" y="55"/>
    </contour>
  </outline>
</glyph>
<glyph name="hyphen" format="1">
  <advance width="619"/>
  <unicode hex="002D"/>
  <outline>
    <contour>
      <point x="536.168" y="271.904" type="curve" smooth="yes"/>
      <point x="89.89" y="271.904" type="line" smooth="yes"/>
      <point x="74.0271" y="271.904"/>
      <point x="60.2792" y="288.055"/>
      <point x="60.2792" y="308.954" type="curve" smooth="yes"/>
      <point x="60.2792" y="329.854"/>
      <point x="74.246" y="346.005"/>
      <point x="89.89" y="346.004" type="curve" smooth="yes"/>
      <point x="89.89" y="346.004"/>
      <point x="536.001" y="346.004"/>
      <point x="536.168" y="346.004" type="curve" smooth="yes"/>
      <point x="552.03" y="346.004"/>
      <point x="565.778" y="329.854"/>
      <point x="565.778" y="308.954" type="curve" smooth="yes"/>
      <point x="565.778" y="288.055"/>
      <point x="552.03" y="272.33"/>
    </contour>
  </outline>
</glyph>
<glyph name="period" format="1">
  <advance width="196"/>
  <unicode hex="002E"/>
  <outline>
    <contour>
      <point x="53.625" y="46" type="curve" smooth="yes"/>
      <point x="53.625" y="71"/>
      <point x="72.375" y="92.25"/>
      <point x="97.375" y="92.25" type="curve" smooth="yes"/>
      <point x="122.375" y="92.25"/>
      <point x="142.375" y="71"/>
      <point x="142.375" y="46" type="curve" smooth="yes"/>
      <point x="142.375" y="21"/>
      <point x="122.375" y="-0.25"/>
      <point x="97.375" y="-0.25" type="curve" smooth="yes"/>
      <point x="72.375" y="-0.25"/>
      <point x="53.625" y="21"/>
    </contour>
  </outline>
</glyph>
<glyph name="slash" format="1">
  <advance width="363"/>
  <unicode hex="002F"/>
  <outline>
    <contour>
      <point x="324.396" y="622.46" type="curve" smooth="yes"/>
      <point x="117.552" y="29.5405" type="line" smooth="yes"/>
      <point x="112.032" y="13.7152"/>
      <point x="91.0972" y="0"/>
      <point x="70.1978" y="0" type="curve" smooth="yes"/>
      <point x="49.2974" y="0"/>
      <point x="38.0074" y="13.9336"/>
      <point x="43.4527" y="29.5405" type="curve" smooth="yes"/>
      <point x="43.4527" y="29.5405"/>
      <point x="250.03" y="622.294"/>
      <point x="250.296" y="622.46" type="curve" smooth="yes"/>
      <point x="255.817" y="638.285"/>
      <point x="276.751" y="652"/>
      <point x="297.651" y="652" type="curve" smooth="yes"/>
      <point x="318.55" y="652"/>
      <point x="329.491" y="638.285"/>
    </contour>
  </outline>
</glyph>
<glyph name="zero" format="1">
  <advance width="734"/>
  <unicode hex="0030"/>
  <outline>
    <contour>
      <point x="129.748" y="309.6" type="curve" smooth="yes"/>
      <point x="129.748" y="189.057"/>
      <point x="237.481" y="82.4707"/>
      <point x="369.836" y="82.4707" type="curve" smooth="yes"/>
      <point x="502.191" y="82.4707"/>
      <point x="609.924" y="189.057"/>
      <point x="609.924" y="309.6" type="curve" smooth="yes"/>
      <point x="609.924" y="430.141"/>
      <point x="502.191" y="536.729"/>
      <point x="369.836" y="536.729" type="curve" smooth="yes"/>
      <point x="237.481" y="536.729"/>
      <point x="129.748" y="430.141"/>
    </contour>
    <contour>
      <point x="51.0155" y="309.6" type="curve" smooth="yes"/>
      <point x="51.0155" y="480.483"/>
      <point x="194.076" y="619.199"/>
      <point x="369.836" y="619.199" type="curve" smooth="yes"/>
      <point x="545.596" y="619.199"/>
      <point x="688.657" y="480.483"/>
      <point x="688.657" y="309.6" type="curve" smooth="yes"/>
      <point x="688.657" y="138.716"/>
      <point x="545.596" y="0"/>
      <point x="369.836" y="0" type="curve" smooth="yes"/>
      <point x="194.076" y="0"/>
      <point x="51.0155" y="138.716"/>
    </contour>
  </outline>
</glyph>
<glyph name="one" format="1">
  <advance width="305"/>
  <unicode hex="0031"/>
  <outline>
    <contour>
      <point x="184.309" y="491.915" type="curve"/>
      <point x="114.699" y="422.3" type="line" smooth="yes"/>
      <point x="103.482" y="411.082"/>
      <point x="81.6838" y="413.438"/>
      <point x="66.0553" y="429.068" type="curve" smooth="yes"/>
      <point x="50.4258" y="444.697"/>
      <point x="48.225" y="466.652"/>
      <point x="59.2878" y="477.715" type="curve" smooth="yes"/>
      <point x="59.2878" y="477.715"/>
      <point x="173.277" y="594.238"/>
      <point x="173.498" y="594.379" type="curve" smooth="yes"/>
      <point x="184.48" y="605.596"/>
      <point x="193.692" y="626.107"/>
      <point x="220.142" y="623.992" type="curve" smooth="yes"/>
      <point x="241.781" y="623.992"/>
      <point x="258.061" y="610.243"/>
      <point x="258.502" y="594.379" type="curve" smooth="yes"/>
      <point x="258.502" y="29.6132" type="line" smooth="yes"/>
      <point x="258.502" y="13.749"/>
      <point x="242.352" y="0"/>
      <point x="221.452" y="0" type="curve" smooth="yes"/>
      <point x="200.552" y="0"/>
      <point x="184.402" y="13.9679"/>
      <point x="184.403" y="29.6132" type="curve" smooth="yes"/>
      <point x="184.403" y="29.6132"/>
      <point x="184.284" y="321.898"/>
    </contour>
  </outline>
</glyph>
<glyph name="two" format="1">
  <advance width="715"/>
  <unicode hex="0032"/>
  <outline>
    <contour>
      <point x="638.257" y="1.12402" type="curve" smooth="yes"/>
      <point x="638.257" y="1.12402"/>
      <point x="525.241" y="0.402344"/>
      <point x="357.02" y="0.402344" type="curve" smooth="yes"/>
      <point x="188.798" y="0.402344"/>
      <point x="52.2424" y="-18.2578"/>
      <point x="52.2424" y="137.874" type="curve" smooth="yes"/>
      <point x="52.2424" y="297.006"/>
      <point x="144.59" y="285.346"/>
      <point x="221.635" y="285.346" type="curve" smooth="yes"/>
      <point x="390.922" y="285.346"/>
      <point x="504.654" y="284.624"/>
      <point x="504.654" y="284.624" type="curve" smooth="yes"/>
      <point x="561.803" y="284.624"/>
      <point x="586.551" y="329.402"/>
      <point x="586.551" y="393.3" type="curve" smooth="yes"/>
      <point x="586.551" y="512.197"/>
      <point x="483.171" y="503.976"/>
      <point x="366.257" y="503.976" type="curve" smooth="yes"/>
      <point x="249.342" y="503.976"/>
      <point x="83.1964" y="503.95"/>
      <point x="83.1964" y="503.95" type="curve" smooth="yes"/>
      <point x="67.4708" y="503.95"/>
      <point x="53.842" y="520.1"/>
      <point x="53.842" y="541" type="curve" smooth="yes"/>
      <point x="53.842" y="561.899"/>
      <point x="67.383" y="578.05"/>
      <point x="83.0073" y="578.05" type="curve" smooth="yes"/>
      <point x="83.0073" y="578.05"/>
      <point x="196.023" y="578.771"/>
      <point x="364.244" y="578.771" type="curve" smooth="yes"/>
      <point x="532.466" y="578.771"/>
      <point x="669.022" y="553.432"/>
      <point x="669.022" y="393.3" type="curve" smooth="yes"/>
      <point x="669.022" y="247.168"/>
      <point x="600.783" y="209.828"/>
      <point x="500.678" y="209.828" type="curve" smooth="yes"/>
      <point x="331.39" y="209.828"/>
      <point x="217.658" y="210.55"/>
      <point x="217.658" y="210.55" type="curve" smooth="yes"/>
      <point x="100.761" y="210.55"/>
      <point x="134.713" y="139.771"/>
      <point x="134.713" y="137.874" type="curve" smooth="yes"/>
      <point x="134.713" y="75.9766"/>
      <point x="238.093" y="75.1982"/>
      <point x="355.007" y="75.1982" type="curve" smooth="yes"/>
      <point x="471.922" y="75.1982"/>
      <point x="638.068" y="75.2236"/>
      <point x="638.068" y="75.2236" type="curve" smooth="yes"/>
      <point x="653.793" y="75.2236"/>
      <point x="667.422" y="59.0742"/>
      <point x="667.422" y="38.1738" type="curve" smooth="yes"/>
      <point x="667.422" y="17.2744"/>
      <point x="653.881" y="1.12402"/>
    </contour>
  </outline>
</glyph>
<glyph name="three" format="1">
  <advance width="802"/>
  <unicode hex="0033"/>
  <outline>
    <contour>
      <point x="78.6517" y="344.021" type="curve" smooth="yes"/>
      <point x="495.318" y="344.021" type="line" smooth="yes"/>
      <point x="511.181" y="344.021"/>
      <point x="524.929" y="326.871"/>
      <point x="524.929" y="305.971" type="curve" smooth="yes"/>
      <point x="524.929" y="285.071"/>
      <point x="510.962" y="269.921"/>
      <point x="495.318" y="269.922" type="curve" smooth="yes"/>
      <point x="495.318" y="269.922"/>
      <point x="78.818" y="269.922"/>
      <point x="78.6517" y="269.922" type="curve" smooth="yes"/>
      <point x="62.7888" y="269.922"/>
      <point x="49.0409" y="286.071"/>
      <point x="49.0409" y="306.971" type="curve" smooth="yes"/>
      <point x="49.0409" y="327.871"/>
      <point x="62.7888" y="343.595"/>
    </contour>
    <contour>
      <point x="167.951" y="614.05" type="curve" smooth="yes"/>
      <point x="167.951" y="614.05"/>
      <point x="281.822" y="614.771"/>
      <point x="451.315" y="614.771" type="curve" smooth="yes"/>
      <point x="620.809" y="614.771"/>
      <point x="758.397" y="476.803"/>
      <point x="758.397" y="307.3" type="curve" smooth="yes"/>
      <point x="758.397" y="137.796"/>
      <point x="620.809" y="-0.171875"/>
      <point x="451.315" y="-0.171875" type="curve" smooth="yes"/>
      <point x="281.822" y="-0.171875"/>
      <point x="167.951" y="0.549828"/>
      <point x="167.951" y="0.549828" type="curve" smooth="yes"/>
      <point x="152.209" y="0.549828"/>
      <point x="138.565" y="16.7007"/>
      <point x="138.565" y="37.6008" type="curve" smooth="yes"/>
      <point x="138.565" y="58.5019"/>
      <point x="152.313" y="74.6518"/>
      <point x="168.176" y="74.6518" type="curve" smooth="yes"/>
      <point x="168.176" y="74.6518"/>
      <point x="335.773" y="74.624"/>
      <point x="453.709" y="74.624" type="curve" smooth="yes"/>
      <point x="571.644" y="74.624"/>
      <point x="675.927" y="179.031"/>
      <point x="675.927" y="307.3" type="curve" smooth="yes"/>
      <point x="675.927" y="435.569"/>
      <point x="571.644" y="539.976"/>
      <point x="453.709" y="539.976" type="curve" smooth="yes"/>
      <point x="335.773" y="539.976"/>
      <point x="168.176" y="539.948"/>
      <point x="168.176" y="539.948" type="curve" smooth="yes"/>
      <point x="152.313" y="539.948"/>
      <point x="138.565" y="556.098"/>
      <point x="138.565" y="576.999" type="curve" smooth="yes"/>
      <point x="138.565" y="597.899"/>
      <point x="152.209" y="614.05"/>
    </contour>
  </outline>
</glyph>
<glyph name="four" format="1">
  <advance width="672"/>
  <unicode hex="0034"/>
  <outline>
    <contour>
      <point x="514.284" y="591.345" type="curve"/>
      <point x="514.284" y="331.759" type="line"/>
      <point x="603.116" y="331.759" type="line" smooth="yes"/>
      <point x="618.979" y="331.759"/>
      <point x="632.727" y="315.609"/>
      <point x="632.727" y="294.709" type="curve" smooth="yes"/>
      <point x="632.727" y="273.809"/>
      <point x="618.76" y="257.659"/>
      <point x="603.116" y="257.66" type="curve" smooth="yes"/>
      <point x="603.116" y="257.66"/>
      <point x="568.279" y="257.616"/>
      <point x="514.257" y="257.586" type="curve"/>
      <point x="514.257" y="30.1572" type="line" smooth="yes"/>
      <point x="514.257" y="14.0016"/>
      <point x="498.107" y="0"/>
      <point x="477.207" y="0" type="curve" smooth="yes"/>
      <point x="456.307" y="0"/>
      <point x="440.156" y="14.2246"/>
      <point x="440.157" y="30.1572" type="curve" smooth="yes"/>
      <point x="440.157" y="30.1572"/>
      <point x="440.113" y="130.324"/>
      <point x="440.084" y="257.56" type="curve"/>
      <point x="402.88" y="257.56"/>
      <point x="374.779" y="257.584"/>
      <point x="374.723" y="257.66" type="curve" smooth="yes"/>
      <point x="277.879" y="257.66"/>
      <point x="230.442" y="256.767"/>
      <point x="71.1323" y="257.429" type="curve"/>
      <point x="25.8279" y="267.488"/>
      <point x="48.6386" y="296.956"/>
      <point x="75.8203" y="336.462" type="curve" smooth="yes"/>
      <point x="183.666" y="493.208"/>
      <point x="277.891" y="619.926"/>
      <point x="371.83" y="624.116" type="curve" smooth="yes"/>
      <point x="523.876" y="630.61"/>
      <point x="514.284" y="591.345"/>
    </contour>
    <contour>
      <point x="440.103" y="549.859" type="curve"/>
      <point x="423.977" y="549.822"/>
      <point x="402.705" y="549.671"/>
      <point x="374.723" y="549.32" type="curve" smooth="yes"/>
      <point x="330.018" y="548.716"/>
      <point x="281.595" y="501.374"/>
      <point x="180.001" y="350.416" type="curve" smooth="yes"/>
      <point x="165.5" y="328.87"/>
      <point x="219.774" y="332.456"/>
      <point x="374.723" y="332.456" type="curve" smooth="yes"/>
      <point x="374.723" y="332.456"/>
      <point x="381.524" y="332.467"/>
      <point x="440.069" y="332.476" type="curve"/>
      <point x="440.055" y="418.653"/>
      <point x="440.066" y="502.553"/>
    </contour>
  </outline>
</glyph>
<glyph name="five" format="1">
  <advance width="714"/>
  <unicode hex="0035"/>
  <outline>
    <contour>
      <point x="637.728" y="611.289" type="curve" smooth="yes"/>
      <point x="653.352" y="611.289"/>
      <point x="666.893" y="595.138"/>
      <point x="666.893" y="574.238" type="curve" smooth="yes"/>
      <point x="666.893" y="553.337"/>
      <point x="653.264" y="537.187"/>
      <point x="637.539" y="537.187" type="curve" smooth="yes"/>
      <point x="637.539" y="537.187"/>
      <point x="471.393" y="537.215"/>
      <point x="354.478" y="537.215" type="curve" smooth="yes"/>
      <point x="237.564" y="537.215"/>
      <point x="134.184" y="536.362"/>
      <point x="134.184" y="468.531" type="curve" smooth="yes"/>
      <point x="134.184" y="466.451"/>
      <point x="100.232" y="388.888"/>
      <point x="217.129" y="388.888" type="curve" smooth="yes"/>
      <point x="217.129" y="388.888"/>
      <point x="330.861" y="389.679"/>
      <point x="500.149" y="389.679" type="curve" smooth="yes"/>
      <point x="600.254" y="389.679"/>
      <point x="668.493" y="350.211"/>
      <point x="668.493" y="195.75" type="curve" smooth="yes"/>
      <point x="668.493" y="26.4921"/>
      <point x="531.937" y="-0.291992"/>
      <point x="363.716" y="-0.291992" type="curve" smooth="yes"/>
      <point x="195.494" y="-0.291992"/>
      <point x="82.4785" y="0.429711"/>
      <point x="82.4785" y="0.429711" type="curve" smooth="yes"/>
      <point x="66.8543" y="0.429711"/>
      <point x="53.3132" y="16.5806"/>
      <point x="53.3132" y="37.4807" type="curve" smooth="yes"/>
      <point x="53.3132" y="58.3818"/>
      <point x="66.9421" y="74.5317"/>
      <point x="82.6677" y="74.5317" type="curve" smooth="yes"/>
      <point x="82.6677" y="74.5317"/>
      <point x="248.813" y="74.5039"/>
      <point x="365.729" y="74.5039" type="curve" smooth="yes"/>
      <point x="482.643" y="74.5039"/>
      <point x="586.022" y="65.4967"/>
      <point x="586.022" y="195.754" type="curve" smooth="yes"/>
      <point x="586.022" y="265.757"/>
      <point x="561.274" y="314.814"/>
      <point x="504.126" y="314.814" type="curve" smooth="yes"/>
      <point x="504.126" y="314.814"/>
      <point x="390.394" y="314.092"/>
      <point x="221.106" y="314.092" type="curve" smooth="yes"/>
      <point x="144.062" y="314.092"/>
      <point x="51.7136" y="301.901"/>
      <point x="51.7136" y="468.279" type="curve" smooth="yes"/>
      <point x="51.7136" y="631.52"/>
      <point x="188.269" y="612.011"/>
      <point x="356.491" y="612.011" type="curve" smooth="yes"/>
      <point x="524.712" y="612.011"/>
      <point x="637.728" y="611.289"/>
    </contour>
  </outline>
</glyph>
<glyph name="six" format="1">
  <advance width="716"/>
  <unicode hex="0036"/>
  <outline>
    <contour>
      <point x="406.109" y="0.628906" type="curve" smooth="yes"/>
      <point x="406.109" y="0.628906"/>
      <point x="488.347" y="0.015625"/>
      <point x="366.44" y="0" type="curve" smooth="yes"/>
      <point x="365.347" y="0" type="line"/>
      <point x="362.535" y="0" type="line"/>
      <point x="359.723" y="0" type="line"/>
      <point x="358.631" y="0" type="line" smooth="yes"/>
      <point x="236.724" y="0.015625"/>
      <point x="318.962" y="0.628906"/>
      <point x="318.962" y="0.628906" type="curve" smooth="yes"/>
      <point x="170.011" y="5.52051"/>
      <point x="54.9915" y="41.1689"/>
      <point x="54.9915" y="184.472" type="curve" smooth="yes"/>
      <point x="54.9915" y="233.625"/>
      <point x="63.3968" y="266.006"/>
      <point x="77.181" y="287.286" type="curve"/>
      <point x="61.7692" y="308.449"/>
      <point x="52.2424" y="341.726"/>
      <point x="52.2424" y="393.897" type="curve" smooth="yes"/>
      <point x="52.2424" y="550.029"/>
      <point x="188.811" y="578.369"/>
      <point x="357.048" y="578.369" type="curve" smooth="yes"/>
      <point x="525.285" y="578.369"/>
      <point x="638.311" y="577.647"/>
      <point x="638.311" y="577.647" type="curve" smooth="yes"/>
      <point x="653.937" y="577.647"/>
      <point x="667.479" y="561.497"/>
      <point x="667.479" y="540.598" type="curve" smooth="yes"/>
      <point x="667.479" y="519.697"/>
      <point x="653.853" y="503.548"/>
      <point x="638.13" y="503.548" type="curve" smooth="yes"/>
      <point x="638.13" y="503.548"/>
      <point x="472.013" y="503.573"/>
      <point x="355.118" y="503.573" type="curve" smooth="yes"/>
      <point x="238.224" y="503.573"/>
      <point x="134.863" y="479.795"/>
      <point x="134.863" y="393.897" type="curve" smooth="yes"/>
      <point x="134.863" y="392.146"/>
      <point x="115.775" y="335.721"/>
      <point x="195.711" y="327.274" type="curve" smooth="yes"/>
      <point x="204.063" y="327.129"/>
      <point x="212.372" y="326.943"/>
      <point x="220.51" y="326.943" type="curve" smooth="yes"/>
      <point x="273.176" y="326.943"/>
      <point x="320.464" y="326.873"/>
      <point x="360.621" y="326.777" type="curve" smooth="yes"/>
      <point x="400.777" y="326.873"/>
      <point x="448.065" y="326.943"/>
      <point x="500.731" y="326.943" type="curve" smooth="yes"/>
      <point x="577.755" y="326.943"/>
      <point x="670.079" y="343.604"/>
      <point x="670.079" y="184.472" type="curve" smooth="yes"/>
      <point x="670.079" y="41.1689"/>
      <point x="555.059" y="5.52051"/>
    </contour>
    <contour>
      <point x="398.801" y="251.743" type="curve" smooth="yes"/>
      <point x="351.343" y="251.577"/>
      <point x="289.816" y="251.426"/>
      <point x="218.394" y="251.426" type="curve" smooth="yes"/>
      <point x="212.449" y="251.426"/>
      <point x="206.413" y="251.328"/>
      <point x="200.337" y="251.22" type="curve" smooth="yes"/>
      <point x="117.967" y="243.225"/>
      <point x="137.462" y="186.234"/>
      <point x="137.462" y="184.472" type="curve" smooth="yes"/>
      <point x="137.462" y="99.46"/>
      <point x="239.604" y="75.293"/>
      <point x="356.034" y="74.8037" type="curve" smooth="yes"/>
      <point x="358.202" y="74.8037"/>
      <point x="360.369" y="74.7979"/>
      <point x="362.535" y="74.7979" type="curve" smooth="yes"/>
      <point x="364.702" y="74.7979"/>
      <point x="366.869" y="74.8037"/>
      <point x="369.036" y="74.8037" type="curve" smooth="yes"/>
      <point x="485.467" y="75.293"/>
      <point x="587.608" y="99.46"/>
      <point x="587.608" y="184.472" type="curve" smooth="yes"/>
      <point x="587.608" y="186.353"/>
      <point x="609.826" y="251.176"/>
      <point x="506.61" y="252.137" type="curve"/>
      <point x="506.625" y="251.672"/>
      <point x="506.646" y="251.426"/>
      <point x="506.676" y="251.426" type="curve" smooth="yes"/>
      <point x="506.676" y="251.426"/>
      <point x="456.836" y="251.577"/>
    </contour>
  </outline>
</glyph>
<glyph name="seven" format="1">
  <advance width="715"/>
  <unicode hex="0037"/>
  <outline>
    <contour>
      <point x="587.405" y="29.8815" type="curve"/>
      <point x="587.458" y="29.8815"/>
      <point x="587.806" y="182.92"/>
      <point x="587.806" y="309.807" type="curve" smooth="yes"/>
      <point x="587.806" y="436.694"/>
      <point x="483.523" y="539.976"/>
      <point x="365.588" y="539.976" type="curve" smooth="yes"/>
      <point x="247.652" y="539.976"/>
      <point x="80.0552" y="539.948"/>
      <point x="80.0552" y="539.948" type="curve" smooth="yes"/>
      <point x="64.1923" y="539.948"/>
      <point x="50.4444" y="556.098"/>
      <point x="50.4444" y="576.999" type="curve" smooth="yes"/>
      <point x="50.4444" y="597.899"/>
      <point x="64.0878" y="614.05"/>
      <point x="79.8303" y="614.05" type="curve" smooth="yes"/>
      <point x="79.8303" y="614.05"/>
      <point x="193.701" y="614.771"/>
      <point x="363.194" y="614.771" type="curve" smooth="yes"/>
      <point x="532.688" y="614.771"/>
      <point x="659.278" y="477.568"/>
      <point x="670.276" y="309.807" type="curve"/>
      <point x="661.526" y="29.8815" type="line" smooth="yes"/>
      <point x="661.477" y="13.8736"/>
      <point x="645.371" y="0"/>
      <point x="624.466" y="0" type="curve" smooth="yes"/>
      <point x="603.559" y="0"/>
      <point x="587.455" y="13.8736"/>
    </contour>
  </outline>
</glyph>
<glyph name="eight" format="1">
  <advance width="717"/>
  <unicode hex="0038"/>
  <outline>
    <contour>
      <point x="525.877" y="251.159" type="curve" smooth="yes"/>
      <point x="518.664" y="251.289"/>
      <point x="511.497" y="251.426"/>
      <point x="504.456" y="251.426" type="curve" smooth="yes"/>
      <point x="450.658" y="251.426"/>
      <point x="402.475" y="251.512"/>
      <point x="361.69" y="251.625" type="curve" smooth="yes"/>
      <point x="320.904" y="251.512"/>
      <point x="272.721" y="251.426"/>
      <point x="218.923" y="251.426" type="curve" smooth="yes"/>
      <point x="211.882" y="251.426"/>
      <point x="204.715" y="251.289"/>
      <point x="197.502" y="251.159" type="curve" smooth="yes"/>
      <point x="115.844" y="242.94"/>
      <point x="135.242" y="186.229"/>
      <point x="135.242" y="184.472" type="curve" smooth="yes"/>
      <point x="135.242" y="99.583"/>
      <point x="237.09" y="75.3623"/>
      <point x="353.312" y="74.8057" type="curve" smooth="yes"/>
      <point x="356.104" y="74.8057"/>
      <point x="358.897" y="74.7988"/>
      <point x="361.69" y="74.7988" type="curve" smooth="yes"/>
      <point x="364.482" y="74.7988"/>
      <point x="367.275" y="74.8057"/>
      <point x="370.067" y="74.8057" type="curve" smooth="yes"/>
      <point x="486.289" y="75.3623"/>
      <point x="588.137" y="99.583"/>
      <point x="588.137" y="184.472" type="curve" smooth="yes"/>
      <point x="588.137" y="186.229"/>
      <point x="607.535" y="242.94"/>
    </contour>
    <contour>
      <point x="317.032" y="577.749" type="curve" smooth="yes"/>
      <point x="317.032" y="577.749"/>
      <point x="239.934" y="578.347"/>
      <point x="355.888" y="578.368" type="curve" smooth="yes"/>
      <point x="356.432" y="578.368"/>
      <point x="356.978" y="578.369"/>
      <point x="357.523" y="578.369" type="curve" smooth="yes"/>
      <point x="361.69" y="578.369" type="line"/>
      <point x="365.856" y="578.369" type="line" smooth="yes"/>
      <point x="366.401" y="578.369"/>
      <point x="366.947" y="578.368"/>
      <point x="367.491" y="578.368" type="curve" smooth="yes"/>
      <point x="483.445" y="578.347"/>
      <point x="406.347" y="577.749"/>
      <point x="406.347" y="577.749" type="curve" smooth="yes"/>
      <point x="555.44" y="572.893"/>
      <point x="670.608" y="537.288"/>
      <point x="670.608" y="393.897" type="curve" smooth="yes"/>
      <point x="670.608" y="343.26"/>
      <point x="661.687" y="310.423"/>
      <point x="647.154" y="289.185" type="curve"/>
      <point x="661.687" y="267.946"/>
      <point x="670.608" y="235.109"/>
      <point x="670.608" y="184.472" type="curve" smooth="yes"/>
      <point x="670.608" y="41.0811"/>
      <point x="555.44" y="5.47656"/>
      <point x="406.347" y="0.620117" type="curve" smooth="yes"/>
      <point x="406.347" y="0.620117"/>
      <point x="483.445" y="0.0224609"/>
      <point x="367.491" y="0.000976562" type="curve" smooth="yes"/>
      <point x="366.947" y="0.000976562"/>
      <point x="366.401" y="0"/>
      <point x="365.856" y="0" type="curve" smooth="yes"/>
      <point x="361.69" y="0" type="line"/>
      <point x="357.523" y="0" type="line" smooth="yes"/>
      <point x="356.978" y="0"/>
      <point x="356.432" y="0.000976562"/>
      <point x="355.888" y="0.000976562" type="curve" smooth="yes"/>
      <point x="239.934" y="0.0224609"/>
      <point x="317.032" y="0.620117"/>
      <point x="317.032" y="0.620117" type="curve" smooth="yes"/>
      <point x="167.939" y="5.47656"/>
      <point x="52.7711" y="41.0811"/>
      <point x="52.7711" y="184.472" type="curve" smooth="yes"/>
      <point x="52.7711" y="235.109"/>
      <point x="61.692" y="267.946"/>
      <point x="76.2252" y="289.185" type="curve"/>
      <point x="61.692" y="310.423"/>
      <point x="52.7711" y="343.26"/>
      <point x="52.7711" y="393.897" type="curve" smooth="yes"/>
      <point x="52.7711" y="537.288"/>
      <point x="167.939" y="572.893"/>
    </contour>
    <contour>
      <point x="361.69" y="326.773" type="curve" smooth="yes"/>
      <point x="402.508" y="326.872"/>
      <point x="450.706" y="326.943"/>
      <point x="504.456" y="326.943" type="curve" smooth="yes"/>
      <point x="511.589" y="326.943"/>
      <point x="518.852" y="327.084"/>
      <point x="526.162" y="327.216" type="curve" smooth="yes"/>
      <point x="607.489" y="335.455"/>
      <point x="588.137" y="392.142"/>
      <point x="588.137" y="393.897" type="curve" smooth="yes"/>
      <point x="588.137" y="478.786"/>
      <point x="486.289" y="503.007"/>
      <point x="370.067" y="503.563" type="curve" smooth="yes"/>
      <point x="367.275" y="503.563"/>
      <point x="364.482" y="503.57"/>
      <point x="361.69" y="503.57" type="curve" smooth="yes"/>
      <point x="358.897" y="503.57"/>
      <point x="356.104" y="503.563"/>
      <point x="353.312" y="503.563" type="curve" smooth="yes"/>
      <point x="237.09" y="503.007"/>
      <point x="135.242" y="478.786"/>
      <point x="135.242" y="393.897" type="curve" smooth="yes"/>
      <point x="135.242" y="392.142"/>
      <point x="115.89" y="335.455"/>
      <point x="197.217" y="327.216" type="curve" smooth="yes"/>
      <point x="204.527" y="327.084"/>
      <point x="211.79" y="326.943"/>
      <point x="218.923" y="326.943" type="curve" smooth="yes"/>
      <point x="272.673" y="326.943"/>
      <point x="320.871" y="326.872"/>
    </contour>
  </outline>
</glyph>
<glyph name="nine" format="1">
  <advance width="719"/>
  <unicode hex="0039"/>
  <outline>
    <contour>
      <point x="317.707" y="611.707" type="curve" smooth="yes"/>
      <point x="317.707" y="611.707"/>
      <point x="235.463" y="612.353"/>
      <point x="357.379" y="612.369" type="curve" smooth="yes"/>
      <point x="358.471" y="612.369" type="line"/>
      <point x="361.283" y="612.369" type="line"/>
      <point x="364.096" y="612.369" type="line"/>
      <point x="365.188" y="612.369" type="line" smooth="yes"/>
      <point x="487.104" y="612.353"/>
      <point x="404.86" y="611.703"/>
      <point x="404.86" y="611.703" type="curve" smooth="yes"/>
      <point x="553.822" y="606.524"/>
      <point x="668.85" y="568.78"/>
      <point x="668.85" y="417.053" type="curve" smooth="yes"/>
      <point x="668.85" y="365.01"/>
      <point x="671.777" y="308.195"/>
      <point x="671.777" y="308.195" type="curve" smooth="yes"/>
      <point x="671.554" y="195.316"/>
      <point x="671.554" y="250.555"/>
      <point x="671.554" y="195.316" type="curve" smooth="yes"/>
      <point x="671.554" y="30.0058"/>
      <point x="534.985" y="0"/>
      <point x="366.748" y="0" type="curve" smooth="yes"/>
      <point x="198.511" y="0"/>
      <point x="85.4848" y="0.721703"/>
      <point x="85.4848" y="0.721703" type="curve" smooth="yes"/>
      <point x="69.8591" y="0.721703"/>
      <point x="56.3167" y="16.8726"/>
      <point x="56.3167" y="37.7727" type="curve" smooth="yes"/>
      <point x="56.3167" y="58.6738"/>
      <point x="69.9471" y="74.8237"/>
      <point x="85.6744" y="74.8237" type="curve" smooth="yes"/>
      <point x="85.6744" y="74.8237"/>
      <point x="251.838" y="74.7959"/>
      <point x="368.766" y="74.7959" type="curve" smooth="yes"/>
      <point x="485.693" y="74.7959"/>
      <point x="589.083" y="100.86"/>
      <point x="589.083" y="195.013" type="curve" smooth="yes"/>
      <point x="589.083" y="196.934"/>
      <point x="608.176" y="258.782"/>
      <point x="528.218" y="268.04" type="curve" smooth="yes"/>
      <point x="519.863" y="268.199"/>
      <point x="511.552" y="268.403"/>
      <point x="503.412" y="268.403" type="curve" smooth="yes"/>
      <point x="450.731" y="268.403"/>
      <point x="403.43" y="268.48"/>
      <point x="363.262" y="268.585" type="curve" smooth="yes"/>
      <point x="323.094" y="268.48"/>
      <point x="275.794" y="268.403"/>
      <point x="223.112" y="268.403" type="curve" smooth="yes"/>
      <point x="146.067" y="268.403"/>
      <point x="53.7171" y="250.875"/>
      <point x="53.7171" y="418.292" type="curve" smooth="yes"/>
      <point x="53.7171" y="569.057"/>
      <point x="168.745" y="606.561"/>
    </contour>
    <contour>
      <point x="324.995" y="343.619" type="curve" smooth="yes"/>
      <point x="372.453" y="343.801"/>
      <point x="433.981" y="343.967"/>
      <point x="505.402" y="343.967" type="curve" smooth="yes"/>
      <point x="511.347" y="343.967"/>
      <point x="517.383" y="344.074"/>
      <point x="523.46" y="344.193" type="curve" smooth="yes"/>
      <point x="605.829" y="352.956"/>
      <point x="586.334" y="415.424"/>
      <point x="586.334" y="417.356" type="curve" smooth="yes"/>
      <point x="586.334" y="510.539"/>
      <point x="484.193" y="537.029"/>
      <point x="367.762" y="537.565" type="curve" smooth="yes"/>
      <point x="365.594" y="537.565"/>
      <point x="363.428" y="537.571"/>
      <point x="361.261" y="537.571" type="curve" smooth="yes"/>
      <point x="359.094" y="537.571"/>
      <point x="356.928" y="537.565"/>
      <point x="354.76" y="537.565" type="curve" smooth="yes"/>
      <point x="238.329" y="537.029"/>
      <point x="136.188" y="510.544"/>
      <point x="136.188" y="417.38" type="curve" smooth="yes"/>
      <point x="136.188" y="415.318"/>
      <point x="113.97" y="344.278"/>
      <point x="217.186" y="343.225" type="curve"/>
      <point x="217.171" y="343.71"/>
      <point x="217.15" y="343.967"/>
      <point x="217.12" y="343.967" type="curve" smooth="yes"/>
      <point x="217.12" y="343.967"/>
      <point x="266.96" y="343.801"/>
    </contour>
  </outline>
</glyph>
<glyph name="colon" format="1">
  <advance width="200"/>
  <unicode hex="003A"/>
  <outline>
    <contour>
      <point x="55.625" y="262.25" type="curve" smooth="yes"/>
      <point x="55.625" y="287.25"/>
      <point x="74.375" y="308.5"/>
      <point x="99.375" y="308.5" type="curve" smooth="yes"/>
      <point x="124.375" y="308.5"/>
      <point x="144.375" y="287.25"/>
      <point x="144.375" y="262.25" type="curve" smooth="yes"/>
      <point x="144.375" y="237.25"/>
      <point x="124.375" y="216"/>
      <point x="99.375" y="216" type="curve" smooth="yes"/>
      <point x="74.375" y="216"/>
      <point x="55.625" y="237.25"/>
    </contour>
    <contour>
      <point x="55.625" y="45.75" type="curve" smooth="yes"/>
      <point x="55.625" y="70.75"/>
      <point x="74.375" y="92"/>
      <point x="99.375" y="92" type="curve" smooth="yes"/>
      <point x="124.375" y="92"/>
      <point x="144.375" y="70.75"/>
      <point x="144.375" y="45.75" type="curve" smooth="yes"/>
      <point x="144.375" y="20.75"/>
      <point x="124.375" y="-0.5"/>
      <point x="99.375" y="-0.5" type="curve" smooth="yes"/>
      <point x="74.375" y="-0.5"/>
      <point x="55.625" y="20.75"/>
    </contour>
  </outline>
</glyph>
<glyph name="semicolon" format="1">
  <advance width="206"/>
  <unicode hex="003B"/>
  <outline>
    <contour>
      <point x="56.3176" y="57.8929" type="curve" smooth="yes"/>
      <point x="56.3176" y="82.8929"/>
      <point x="75.0676" y="104.143"/>
      <point x="100.068" y="104.143" type="curve" smooth="yes"/>
      <point x="125.068" y="104.143"/>
      <point x="145.068" y="82.8929"/>
      <point x="145.068" y="57.8929" type="curve"/>
      <point x="150.069" y="34.8836"/>
      <point x="160.068" y="-2.63822"/>
      <point x="153.818" y="-20.9383" type="curve" smooth="yes"/>
      <point x="150.068" y="-33.6076"/>
      <point x="103.817" y="-45.3377"/>
      <point x="68.8176" y="-50.5" type="curve"/>
      <point x="96.9914" y="-34.032"/>
      <point x="121.68" y="-26.7137"/>
      <point x="121.361" y="17.2093" type="curve"/>
      <point x="115.034" y="13.6702"/>
      <point x="107.789" y="11.6429"/>
      <point x="100.068" y="11.6429" type="curve" smooth="yes"/>
      <point x="75.0676" y="11.6429"/>
      <point x="56.3176" y="32.8929"/>
    </contour>
    <contour>
      <point x="56.3176" y="262.25" type="curve" smooth="yes"/>
      <point x="56.3176" y="287.25"/>
      <point x="75.0676" y="308.5"/>
      <point x="100.068" y="308.5" type="curve" smooth="yes"/>
      <point x="125.068" y="308.5"/>
      <point x="145.068" y="287.25"/>
      <point x="145.068" y="262.25" type="curve" smooth="yes"/>
      <point x="145.068" y="237.25"/>
      <point x="125.068" y="216"/>
      <point x="100.068" y="216" type="curve" smooth="yes"/>
      <point x="75.0676" y="216"/>
      <point x="56.3176" y="237.25"/>
    </contour>
  </outline>
</glyph>
<glyph name="less" format="1">
  <advance width="363"/>
  <unicode hex="003C"/>
  <outline>
    <contour>
      <point x="46.5" y="360" type="curve" smooth="yes"/>
      <point x="46.5" y="382.754"/>
      <point x="59.5" y="405.544"/>
      <point x="74.5" y="411.555" type="curve" smooth="yes"/>
      <point x="74.6572" y="411.845"/>
      <point x="288.5" y="567.558"/>
      <point x="288.5" y="567.558" type="curve"/>
      <point x="303.293" y="572.004"/>
      <point x="316.5" y="562.786"/>
      <point x="316.5" y="545.72" type="curve" smooth="yes"/>
      <point x="316.5" y="528.655"/>
      <point x="303.5" y="511.562"/>
      <point x="288.5" y="507.055" type="curve"/>
      <point x="113.167" y="360" type="line"/>
      <point x="288.5" y="212.945" type="line"/>
      <point x="303.5" y="208.438"/>
      <point x="316.5" y="191.345"/>
      <point x="316.5" y="174.28" type="curve" smooth="yes"/>
      <point x="316.5" y="157.214"/>
      <point x="303.293" y="147.996"/>
      <point x="288.5" y="152.442" type="curve"/>
      <point x="288.5" y="152.442"/>
      <point x="74.6572" y="308.155"/>
      <point x="74.5" y="308.445" type="curve" smooth="yes"/>
      <point x="59.5" y="314.456"/>
      <point x="46.5" y="337.246"/>
    </contour>
  </outline>
</glyph>
<glyph name="equal" format="1">
  <advance width="537"/>
  <unicode hex="003D"/>
  <outline>
    <contour>
      <point x="443.619" y="134" type="curve" smooth="yes"/>
      <point x="98.8646" y="134" type="line" smooth="yes"/>
      <point x="74.5228" y="134"/>
      <point x="62.9086" y="149.333"/>
      <point x="62.9086" y="168" type="curve" smooth="yes"/>
      <point x="62.9086" y="186"/>
      <point x="73.4838" y="198.667"/>
      <point x="94.6344" y="206" type="curve"/>
      <point x="443.619" y="206" type="line"/>
      <point x="469.705" y="200.667"/>
      <point x="482.042" y="188"/>
      <point x="480.633" y="168" type="curve" smooth="yes"/>
      <point x="479.927" y="148"/>
      <point x="467.59" y="136.667"/>
    </contour>
    <contour>
      <point x="443.619" y="311.329" type="curve" smooth="yes"/>
      <point x="98.8646" y="311.329" type="line" smooth="yes"/>
      <point x="74.5228" y="311.329"/>
      <point x="62.9086" y="326.662"/>
      <point x="62.9086" y="345.329" type="curve" smooth="yes"/>
      <point x="62.9086" y="363.329"/>
      <point x="73.4838" y="375.996"/>
      <point x="94.6344" y="383.329" type="curve"/>
      <point x="210.963" y="383.329"/>
      <point x="327.569" y="383.329"/>
      <point x="443.619" y="383.329" type="curve" smooth="yes"/>
      <point x="469.983" y="382.589"/>
      <point x="482.396" y="366.996"/>
      <point x="481.69" y="346.329" type="curve" smooth="yes"/>
      <point x="480.985" y="326.329"/>
      <point x="468.295" y="314.662"/>
    </contour>
  </outline>
</glyph>
<glyph name="greater" format="1">
  <advance width="365"/>
  <unicode hex="003E"/>
  <outline>
    <contour>
      <point x="317.5" y="360" type="curve" smooth="yes"/>
      <point x="317.5" y="337.246"/>
      <point x="304.5" y="314.456"/>
      <point x="289.5" y="308.445" type="curve" smooth="yes"/>
      <point x="289.343" y="308.155"/>
      <point x="75.5" y="152.442"/>
      <point x="75.5" y="152.442" type="curve"/>
      <point x="60.707" y="147.996"/>
      <point x="47.5" y="157.214"/>
      <point x="47.5" y="174.28" type="curve" smooth="yes"/>
      <point x="47.5" y="191.345"/>
      <point x="60.5" y="208.438"/>
      <point x="75.5" y="212.945" type="curve"/>
      <point x="250.833" y="360" type="line"/>
      <point x="75.5" y="507.055" type="line"/>
      <point x="60.5" y="511.562"/>
      <point x="47.5" y="528.655"/>
      <point x="47.5" y="545.72" type="curve" smooth="yes"/>
      <point x="47.5" y="562.786"/>
      <point x="60.707" y="572.004"/>
      <point x="75.5" y="567.558" type="curve"/>
      <point x="75.5" y="567.558"/>
      <point x="289.343" y="411.845"/>
      <point x="289.5" y="411.555" type="curve" smooth="yes"/>
      <point x="304.5" y="405.544"/>
      <point x="317.5" y="382.754"/>
    </contour>
  </outline>
</glyph>
<glyph name="question" format="1">
  <advance width="621"/>
  <unicode hex="003F"/>
  <outline>
    <contour>
      <point x="296.609" y="318.843" type="curve"/>
      <point x="296.609" y="137.857" type="line" smooth="yes"/>
      <point x="296.609" y="123.782"/>
      <point x="282.72" y="111.582"/>
      <point x="264.746" y="111.582" type="curve" smooth="yes"/>
      <point x="246.773" y="111.582"/>
      <point x="232.883" y="123.715"/>
      <point x="232.884" y="137.305" type="curve" smooth="yes"/>
      <point x="232.884" y="137.305"/>
      <point x="232.884" y="348.461"/>
      <point x="232.884" y="348.605" type="curve" smooth="yes"/>
      <point x="232.884" y="367.805"/>
      <point x="244.526" y="382.251"/>
      <point x="257.96" y="382.643" type="curve" smooth="yes"/>
      <point x="496.287" y="382.643" type="line"/>
      <point x="468.578" y="476.25"/>
      <point x="405.098" y="550.267"/>
      <point x="315.505" y="550.267" type="curve" smooth="yes"/>
      <point x="215.061" y="550.267"/>
      <point x="72.3233" y="550.243"/>
      <point x="72.3233" y="550.243" type="curve" smooth="yes"/>
      <point x="58.8129" y="550.243"/>
      <point x="47.1045" y="564.132"/>
      <point x="47.1045" y="582.106" type="curve" smooth="yes"/>
      <point x="47.1045" y="600.081"/>
      <point x="58.8307" y="613.971"/>
      <point x="72.3617" y="613.971" type="curve" smooth="yes"/>
      <point x="72.3617" y="613.971"/>
      <point x="170.234" y="614.591"/>
      <point x="315.913" y="614.591" type="curve" smooth="yes"/>
      <point x="461.592" y="614.591"/>
      <point x="579.85" y="496.927"/>
      <point x="579.85" y="352.367" type="curve" smooth="yes"/>
      <point x="579.85" y="333.5"/>
      <point x="567.856" y="318.92"/>
      <point x="554.423" y="318.921" type="curve" smooth="yes"/>
      <point x="554.423" y="318.921"/>
      <point x="379.035" y="318.81"/>
    </contour>
    <contour>
      <point x="227.681" y="39.7744" type="curve" smooth="yes"/>
      <point x="227.681" y="61.2744"/>
      <point x="243.806" y="79.5498"/>
      <point x="265.306" y="79.5498" type="curve" smooth="yes"/>
      <point x="286.806" y="79.5498"/>
      <point x="304.006" y="61.2744"/>
      <point x="304.006" y="39.7744" type="curve" smooth="yes"/>
      <point x="304.006" y="18.2744"/>
      <point x="286.806" y="0"/>
      <point x="265.306" y="0" type="curve" smooth="yes"/>
      <point x="243.806" y="0"/>
      <point x="227.681" y="18.2744"/>
    </contour>
  </outline>
</glyph>
<glyph name="at" format="1">
  <advance width="706"/>
  <unicode hex="0040"/>
  <outline>
    <contour>
      <point x="651.017" y="130.505" type="curve" smooth="yes"/>
      <point x="666.011" y="150.815"/>
      <point x="579.75" y="3.57715"/>
      <point x="352.927" y="4.83691" type="curve" smooth="yes"/>
      <point x="184.224" y="5.77441"/>
      <point x="47.2718" y="135.177"/>
      <point x="47.2718" y="295.309" type="curve" smooth="yes"/>
      <point x="47.2718" y="455.44"/>
      <point x="184.257" y="585.78"/>
      <point x="353.008" y="585.78" type="curve" smooth="yes"/>
      <point x="521.758" y="585.78"/>
      <point x="635.129" y="585.059"/>
      <point x="635.129" y="585.059" type="curve" smooth="yes"/>
      <point x="650.803" y="585.059"/>
      <point x="664.386" y="568.908"/>
      <point x="664.386" y="548.009" type="curve" smooth="yes"/>
      <point x="664.386" y="527.108"/>
      <point x="650.638" y="510.959"/>
      <point x="634.775" y="510.959" type="curve"/>
      <point x="586.438" y="288.331" type="line" smooth="yes"/>
      <point x="565.887" y="193.681"/>
      <point x="499.924" y="112.771"/>
      <point x="393.635" y="112.771" type="curve" smooth="yes"/>
      <point x="287.347" y="112.771"/>
      <point x="200.832" y="191.431"/>
      <point x="200.832" y="288.331" type="curve" smooth="yes"/>
      <point x="200.832" y="385.231"/>
      <point x="287.194" y="463.891"/>
      <point x="393.295" y="463.891" type="curve" smooth="yes"/>
      <point x="451.339" y="463.891"/>
      <point x="503.476" y="440.349"/>
      <point x="538.798" y="403.158" type="curve"/>
      <point x="565.325" y="441.445"/>
      <point x="511.133" y="491.642"/>
      <point x="446.513" y="510.98" type="curve"/>
      <point x="432.348" y="510.98"/>
      <point x="418.108" y="510.982"/>
      <point x="404.079" y="510.982" type="curve"/>
      <point x="416.071" y="511.238"/>
      <point x="429.413" y="511.546"/>
      <point x="443.465" y="511.867" type="curve"/>
      <point x="411.524" y="520.899"/>
      <point x="377.328" y="522.302"/>
      <point x="349.242" y="510.984" type="curve"/>
      <point x="366.671" y="510.984"/>
      <point x="385.183" y="510.982"/>
      <point x="404.079" y="510.982" type="curve"/>
      <point x="369.911" y="510.257"/>
      <point x="346.698" y="509.959"/>
      <point x="349.242" y="510.984" type="curve"/>
      <point x="232.749" y="510.984"/>
      <point x="129.742" y="414.206"/>
      <point x="129.742" y="295.309" type="curve" smooth="yes"/>
      <point x="129.742" y="176.411"/>
      <point x="233.555" y="83.5029"/>
      <point x="350.808" y="79.6328" type="curve" smooth="yes"/>
      <point x="503.039" y="74.6084"/>
      <point x="590.502" y="176.868"/>
      <point x="594.566" y="181.608" type="curve" smooth="yes"/>
      <point x="604.535" y="193.235"/>
      <point x="625.383" y="188.702"/>
      <point x="643.106" y="176.332" type="curve" smooth="yes"/>
      <point x="671.366" y="156.608"/>
      <point x="641.91" y="118.255"/>
    </contour>
    <contour>
      <point x="248.072" y="288.331" type="curve" smooth="yes"/>
      <point x="248.072" y="221.419"/>
      <point x="312.712" y="162.254"/>
      <point x="392.125" y="162.254" type="curve" smooth="yes"/>
      <point x="471.538" y="162.254"/>
      <point x="536.178" y="221.419"/>
      <point x="536.178" y="288.331" type="curve" smooth="yes"/>
      <point x="536.178" y="355.243"/>
      <point x="471.538" y="414.408"/>
      <point x="392.125" y="414.408" type="curve" smooth="yes"/>
      <point x="312.712" y="414.408"/>
      <point x="248.072" y="355.243"/>
    </contour>
  </outline>
</glyph>
<glyph name="A" format="1">
  <advance width="746"/>
  <unicode hex="0041"/>
  <outline>
    <contour>
      <point x="694.729" y="10.4707" type="line" smooth="yes"/>
      <point x="694.729" y="-4.5293"/>
      <point x="620.63" y="-5.5293"/>
      <point x="620.63" y="9.4707" type="curve" smooth="yes"/>
      <point x="620.63" y="40.0547"/>
      <point x="620.636" y="70.6387"/>
      <point x="620.636" y="101.222" type="curve"/>
      <point x="561.767" y="39.2363"/>
      <point x="474.872" y="0"/>
      <point x="378.131" y="0" type="curve" smooth="yes"/>
      <point x="201.296" y="0"/>
      <point x="57.3607" y="131.1"/>
      <point x="57.3607" y="292.6" type="curve" smooth="yes"/>
      <point x="57.3607" y="454.1"/>
      <point x="200.481" y="585.199"/>
      <point x="376.314" y="585.199" type="curve" smooth="yes"/>
      <point x="552.148" y="585.199"/>
      <point x="695.268" y="454.1"/>
      <point x="695.268" y="292.6" type="curve" smooth="yes"/>
    </contour>
    <contour>
      <point x="136.093" y="292.6" type="curve" smooth="yes"/>
      <point x="136.093" y="181.079"/>
      <point x="243.826" y="82.4707"/>
      <point x="376.181" y="82.4707" type="curve" smooth="yes"/>
      <point x="508.537" y="82.4707"/>
      <point x="616.269" y="181.079"/>
      <point x="616.269" y="292.6" type="curve" smooth="yes"/>
      <point x="616.269" y="404.119"/>
      <point x="508.537" y="502.729"/>
      <point x="376.181" y="502.729" type="curve" smooth="yes"/>
      <point x="243.826" y="502.729"/>
      <point x="136.093" y="404.119"/>
    </contour>
  </outline>
</glyph>
<glyph name="B" format="1">
  <advance width="749"/>
  <unicode hex="0042"/>
  <outline>
    <contour>
      <point x="59.486" y="718.729" type="line" smooth="yes"/>
      <point x="59.486" y="733.729"/>
      <point x="133.586" y="734.729"/>
      <point x="133.586" y="719.729" type="curve" smooth="yes"/>
      <point x="133.586" y="689.145"/>
      <point x="133.579" y="514.561"/>
      <point x="133.579" y="483.978" type="curve"/>
      <point x="192.448" y="545.963"/>
      <point x="279.343" y="585.199"/>
      <point x="376.084" y="585.199" type="curve" smooth="yes"/>
      <point x="552.919" y="585.199"/>
      <point x="696.855" y="454.1"/>
      <point x="696.855" y="292.6" type="curve" smooth="yes"/>
      <point x="696.855" y="131.1"/>
      <point x="553.734" y="0"/>
      <point x="377.901" y="0" type="curve" smooth="yes"/>
      <point x="202.068" y="0"/>
      <point x="58.9469" y="131.1"/>
      <point x="58.9469" y="292.6" type="curve" smooth="yes"/>
    </contour>
    <contour>
      <point x="618.122" y="292.6" type="curve" smooth="yes"/>
      <point x="618.122" y="404.12"/>
      <point x="510.389" y="502.729"/>
      <point x="378.034" y="502.729" type="curve" smooth="yes"/>
      <point x="245.679" y="502.729"/>
      <point x="137.946" y="404.12"/>
      <point x="137.946" y="292.6" type="curve" smooth="yes"/>
      <point x="137.946" y="181.08"/>
      <point x="245.679" y="82.4707"/>
      <point x="378.034" y="82.4707" type="curve" smooth="yes"/>
      <point x="510.389" y="82.4707"/>
      <point x="618.122" y="181.08"/>
    </contour>
  </outline>
</glyph>
<glyph name="H" format="1">
  <advance width="686"/>
  <unicode hex="0048"/>
  <outline>
    <contour>
      <point x="98.107" y="0" type="line" smooth="yes"/>
      <point x="77.193" y="0"/>
      <point x="61.0313" y="13.8254"/>
      <point x="61.0313" y="29.7777" type="curve" smooth="yes"/>
      <point x="61.0313" y="29.7777"/>
      <point x="60.3091" y="30.3094"/>
      <point x="60.3091" y="202.063" type="curve" smooth="yes"/>
      <point x="60.3091" y="210.406"/>
      <point x="60.6345" y="218.672"/>
      <point x="61.2727" y="226.849" type="curve" smooth="yes"/>
      <point x="61.2307" y="398.664"/>
      <point x="61.2014" y="622.121"/>
      <point x="61.3293" y="622.222" type="curve" smooth="yes"/>
      <point x="61.3293" y="638.175"/>
      <point x="77.4787" y="652"/>
      <point x="98.3791" y="652" type="curve" smooth="yes"/>
      <point x="119.279" y="652"/>
      <point x="135.003" y="638.468"/>
      <point x="135.429" y="622.855" type="curve" smooth="yes"/>
      <point x="135.429" y="410.667" type="line"/>
      <point x="191.204" y="470.431"/>
      <point x="252.929" y="508.003"/>
      <point x="342.397" y="508.003" type="curve" smooth="yes"/>
      <point x="510.287" y="508.003"/>
      <point x="632.264" y="370.003"/>
      <point x="632.264" y="200.001" type="curve" smooth="yes"/>
      <point x="632.264" y="30.0002"/>
      <point x="631.542" y="29.4739"/>
      <point x="631.542" y="29.4739" type="curve" smooth="yes"/>
      <point x="631.542" y="13.6843"/>
      <point x="615.391" y="0"/>
      <point x="594.492" y="0" type="curve" smooth="yes"/>
      <point x="573.591" y="0"/>
      <point x="557.441" y="13.8254"/>
      <point x="557.441" y="29.7777" type="curve" smooth="yes"/>
      <point x="557.441" y="29.7777"/>
      <point x="557.468" y="83.462"/>
      <point x="557.468" y="202.063" type="curve" smooth="yes"/>
      <point x="557.468" y="320.663"/>
      <point x="469.927" y="425.533"/>
      <point x="344.19" y="425.533" type="curve" smooth="yes"/>
      <point x="222.313" y="425.533"/>
      <point x="141.448" y="327.003"/>
      <point x="135.429" y="212.945" type="curve"/>
      <point x="135.429" y="29.7777" type="line" smooth="yes"/>
      <point x="135.429" y="13.8254"/>
      <point x="119.267" y="0"/>
      <point x="98.3533" y="0" type="curve" smooth="yes"/>
    </contour>
  </outline>
</glyph>
<glyph name="I" format="1">
  <advance width="197"/>
  <unicode hex="0049"/>
  <outline>
    <contour>
      <point x="139.134" y="594.386" type="curve" smooth="yes"/>
      <point x="139.134" y="29.6136" type="line" smooth="yes"/>
      <point x="139.134" y="13.7492"/>
      <point x="122.983" y="0"/>
      <point x="102.084" y="0" type="curve" smooth="yes"/>
      <point x="81.1834" y="0"/>
      <point x="65.033" y="13.9681"/>
      <point x="65.0339" y="29.6136" type="curve" smooth="yes"/>
      <point x="65.0339" y="29.6136"/>
      <point x="65.0339" y="594.22"/>
      <point x="65.0339" y="594.386" type="curve" smooth="yes"/>
      <point x="65.0339" y="610.251"/>
      <point x="81.1834" y="624"/>
      <point x="102.084" y="624" type="curve" smooth="yes"/>
      <point x="122.983" y="624"/>
      <point x="138.708" y="610.251"/>
    </contour>
  </outline>
</glyph>
<glyph name="K" format="1">
  <advance width="594"/>
  <unicode hex="004B"/>
  <outline>
    <contour>
      <point x="546.251" y="29.5405" type="curve" smooth="yes"/>
      <point x="555.685" y="13.9336"/>
      <point x="542.757" y="0"/>
      <point x="515.128" y="0" type="curve" smooth="yes"/>
      <point x="487.501" y="0"/>
      <point x="457.862" y="13.7152"/>
      <point x="448.298" y="29.5405" type="curve" smooth="yes"/>
      <point x="302.9" y="279.025" type="line"/>
      <point x="154.623" y="29.5405" type="line" smooth="yes"/>
      <point x="145.218" y="13.7152"/>
      <point x="116.071" y="0"/>
      <point x="88.9029" y="0" type="curve" smooth="yes"/>
      <point x="71.7474" y="0"/>
      <point x="60.3554" y="5.55532"/>
      <point x="56.6231" y="13.5782" type="curve" smooth="yes"/>
      <point x="52.6531" y="18.2629"/>
      <point x="50.3721" y="23.7873"/>
      <point x="50.3721" y="29.5405" type="curve" smooth="yes"/>
      <point x="50.3721" y="29.5405"/>
      <point x="50.3721" y="622.294"/>
      <point x="50.3721" y="622.46" type="curve" smooth="yes"/>
      <point x="50.3721" y="638.285"/>
      <point x="66.5215" y="652"/>
      <point x="87.4219" y="652" type="curve" smooth="yes"/>
      <point x="108.321" y="652"/>
      <point x="124.046" y="638.285"/>
      <point x="124.472" y="622.46" type="curve" smooth="yes"/>
      <point x="124.472" y="145.949" type="line"/>
      <point x="161.902" y="207.922"/>
      <point x="209.543" y="286.791"/>
      <point x="255.251" y="362.445" type="curve"/>
      <point x="253.173" y="370.808"/>
      <point x="257.571" y="378.129"/>
      <point x="267.272" y="382.341" type="curve"/>
      <point x="344.131" y="509.549"/>
      <point x="412.341" y="622.387"/>
      <point x="412.505" y="622.46" type="curve" smooth="yes"/>
      <point x="422.069" y="638.285"/>
      <point x="451.706" y="652"/>
      <point x="479.335" y="652" type="curve" smooth="yes"/>
      <point x="506.962" y="652"/>
      <point x="519.46" y="638.285"/>
      <point x="510.459" y="622.46" type="curve" smooth="yes"/>
      <point x="352.436" y="360.991" type="line" smooth="yes"/>
      <point x="354.044" y="359.116"/>
      <point x="544.253" y="32.9693"/>
    </contour>
  </outline>
</glyph>
<glyph name="M" format="1">
  <advance width="1107"/>
  <unicode hex="004D"/>
  <outline>
    <contour>
      <point x="1051.35" y="29.6119" type="curve" smooth="yes"/>
      <point x="1051.35" y="13.7484"/>
      <point x="1035.2" y="0"/>
      <point x="1014.3" y="0" type="curve" smooth="yes"/>
      <point x="993.398" y="0"/>
      <point x="977.249" y="13.8699"/>
      <point x="977.249" y="29.8735" type="curve" smooth="yes"/>
      <point x="977.249" y="29.8735"/>
      <point x="977.276" y="198.957"/>
      <point x="977.276" y="317.94" type="curve" smooth="yes"/>
      <point x="977.276" y="436.921"/>
      <point x="911.943" y="542.129"/>
      <point x="786.206" y="542.129" type="curve" smooth="yes"/>
      <point x="660.467" y="542.129"/>
      <point x="595.136" y="436.921"/>
      <point x="595.136" y="317.94" type="curve" smooth="yes"/>
      <point x="595.136" y="198.957"/>
      <point x="595.163" y="29.8735"/>
      <point x="595.163" y="29.8735" type="curve" smooth="yes"/>
      <point x="595.163" y="13.8699"/>
      <point x="579.012" y="0"/>
      <point x="558.111" y="0" type="curve" smooth="yes"/>
      <point x="557.987" y="0"/>
      <point x="557.862" y="0.00104191"/>
      <point x="557.738" y="0.00104191" type="curve" smooth="yes"/>
      <point x="557.613" y="0.00104191"/>
      <point x="557.489" y="0"/>
      <point x="557.365" y="0" type="curve" smooth="yes"/>
      <point x="536.463" y="0"/>
      <point x="520.312" y="13.8699"/>
      <point x="520.312" y="29.8735" type="curve" smooth="yes"/>
      <point x="520.312" y="29.8735"/>
      <point x="520.339" y="198.957"/>
      <point x="520.339" y="317.94" type="curve" smooth="yes"/>
      <point x="520.339" y="436.921"/>
      <point x="455.008" y="542.129"/>
      <point x="329.269" y="542.129" type="curve" smooth="yes"/>
      <point x="203.533" y="542.129"/>
      <point x="137.142" y="436.921"/>
      <point x="137.142" y="317.94" type="curve" smooth="yes"/>
      <point x="137.142" y="198.957"/>
      <point x="137.169" y="29.8735"/>
      <point x="137.169" y="29.8735" type="curve" smooth="yes"/>
      <point x="137.169" y="13.8699"/>
      <point x="121.02" y="0"/>
      <point x="100.119" y="0" type="curve" smooth="yes"/>
      <point x="79.2182" y="0"/>
      <point x="63.0675" y="13.7484"/>
      <point x="63.0675" y="29.6119" type="curve" smooth="yes"/>
      <point x="63.0675" y="29.6119"/>
      <point x="62.3467" y="144.358"/>
      <point x="62.3467" y="315.155" type="curve" smooth="yes"/>
      <point x="62.3467" y="485.953"/>
      <point x="162.919" y="624.6"/>
      <point x="330.084" y="624.6" type="curve" smooth="yes"/>
      <point x="443.262" y="624.6"/>
      <point x="505.646" y="562.71"/>
      <point x="557.738" y="471.117" type="curve"/>
      <point x="609.828" y="562.71"/>
      <point x="672.21" y="624.6"/>
      <point x="785.385" y="624.6" type="curve" smooth="yes"/>
      <point x="952.546" y="624.6"/>
      <point x="1052.07" y="485.953"/>
      <point x="1052.07" y="315.155" type="curve" smooth="yes"/>
      <point x="1052.07" y="144.358"/>
      <point x="1051.35" y="29.6119"/>
    </contour>
  </outline>
</glyph>
<glyph name="N" format="1">
  <advance width="723"/>
  <unicode hex="004E"/>
  <outline>
    <contour>
      <point x="667.461" y="29.6119" type="curve" smooth="yes"/>
      <point x="667.461" y="13.7484"/>
      <point x="651.311" y="0"/>
      <point x="630.411" y="0" type="curve" smooth="yes"/>
      <point x="609.51" y="0"/>
      <point x="593.36" y="13.8699"/>
      <point x="593.36" y="29.8735" type="curve" smooth="yes"/>
      <point x="593.36" y="29.8735"/>
      <point x="593.387" y="198.957"/>
      <point x="593.387" y="317.94" type="curve" smooth="yes"/>
      <point x="593.387" y="436.921"/>
      <point x="491.041" y="542.129"/>
      <point x="365.304" y="542.129" type="curve" smooth="yes"/>
      <point x="239.566" y="542.129"/>
      <point x="137.22" y="436.921"/>
      <point x="137.22" y="317.94" type="curve" smooth="yes"/>
      <point x="137.22" y="198.957"/>
      <point x="137.247" y="29.8735"/>
      <point x="137.247" y="29.8735" type="curve" smooth="yes"/>
      <point x="137.247" y="13.8699"/>
      <point x="121.097" y="0"/>
      <point x="100.196" y="0" type="curve" smooth="yes"/>
      <point x="79.2966" y="0"/>
      <point x="63.1459" y="13.7484"/>
      <point x="63.1459" y="29.6119" type="curve" smooth="yes"/>
      <point x="63.1459" y="29.6119"/>
      <point x="62.4242" y="144.358"/>
      <point x="62.4242" y="315.155" type="curve" smooth="yes"/>
      <point x="62.4242" y="485.953"/>
      <point x="198.332" y="624.6"/>
      <point x="365.304" y="624.6" type="curve" smooth="yes"/>
      <point x="532.276" y="624.6"/>
      <point x="668.183" y="485.953"/>
      <point x="668.183" y="315.155" type="curve" smooth="yes"/>
      <point x="668.183" y="144.358"/>
      <point x="667.461" y="29.6119"/>
    </contour>
  </outline>
</glyph>
<glyph name="O" format="1">
  <advance width="742"/>
  <unicode hex="004F"/>
  <outline>
    <contour>
      <point x="133.978" y="309.6" type="curve" smooth="yes"/>
      <point x="133.978" y="189.057"/>
      <point x="241.711" y="82.4707"/>
      <point x="374.066" y="82.4707" type="curve" smooth="yes"/>
      <point x="506.422" y="82.4707"/>
      <point x="614.154" y="189.057"/>
      <point x="614.154" y="309.6" type="curve" smooth="yes"/>
      <point x="614.154" y="430.141"/>
      <point x="506.422" y="536.729"/>
      <point x="374.066" y="536.729" type="curve" smooth="yes"/>
      <point x="241.711" y="536.729"/>
      <point x="133.978" y="430.141"/>
    </contour>
    <contour>
      <point x="55.2456" y="309.6" type="curve" smooth="yes"/>
      <point x="55.2456" y="480.483"/>
      <point x="198.306" y="619.199"/>
      <point x="374.066" y="619.199" type="curve" smooth="yes"/>
      <point x="549.826" y="619.199"/>
      <point x="692.887" y="480.483"/>
      <point x="692.887" y="309.6" type="curve" smooth="yes"/>
      <point x="692.887" y="138.716"/>
      <point x="549.826" y="0"/>
      <point x="374.066" y="0" type="curve" smooth="yes"/>
      <point x="198.306" y="0"/>
      <point x="55.2456" y="138.716"/>
    </contour>
  </outline>
</glyph>
<glyph name="R" format="1">
  <advance width="715"/>
  <unicode hex="0052"/>
  <outline>
    <contour>
      <point x="133.797" y="29.8815" type="curve"/>
      <point x="133.748" y="13.8736"/>
      <point x="117.648" y="0"/>
      <point x="96.7476" y="0" type="curve" smooth="yes"/>
      <point x="75.8481" y="0"/>
      <point x="59.7476" y="13.8736"/>
      <point x="59.6978" y="29.8815" type="curve"/>
      <point x="59.7504" y="29.8815"/>
      <point x="50.4444" y="309.807"/>
      <point x="50.4444" y="309.807" type="curve"/>
      <point x="61.4511" y="477.568"/>
      <point x="188.14" y="614.771"/>
      <point x="357.765" y="614.771" type="curve" smooth="yes"/>
      <point x="527.39" y="614.771"/>
      <point x="641.349" y="614.05"/>
      <point x="641.349" y="614.05" type="curve" smooth="yes"/>
      <point x="657.104" y="614.05"/>
      <point x="670.758" y="597.899"/>
      <point x="670.758" y="576.999" type="curve" smooth="yes"/>
      <point x="670.758" y="556.098"/>
      <point x="657.011" y="539.948"/>
      <point x="641.148" y="539.948" type="curve" smooth="yes"/>
      <point x="641.148" y="539.948"/>
      <point x="473.558" y="539.976"/>
      <point x="355.627" y="539.976" type="curve" smooth="yes"/>
      <point x="237.697" y="539.976"/>
      <point x="133.418" y="436.694"/>
      <point x="133.418" y="309.807" type="curve" smooth="yes"/>
      <point x="133.418" y="182.92"/>
      <point x="133.748" y="29.8815"/>
    </contour>
  </outline>
</glyph>
<glyph name="S" format="1">
  <advance width="721"/>
  <unicode hex="0053"/>
  <outline>
    <contour>
      <point x="503.328" y="343.978" type="curve" smooth="yes"/>
      <point x="580.373" y="343.978"/>
      <point x="672.723" y="361.506"/>
      <point x="672.723" y="194.083" type="curve" smooth="yes"/>
      <point x="672.723" y="29.8164"/>
      <point x="536.154" y="0"/>
      <point x="367.917" y="0" type="curve" smooth="yes"/>
      <point x="199.68" y="0"/>
      <point x="86.6539" y="0.721703"/>
      <point x="86.6539" y="0.721703" type="curve" smooth="yes"/>
      <point x="71.0281" y="0.721703"/>
      <point x="57.4858" y="16.8726"/>
      <point x="57.4858" y="37.7727" type="curve" smooth="yes"/>
      <point x="57.4858" y="58.6738"/>
      <point x="71.1161" y="74.8237"/>
      <point x="86.8434" y="74.8237" type="curve" smooth="yes"/>
      <point x="86.8434" y="74.8237"/>
      <point x="253.007" y="74.7959"/>
      <point x="369.935" y="74.7959" type="curve" smooth="yes"/>
      <point x="486.862" y="74.7959"/>
      <point x="590.252" y="100.849"/>
      <point x="590.252" y="194.963" type="curve" smooth="yes"/>
      <point x="590.252" y="197.042"/>
      <point x="612.654" y="269.271"/>
      <point x="507.306" y="269.113" type="curve" smooth="yes"/>
      <point x="506.782" y="269.257"/>
      <point x="393.572" y="268.391"/>
      <point x="224.281" y="268.391" type="curve" smooth="yes"/>
      <point x="147.236" y="268.391"/>
      <point x="54.8862" y="250.863"/>
      <point x="54.8862" y="418.286" type="curve" smooth="yes"/>
      <point x="54.8862" y="582.553"/>
      <point x="191.455" y="612.369"/>
      <point x="359.692" y="612.369" type="curve" smooth="yes"/>
      <point x="527.929" y="612.369"/>
      <point x="640.955" y="611.647"/>
      <point x="640.955" y="611.647" type="curve" smooth="yes"/>
      <point x="656.581" y="611.647"/>
      <point x="670.123" y="595.497"/>
      <point x="670.123" y="574.596" type="curve" smooth="yes"/>
      <point x="670.123" y="553.695"/>
      <point x="656.493" y="537.545"/>
      <point x="640.766" y="537.545" type="curve" smooth="yes"/>
      <point x="640.766" y="537.545"/>
      <point x="474.602" y="537.573"/>
      <point x="357.674" y="537.573" type="curve" smooth="yes"/>
      <point x="240.748" y="537.573"/>
      <point x="137.357" y="511.511"/>
      <point x="137.357" y="417.363" type="curve" smooth="yes"/>
      <point x="137.357" y="415.283"/>
      <point x="114.956" y="342.893"/>
      <point x="220.303" y="343.187" type="curve" smooth="yes"/>
      <point x="220.303" y="343.187"/>
      <point x="334.037" y="343.978"/>
    </contour>
  </outline>
</glyph>
<glyph name="T" format="1">
  <advance width="608"/>
  <unicode hex="0054"/>
  <outline>
    <contour>
      <point x="70.6186" y="623.922" type="curve" smooth="yes"/>
      <point x="292.401" y="623.922" type="line" smooth="yes"/>
      <point x="296.791" y="625.259"/>
      <point x="301.596" y="626"/>
      <point x="306.667" y="626" type="curve" smooth="yes"/>
      <point x="311.739" y="626"/>
      <point x="316.519" y="625.259"/>
      <point x="320.878" y="623.922" type="curve" smooth="yes"/>
      <point x="542.716" y="623.922" type="line" smooth="yes"/>
      <point x="558.452" y="623.922"/>
      <point x="572.091" y="607.771"/>
      <point x="572.091" y="586.872" type="curve" smooth="yes"/>
      <point x="572.091" y="565.972"/>
      <point x="558.124" y="549.821"/>
      <point x="542.48" y="549.822" type="curve" smooth="yes"/>
      <point x="542.48" y="549.822"/>
      <point x="448.29" y="549.781"/>
      <point x="343.717" y="549.754" type="curve"/>
      <point x="343.717" y="29.8384" type="line" smooth="yes"/>
      <point x="343.717" y="13.8536"/>
      <point x="327.567" y="0"/>
      <point x="306.667" y="0" type="curve" smooth="yes"/>
      <point x="285.767" y="0"/>
      <point x="269.616" y="14.0742"/>
      <point x="269.617" y="29.8384" type="curve" smooth="yes"/>
      <point x="269.617" y="29.8384"/>
      <point x="269.47" y="404.706"/>
      <point x="269.538" y="549.735" type="curve"/>
      <point x="165.038" y="549.718"/>
      <point x="70.9288" y="549.728"/>
      <point x="70.8545" y="549.821" type="curve" smooth="yes"/>
      <point x="54.9915" y="549.821"/>
      <point x="41.2437" y="565.971"/>
      <point x="41.2437" y="586.871" type="curve" smooth="yes"/>
      <point x="41.2437" y="607.771"/>
      <point x="54.882" y="623.496"/>
    </contour>
  </outline>
</glyph>
<glyph name="V" format="1">
  <advance width="615"/>
  <unicode hex="0056"/>
  <outline>
    <contour>
      <point x="268.472" y="74.0909" type="curve" smooth="yes"/>
      <point x="265.883" y="74.0742" type="line" smooth="yes"/>
      <point x="266.746" y="74.0742"/>
      <point x="267.61" y="74.0909"/>
    </contour>
    <contour>
      <point x="52.0524" y="584.355" type="line" smooth="yes"/>
      <point x="46.6645" y="600.235"/>
      <point x="58.2344" y="613.997"/>
      <point x="80.3361" y="613.997" type="curve" smooth="yes"/>
      <point x="102.439" y="613.997"/>
      <point x="124.577" y="600.123"/>
      <point x="130.415" y="584.115" type="curve" smooth="yes"/>
      <point x="130.645" y="583.979"/>
      <point x="242.29" y="211.918"/>
      <point x="283.418" y="74.835" type="curve"/>
      <point x="393.95" y="84.4356"/>
      <point x="488.079" y="183.685"/>
      <point x="488.079" y="304.243" type="curve" smooth="yes"/>
      <point x="488.079" y="431.13"/>
      <point x="487.75" y="584.168"/>
      <point x="487.7" y="584.168" type="curve"/>
      <point x="487.75" y="600.176"/>
      <point x="503.849" y="614.05"/>
      <point x="524.75" y="614.05" type="curve" smooth="yes"/>
      <point x="545.649" y="614.05"/>
      <point x="561.75" y="600.176"/>
      <point x="561.799" y="584.168" type="curve"/>
      <point x="561.75" y="584.168"/>
      <point x="570.549" y="304.243"/>
      <point x="570.549" y="304.243" type="curve"/>
      <point x="559.638" y="136.482"/>
      <point x="434.043" y="-0.72168"/>
      <point x="265.883" y="-0.72168" type="curve" smooth="yes"/>
      <point x="95.0919" y="-0.72168"/>
      <point x="270.113" y="0"/>
      <point x="270.113" y="0" type="curve" smooth="yes"/>
      <point x="248.011" y="0"/>
      <point x="225.872" y="13.762"/>
      <point x="220.034" y="29.6412" type="curve" smooth="yes"/>
    </contour>
  </outline>
</glyph>
<glyph name="X" format="1">
  <advance width="661"/>
  <unicode hex="0058"/>
  <outline>
    <contour>
      <point x="620.665" y="594.386" type="curve" smooth="yes"/>
      <point x="382.143" y="312.053" type="line"/>
      <point x="501.411" y="170.842"/>
      <point x="620.665" y="29.6136"/>
      <point x="620.665" y="29.6136" type="curve" smooth="yes"/>
      <point x="630.44" y="13.9681"/>
      <point x="617.82" y="0"/>
      <point x="590.19" y="0" type="curve" smooth="yes"/>
      <point x="562.564" y="0"/>
      <point x="532.623" y="13.7492"/>
      <point x="522.711" y="29.6136" type="curve" smooth="yes"/>
      <point x="333.122" y="254.027" type="line"/>
      <point x="143.533" y="29.6136" type="line" smooth="yes"/>
      <point x="133.621" y="13.7492"/>
      <point x="103.679" y="0"/>
      <point x="76.0533" y="0" type="curve" smooth="yes"/>
      <point x="48.4233" y="0"/>
      <point x="35.8032" y="13.9681"/>
      <point x="45.5791" y="29.6136" type="curve" smooth="yes"/>
      <point x="45.5791" y="29.6136"/>
      <point x="164.832" y="170.842"/>
      <point x="284.101" y="312.053" type="curve"/>
      <point x="45.5791" y="594.386" type="line" smooth="yes"/>
      <point x="36.2287" y="610.251"/>
      <point x="48.4254" y="624"/>
      <point x="76.0533" y="624" type="curve" smooth="yes"/>
      <point x="103.681" y="624"/>
      <point x="133.621" y="610.251"/>
      <point x="143.533" y="594.386" type="curve" smooth="yes"/>
      <point x="143.695" y="594.315"/>
      <point x="232.312" y="489.438"/>
      <point x="333.122" y="370.091" type="curve"/>
      <point x="433.931" y="489.438"/>
      <point x="522.548" y="594.315"/>
      <point x="522.711" y="594.386" type="curve" smooth="yes"/>
      <point x="532.623" y="610.251"/>
      <point x="562.562" y="624"/>
      <point x="590.19" y="624" type="curve" smooth="yes"/>
      <point x="617.818" y="624"/>
      <point x="630.015" y="610.251"/>
    </contour>
  </outline>
</glyph>
<glyph name="Z" format="1">
  <advance width="723"/>
  <unicode hex="005A"/>
  <outline>
    <contour>
      <point x="225.339" y="343.978" type="curve" smooth="yes"/>
      <point x="394.63" y="343.978"/>
      <point x="508.364" y="343.256"/>
      <point x="508.364" y="343.256" type="curve" smooth="yes"/>
      <point x="613.711" y="342.962"/>
      <point x="591.31" y="415.327"/>
      <point x="591.31" y="417.406" type="curve" smooth="yes"/>
      <point x="591.31" y="511.52"/>
      <point x="487.919" y="537.573"/>
      <point x="370.992" y="537.573" type="curve" smooth="yes"/>
      <point x="254.065" y="537.573"/>
      <point x="87.901" y="537.545"/>
      <point x="87.901" y="537.545" type="curve" smooth="yes"/>
      <point x="72.1737" y="537.545"/>
      <point x="58.5433" y="553.695"/>
      <point x="58.5433" y="574.596" type="curve" smooth="yes"/>
      <point x="58.5433" y="595.497"/>
      <point x="72.0856" y="611.647"/>
      <point x="87.7114" y="611.647" type="curve" smooth="yes"/>
      <point x="87.7114" y="611.647"/>
      <point x="200.738" y="612.369"/>
      <point x="368.975" y="612.369" type="curve" smooth="yes"/>
      <point x="537.212" y="612.369"/>
      <point x="673.78" y="582.553"/>
      <point x="673.78" y="418.286" type="curve" smooth="yes"/>
      <point x="673.78" y="250.863"/>
      <point x="581.431" y="268.391"/>
      <point x="504.385" y="268.391" type="curve" smooth="yes"/>
      <point x="335.095" y="268.391"/>
      <point x="221.885" y="269.341"/>
      <point x="221.361" y="269.182" type="curve" smooth="yes"/>
      <point x="116.012" y="269.341"/>
      <point x="138.414" y="197.086"/>
      <point x="138.414" y="195.006" type="curve" smooth="yes"/>
      <point x="138.414" y="100.858"/>
      <point x="241.805" y="74.7959"/>
      <point x="358.732" y="74.7959" type="curve" smooth="yes"/>
      <point x="475.66" y="74.7959"/>
      <point x="641.823" y="74.8237"/>
      <point x="641.823" y="74.8237" type="curve" smooth="yes"/>
      <point x="657.551" y="74.8237"/>
      <point x="671.181" y="58.6738"/>
      <point x="671.181" y="37.7727" type="curve" smooth="yes"/>
      <point x="671.181" y="16.8726"/>
      <point x="657.639" y="0.721703"/>
      <point x="642.013" y="0.721703" type="curve" smooth="yes"/>
      <point x="642.013" y="0.721703"/>
      <point x="528.987" y="0"/>
      <point x="360.749" y="0" type="curve" smooth="yes"/>
      <point x="192.512" y="0"/>
      <point x="55.9437" y="29.8164"/>
      <point x="55.9437" y="194.083" type="curve" smooth="yes"/>
      <point x="55.9437" y="361.506"/>
      <point x="148.293" y="343.978"/>
    </contour>
  </outline>
</glyph>
<glyph name="bracketleft" format="1">
  <advance width="363"/>
  <unicode hex="005B"/>
  <outline>
    <contour>
      <point x="247.911" y="614.075" type="curve"/>
      <point x="263.774" y="614.075"/>
      <point x="277.522" y="597.925"/>
      <point x="277.522" y="577.025" type="curve" smooth="yes"/>
      <point x="277.522" y="556.125"/>
      <point x="263.774" y="539.976"/>
      <point x="247.911" y="539.976" type="curve" smooth="yes"/>
      <point x="129.976" y="539.976"/>
      <point x="127.216" y="436.687"/>
      <point x="127.216" y="309.792" type="curve" smooth="yes"/>
      <point x="127.216" y="182.897"/>
      <point x="129.976" y="79.6085"/>
      <point x="247.911" y="79.6085" type="curve" smooth="yes"/>
      <point x="263.774" y="79.6085"/>
      <point x="277.522" y="62.3727"/>
      <point x="277.522" y="40.0664" type="curve" smooth="yes"/>
      <point x="277.522" y="17.7612"/>
      <point x="263.774" y="0.524414"/>
      <point x="247.911" y="0.524414" type="curve"/>
      <point x="247.911" y="0.524414"/>
      <point x="247.911" y="-0.171875"/>
      <point x="247.911" y="-0.171875" type="curve" smooth="yes"/>
      <point x="81.0175" y="-0.171875"/>
      <point x="44.7457" y="137.796"/>
      <point x="44.7457" y="307.3" type="curve" smooth="yes"/>
      <point x="44.7457" y="476.803"/>
      <point x="81.0175" y="614.771"/>
      <point x="247.911" y="614.771" type="curve" smooth="yes"/>
      <point x="247.911" y="614.771"/>
      <point x="247.911" y="614.075"/>
    </contour>
  </outline>
</glyph>
<glyph name="backslash" format="1">
  <advance width="362"/>
  <unicode hex="005C"/>
  <outline>
    <contour>
      <point x="42.7959" y="622.46" type="line" smooth="yes"/>
      <point x="37.7011" y="638.285"/>
      <point x="48.6416" y="652"/>
      <point x="69.541" y="652" type="curve" smooth="yes"/>
      <point x="90.4414" y="652"/>
      <point x="111.375" y="638.285"/>
      <point x="116.895" y="622.46" type="curve" smooth="yes"/>
      <point x="117.162" y="622.294"/>
      <point x="323.739" y="29.5405"/>
      <point x="323.739" y="29.5405" type="curve" smooth="yes"/>
      <point x="329.185" y="13.9336"/>
      <point x="317.895" y="0"/>
      <point x="296.994" y="0" type="curve" smooth="yes"/>
      <point x="276.095" y="0"/>
      <point x="255.16" y="13.7152"/>
      <point x="249.64" y="29.5405" type="curve" smooth="yes"/>
    </contour>
  </outline>
</glyph>
<glyph name="bracketright" format="1">
  <advance width="366"/>
  <unicode hex="005D"/>
  <outline>
    <contour>
      <point x="122.239" y="614.075" type="curve"/>
      <point x="122.239" y="614.075"/>
      <point x="122.239" y="614.771"/>
      <point x="122.239" y="614.771" type="curve" smooth="yes"/>
      <point x="289.132" y="614.771"/>
      <point x="325.404" y="476.803"/>
      <point x="325.404" y="307.3" type="curve" smooth="yes"/>
      <point x="325.404" y="137.796"/>
      <point x="289.132" y="-0.171875"/>
      <point x="122.239" y="-0.171875" type="curve" smooth="yes"/>
      <point x="122.239" y="-0.171875"/>
      <point x="122.239" y="0.524414"/>
      <point x="122.239" y="0.524414" type="curve"/>
      <point x="106.376" y="0.524414"/>
      <point x="92.6278" y="16.6748"/>
      <point x="92.6278" y="37.5742" type="curve" smooth="yes"/>
      <point x="92.6278" y="58.4746"/>
      <point x="106.376" y="74.624"/>
      <point x="122.239" y="74.624" type="curve" smooth="yes"/>
      <point x="240.174" y="74.624"/>
      <point x="242.933" y="177.912"/>
      <point x="242.933" y="304.808" type="curve" smooth="yes"/>
      <point x="242.933" y="431.703"/>
      <point x="240.174" y="534.991"/>
      <point x="122.239" y="534.991" type="curve" smooth="yes"/>
      <point x="106.376" y="534.991"/>
      <point x="92.6278" y="552.227"/>
      <point x="92.6278" y="574.533" type="curve" smooth="yes"/>
      <point x="92.6278" y="596.838"/>
      <point x="106.376" y="614.075"/>
    </contour>
  </outline>
</glyph>
<glyph name="asciicircum" format="1">
  <advance width="498"/>
  <unicode hex="005E"/>
  <outline>
    <contour>
      <point x="251.692" y="764" type="curve" smooth="yes"/>
      <point x="273.795" y="764"/>
      <point x="295.933" y="751"/>
      <point x="301.771" y="736" type="curve" smooth="yes"/>
      <point x="302.053" y="735.843"/>
      <point x="453.308" y="522"/>
      <point x="453.308" y="522" type="curve"/>
      <point x="457.627" y="507.207"/>
      <point x="448.673" y="494"/>
      <point x="432.096" y="494" type="curve" smooth="yes"/>
      <point x="415.519" y="494"/>
      <point x="398.916" y="507"/>
      <point x="394.537" y="522" type="curve"/>
      <point x="251.692" y="697.333" type="line"/>
      <point x="108.847" y="522" type="line"/>
      <point x="104.468" y="507"/>
      <point x="87.8648" y="494"/>
      <point x="71.2882" y="494" type="curve" smooth="yes"/>
      <point x="54.7106" y="494"/>
      <point x="45.7567" y="507.207"/>
      <point x="50.0757" y="522" type="curve"/>
      <point x="50.0757" y="522"/>
      <point x="201.331" y="735.843"/>
      <point x="201.613" y="736" type="curve" smooth="yes"/>
      <point x="207.451" y="751"/>
      <point x="229.589" y="764"/>
    </contour>
  </outline>
</glyph>
<glyph name="underscore" format="1">
  <advance width="906"/>
  <unicode hex="005F"/>
  <outline>
    <contour>
      <point x="102.052" y="-58.9043" type="curve" smooth="yes"/>
      <point x="812.712" y="-58.9043" type="line" smooth="yes"/>
      <point x="828.574" y="-58.9043"/>
      <point x="842.322" y="-75.0547"/>
      <point x="842.322" y="-95.9541" type="curve" smooth="yes"/>
      <point x="842.322" y="-116.854"/>
      <point x="828.356" y="-133.005"/>
      <point x="812.712" y="-133.004" type="curve" smooth="yes"/>
      <point x="812.712" y="-133.004"/>
      <point x="102.218" y="-133.212"/>
      <point x="102.052" y="-133.004" type="curve" smooth="yes"/>
      <point x="86.1887" y="-133.004"/>
      <point x="72.4408" y="-116.854"/>
      <point x="72.4408" y="-95.9541" type="curve" smooth="yes"/>
      <point x="72.4408" y="-75.0547"/>
      <point x="86.1887" y="-59.3301"/>
    </contour>
  </outline>
</glyph>
<glyph name="grave" format="1">
  <advance width="235"/>
  <unicode hex="0060"/>
  <outline>
    <contour>
      <point x="54.408" y="653.75" type="curve" smooth="yes"/>
      <point x="42.0791" y="678.75"/>
      <point x="51.4286" y="700"/>
      <point x="77.8668" y="700" type="curve" smooth="yes"/>
      <point x="104.305" y="700"/>
      <point x="135.935" y="678.75"/>
      <point x="148.264" y="653.75" type="curve"/>
      <point x="163.628" y="633.318"/>
      <point x="190.632" y="600"/>
      <point x="192.036" y="583.75" type="curve" smooth="yes"/>
      <point x="193.618" y="572.5"/>
      <point x="149.843" y="562.084"/>
      <point x="115.091" y="557.5" type="curve"/>
      <point x="138.221" y="571.015"/>
      <point x="161.368" y="577.021"/>
      <point x="143.255" y="613.066" type="curve"/>
      <point x="138.31" y="609.527"/>
      <point x="131.648" y="607.5"/>
      <point x="123.482" y="607.5" type="curve" smooth="yes"/>
      <point x="97.0438" y="607.5"/>
      <point x="66.7359" y="628.75"/>
    </contour>
  </outline>
</glyph>
<glyph name="c" format="1">
  <advance width="713"/>
  <unicode hex="0063"/>
  <outline>
    <contour>
      <point x="639.833" y="614.05" type="curve" smooth="yes"/>
      <point x="655.575" y="614.05"/>
      <point x="669.219" y="597.899"/>
      <point x="669.219" y="576.999" type="curve" smooth="yes"/>
      <point x="669.219" y="556.098"/>
      <point x="655.471" y="539.948"/>
      <point x="639.608" y="539.948" type="curve" smooth="yes"/>
      <point x="639.608" y="539.948"/>
      <point x="472.011" y="539.976"/>
      <point x="354.075" y="539.976" type="curve" smooth="yes"/>
      <point x="236.14" y="539.976"/>
      <point x="131.858" y="435.569"/>
      <point x="131.858" y="307.3" type="curve" smooth="yes"/>
      <point x="131.858" y="179.031"/>
      <point x="236.14" y="74.624"/>
      <point x="354.075" y="74.624" type="curve" smooth="yes"/>
      <point x="472.011" y="74.624"/>
      <point x="639.608" y="74.6514"/>
      <point x="639.608" y="74.6514" type="curve" smooth="yes"/>
      <point x="655.471" y="74.6514"/>
      <point x="669.219" y="58.5016"/>
      <point x="669.219" y="37.6006" type="curve" smooth="yes"/>
      <point x="669.219" y="16.7006"/>
      <point x="655.575" y="0.549824"/>
      <point x="639.833" y="0.549824" type="curve" smooth="yes"/>
      <point x="639.833" y="0.549824"/>
      <point x="525.963" y="-0.171875"/>
      <point x="356.469" y="-0.171875" type="curve" smooth="yes"/>
      <point x="186.975" y="-0.171875"/>
      <point x="49.3868" y="137.796"/>
      <point x="49.3868" y="307.3" type="curve" smooth="yes"/>
      <point x="49.3868" y="476.803"/>
      <point x="186.975" y="614.771"/>
      <point x="356.469" y="614.771" type="curve" smooth="yes"/>
      <point x="525.963" y="614.771"/>
      <point x="639.833" y="614.05"/>
    </contour>
  </outline>
</glyph>
<glyph name="d" format="1">
  <advance width="747"/>
  <unicode hex="0064"/>
  <outline>
    <contour>
      <point x="695.258" y="718.729" type="curve" smooth="yes"/>
      <point x="695.768" y="292.6" type="line" smooth="yes"/>
      <point x="695.768" y="131.1"/>
      <point x="552.654" y="0"/>
      <point x="376.829" y="0" type="curve" smooth="yes"/>
      <point x="201.004" y="0"/>
      <point x="57.8894" y="131.1"/>
      <point x="57.8894" y="292.6" type="curve" smooth="yes"/>
      <point x="57.8894" y="454.1"/>
      <point x="201.825" y="585.199"/>
      <point x="378.66" y="585.199" type="curve" smooth="yes"/>
      <point x="475.401" y="585.199"/>
      <point x="562.296" y="545.963"/>
      <point x="621.166" y="483.978" type="curve"/>
      <point x="621.166" y="514.561"/>
      <point x="621.158" y="689.145"/>
      <point x="621.158" y="719.729" type="curve" smooth="yes"/>
      <point x="621.158" y="734.729"/>
      <point x="695.258" y="733.729"/>
    </contour>
    <contour>
      <point x="136.622" y="292.6" type="curve" smooth="yes"/>
      <point x="136.622" y="181.08"/>
      <point x="244.355" y="82.4707"/>
      <point x="376.71" y="82.4707" type="curve" smooth="yes"/>
      <point x="509.065" y="82.4707"/>
      <point x="616.798" y="181.08"/>
      <point x="616.798" y="292.6" type="curve" smooth="yes"/>
      <point x="616.798" y="404.12"/>
      <point x="509.065" y="502.729"/>
      <point x="376.71" y="502.729" type="curve" smooth="yes"/>
      <point x="244.355" y="502.729"/>
      <point x="136.622" y="404.12"/>
    </contour>
  </outline>
</glyph>
<glyph name="e" format="1">
  <advance width="710"/>
  <unicode hex="0065"/>
  <outline>
    <contour>
      <point x="663.507" y="165.967" type="curve" smooth="yes"/>
      <point x="597.116" y="100.61"/>
      <point x="614.097" y="101.286"/>
      <point x="520.468" y="43.0595" type="curve" smooth="yes"/>
      <point x="382.733" y="-42.5951"/>
      <point x="171.117" y="-3.85495"/>
      <point x="85.7219" y="144.113" type="curve" smooth="yes"/>
      <point x="0.326347" y="292.082"/>
      <point x="56.6605" y="484.772"/>
      <point x="211.035" y="573.935" type="curve" smooth="yes"/>
      <point x="337.193" y="646.803"/>
      <point x="490.467" y="628.371"/>
      <point x="588.89" y="538.441" type="curve" smooth="yes"/>
      <point x="610.903" y="518.328"/>
      <point x="666.09" y="480.414"/>
      <point x="641.767" y="458.197" type="curve" smooth="yes"/>
      <point x="575.676" y="394.524"/>
      <point x="506.215" y="334.635"/>
      <point x="434.491" y="277.288" type="curve" smooth="yes"/>
      <point x="421.99" y="267.517"/>
      <point x="398.126" y="263.637"/>
      <point x="384.518" y="281.061" type="curve" smooth="yes"/>
      <point x="370.911" y="298.485"/>
      <point x="371.873" y="319.643"/>
      <point x="383.729" y="330.185" type="curve" smooth="yes"/>
      <point x="412.283" y="355.576"/>
      <point x="556.802" y="464.73"/>
      <point x="531.784" y="476.57" type="curve" smooth="yes"/>
      <point x="446.836" y="516.768"/>
      <point x="347.61" y="552.072"/>
      <point x="254.643" y="498.375" type="curve" smooth="yes"/>
      <point x="140.019" y="432.171"/>
      <point x="98.8615" y="287.937"/>
      <point x="157.829" y="185.761" type="curve" smooth="yes"/>
      <point x="216.797" y="83.584"/>
      <point x="373.971" y="30.0397"/>
      <point x="476.86" y="113.331" type="curve" smooth="yes"/>
      <point x="606.457" y="218.241" type="line" smooth="yes"/>
      <point x="618.789" y="228.225"/>
      <point x="637.471" y="231.133"/>
      <point x="654.457" y="216.985" type="curve" smooth="yes"/>
      <point x="671.444" y="202.837"/>
      <point x="674.812" y="177.096"/>
    </contour>
  </outline>
</glyph>
<glyph name="f" format="1">
  <advance width="714"/>
  <unicode hex="0066"/>
  <outline>
    <contour>
      <point x="589.011" y="300.965" type="curve" smooth="yes"/>
      <point x="192.438" y="300.965" type="line" smooth="yes"/>
      <point x="176.575" y="300.965"/>
      <point x="162.827" y="317.115"/>
      <point x="162.827" y="338.014" type="curve" smooth="yes"/>
      <point x="162.827" y="358.915"/>
      <point x="176.794" y="375.065"/>
      <point x="192.438" y="375.064" type="curve" smooth="yes"/>
      <point x="192.438" y="375.064"/>
      <point x="588.845" y="375.064"/>
      <point x="589.011" y="375.064" type="curve" smooth="yes"/>
      <point x="604.874" y="375.064"/>
      <point x="618.622" y="358.915"/>
      <point x="618.622" y="338.014" type="curve" smooth="yes"/>
      <point x="618.622" y="317.115"/>
      <point x="604.874" y="301.39"/>
    </contour>
    <contour>
      <point x="133.269" y="30.2043" type="curve"/>
      <point x="133.219" y="14.0234"/>
      <point x="117.119" y="0"/>
      <point x="96.2188" y="0" type="curve" smooth="yes"/>
      <point x="75.3194" y="0"/>
      <point x="59.2188" y="14.0234"/>
      <point x="59.169" y="30.2043" type="curve"/>
      <point x="59.2217" y="30.2043"/>
      <point x="49.9156" y="312.264"/>
      <point x="49.9156" y="312.264" type="curve"/>
      <point x="60.9223" y="478.673"/>
      <point x="187.611" y="614.771"/>
      <point x="357.236" y="614.771" type="curve" smooth="yes"/>
      <point x="526.862" y="614.771"/>
      <point x="640.821" y="614.05"/>
      <point x="640.821" y="614.05" type="curve" smooth="yes"/>
      <point x="656.575" y="614.05"/>
      <point x="670.229" y="597.899"/>
      <point x="670.229" y="576.999" type="curve" smooth="yes"/>
      <point x="670.229" y="556.098"/>
      <point x="656.482" y="539.948"/>
      <point x="640.62" y="539.948" type="curve" smooth="yes"/>
      <point x="640.62" y="539.948"/>
      <point x="473.03" y="539.976"/>
      <point x="355.098" y="539.976" type="curve" smooth="yes"/>
      <point x="237.168" y="539.976"/>
      <point x="132.89" y="436.759"/>
      <point x="132.89" y="309.953" type="curve" smooth="yes"/>
      <point x="132.89" y="183.146"/>
      <point x="133.219" y="30.2043"/>
    </contour>
  </outline>
</glyph>
<glyph name="g" format="1">
  <advance width="725"/>
  <unicode hex="0067"/>
  <outline>
    <contour>
      <point x="644.761" y="614.05" type="curve" smooth="yes"/>
      <point x="660.395" y="614.05"/>
      <point x="673.945" y="597.899"/>
      <point x="673.945" y="576.999" type="curve" smooth="yes"/>
      <point x="673.945" y="556.098"/>
      <point x="660.306" y="539.948"/>
      <point x="644.569" y="539.948" type="curve" smooth="yes"/>
      <point x="644.569" y="539.948"/>
      <point x="478.302" y="539.976"/>
      <point x="361.301" y="539.976" type="curve" smooth="yes"/>
      <point x="244.302" y="539.976"/>
      <point x="140.847" y="435.569"/>
      <point x="140.847" y="307.3" type="curve" smooth="yes"/>
      <point x="140.847" y="179.031"/>
      <point x="245.129" y="74.624"/>
      <point x="363.064" y="74.624" type="curve" smooth="yes"/>
      <point x="441.27" y="74.624"/>
      <point x="541.313" y="74.6356"/>
      <point x="599.841" y="74.644" type="curve"/>
      <point x="599.819" y="327.042" type="line" smooth="yes"/>
      <point x="599.818" y="343.224"/>
      <point x="615.968" y="357.249"/>
      <point x="636.869" y="357.249" type="curve" smooth="yes"/>
      <point x="657.769" y="357.249"/>
      <point x="673.919" y="343.452"/>
      <point x="673.919" y="327.532" type="curve" smooth="yes"/>
      <point x="673.945" y="39.9156" type="line" smooth="yes"/>
      <point x="673.933" y="17.7192"/>
      <point x="660.388" y="0.594055"/>
      <point x="644.761" y="0.594055" type="curve" smooth="yes"/>
      <point x="644.761" y="0.594055"/>
      <point x="531.674" y="-0.171875"/>
      <point x="363.346" y="-0.171875" type="curve" smooth="yes"/>
      <point x="195.018" y="-0.171875"/>
      <point x="58.3758" y="137.796"/>
      <point x="58.3758" y="307.3" type="curve" smooth="yes"/>
      <point x="58.3758" y="476.803"/>
      <point x="195.018" y="614.771"/>
      <point x="363.346" y="614.771" type="curve" smooth="yes"/>
      <point x="531.674" y="614.771"/>
      <point x="644.761" y="614.05"/>
    </contour>
  </outline>
</glyph>
<glyph name="j" format="1">
  <advance width="720"/>
  <unicode hex="006A"/>
  <outline>
    <contour>
      <point x="590.049" y="584.89" type="curve"/>
      <point x="590.099" y="600.898"/>
      <point x="606.198" y="614.771"/>
      <point x="627.099" y="614.771" type="curve" smooth="yes"/>
      <point x="647.998" y="614.771"/>
      <point x="664.099" y="600.898"/>
      <point x="664.148" y="584.89" type="curve"/>
      <point x="664.099" y="584.89"/>
      <point x="672.898" y="304.964"/>
      <point x="672.898" y="304.964" type="curve"/>
      <point x="661.901" y="137.204"/>
      <point x="535.315" y="0"/>
      <point x="365.827" y="0" type="curve" smooth="yes"/>
      <point x="196.339" y="0"/>
      <point x="82.4731" y="0.721696"/>
      <point x="82.4731" y="0.721696" type="curve" smooth="yes"/>
      <point x="66.7312" y="0.721696"/>
      <point x="53.0882" y="16.8725"/>
      <point x="53.0882" y="37.7723" type="curve" smooth="yes"/>
      <point x="53.0882" y="58.6732"/>
      <point x="66.8355" y="74.823"/>
      <point x="82.6978" y="74.823" type="curve" smooth="yes"/>
      <point x="82.6978" y="74.823"/>
      <point x="250.288" y="74.7959"/>
      <point x="368.219" y="74.7959" type="curve" smooth="yes"/>
      <point x="486.15" y="74.7959"/>
      <point x="590.428" y="178.077"/>
      <point x="590.428" y="304.964" type="curve" smooth="yes"/>
      <point x="590.428" y="431.851"/>
      <point x="590.099" y="584.89"/>
    </contour>
  </outline>
</glyph>
<glyph name="l" format="1">
  <advance width="710"/>
  <unicode hex="006C"/>
  <outline>
    <contour>
      <point x="130.672" y="584.89" type="curve"/>
      <point x="130.619" y="584.89"/>
      <point x="130.271" y="431.851"/>
      <point x="130.271" y="304.964" type="curve" smooth="yes"/>
      <point x="130.271" y="178.077"/>
      <point x="234.554" y="74.7959"/>
      <point x="352.489" y="74.7959" type="curve" smooth="yes"/>
      <point x="470.425" y="74.7959"/>
      <point x="638.022" y="74.823"/>
      <point x="638.022" y="74.823" type="curve" smooth="yes"/>
      <point x="653.885" y="74.823"/>
      <point x="667.633" y="58.6732"/>
      <point x="667.633" y="37.7723" type="curve" smooth="yes"/>
      <point x="667.633" y="16.8725"/>
      <point x="653.989" y="0.721696"/>
      <point x="638.247" y="0.721696" type="curve" smooth="yes"/>
      <point x="638.247" y="0.721696"/>
      <point x="524.376" y="0"/>
      <point x="354.883" y="0" type="curve" smooth="yes"/>
      <point x="185.389" y="0"/>
      <point x="58.7987" y="137.204"/>
      <point x="47.8005" y="304.964" type="curve"/>
      <point x="56.5505" y="584.89" type="line" smooth="yes"/>
      <point x="56.6004" y="600.898"/>
      <point x="72.7057" y="614.771"/>
      <point x="93.6112" y="614.771" type="curve" smooth="yes"/>
      <point x="114.518" y="614.771"/>
      <point x="130.622" y="600.898"/>
    </contour>
  </outline>
</glyph>
<glyph name="p" format="1">
  <advance width="752"/>
  <unicode hex="0070"/>
  <outline>
    <contour>
      <point x="61.0723" y="-94.7868" type="curve" smooth="yes"/>
      <point x="60.5332" y="312.304" type="line" smooth="yes"/>
      <point x="60.5332" y="481.695"/>
      <point x="203.654" y="619.199"/>
      <point x="379.487" y="619.199" type="curve" smooth="yes"/>
      <point x="555.32" y="619.199"/>
      <point x="698.441" y="482.032"/>
      <point x="698.441" y="313.057" type="curve" smooth="yes"/>
      <point x="698.441" y="144.082"/>
      <point x="554.505" y="6.91484"/>
      <point x="377.671" y="6.91484" type="curve" smooth="yes"/>
      <point x="280.93" y="6.91484"/>
      <point x="194.034" y="46.6196"/>
      <point x="135.165" y="109.345" type="curve"/>
      <point x="135.165" y="77.613"/>
      <point x="135.172" y="-64.1026"/>
      <point x="135.172" y="-95.8357" type="curve" smooth="yes"/>
      <point x="135.172" y="-111.569"/>
      <point x="61.0723" y="-110.52"/>
    </contour>
    <contour>
      <point x="619.708" y="313.057" type="curve" smooth="yes"/>
      <point x="619.708" y="431.764"/>
      <point x="511.976" y="536.729"/>
      <point x="379.62" y="536.729" type="curve" smooth="yes"/>
      <point x="247.265" y="536.729"/>
      <point x="139.532" y="431.764"/>
      <point x="139.532" y="313.057" type="curve" smooth="yes"/>
      <point x="139.532" y="194.349"/>
      <point x="247.265" y="89.3855"/>
      <point x="379.62" y="89.3855" type="curve" smooth="yes"/>
      <point x="511.976" y="89.3855"/>
      <point x="619.708" y="194.349"/>
    </contour>
  </outline>
</glyph>
<glyph name="q" format="1">
  <advance width="746"/>
  <unicode hex="0071"/>
  <outline>
    <contour>
      <point x="694.729" y="-94.7868" type="line" smooth="yes"/>
      <point x="694.729" y="-110.52"/>
      <point x="620.63" y="-111.569"/>
      <point x="620.63" y="-95.8357" type="curve" smooth="yes"/>
      <point x="620.63" y="-64.1026"/>
      <point x="620.636" y="77.613"/>
      <point x="620.636" y="109.345" type="curve"/>
      <point x="561.767" y="46.6196"/>
      <point x="474.872" y="6.91484"/>
      <point x="378.131" y="6.91484" type="curve" smooth="yes"/>
      <point x="201.296" y="6.91484"/>
      <point x="57.3607" y="144.082"/>
      <point x="57.3607" y="313.057" type="curve" smooth="yes"/>
      <point x="57.3607" y="482.032"/>
      <point x="200.481" y="619.199"/>
      <point x="376.314" y="619.199" type="curve" smooth="yes"/>
      <point x="552.148" y="619.199"/>
      <point x="695.268" y="481.695"/>
      <point x="695.268" y="312.304" type="curve" smooth="yes"/>
    </contour>
    <contour>
      <point x="136.093" y="313.057" type="curve" smooth="yes"/>
      <point x="136.093" y="194.349"/>
      <point x="243.826" y="89.3855"/>
      <point x="376.181" y="89.3855" type="curve" smooth="yes"/>
      <point x="508.537" y="89.3855"/>
      <point x="616.269" y="194.349"/>
      <point x="616.269" y="313.057" type="curve" smooth="yes"/>
      <point x="616.269" y="431.764"/>
      <point x="508.537" y="536.729"/>
      <point x="376.181" y="536.729" type="curve" smooth="yes"/>
      <point x="243.826" y="536.729"/>
      <point x="136.093" y="431.764"/>
    </contour>
  </outline>
</glyph>
<glyph name="u" format="1">
  <advance width="720"/>
  <unicode hex="0075"/>
  <outline>
    <contour>
      <point x="665.875" y="594.988" type="curve" smooth="yes"/>
      <point x="665.875" y="594.988"/>
      <point x="666.597" y="480.241"/>
      <point x="666.597" y="309.444" type="curve" smooth="yes"/>
      <point x="666.597" y="138.647"/>
      <point x="530.689" y="0"/>
      <point x="363.717" y="0" type="curve" smooth="yes"/>
      <point x="196.745" y="0"/>
      <point x="60.8379" y="138.647"/>
      <point x="60.8379" y="309.444" type="curve" smooth="yes"/>
      <point x="60.8379" y="480.241"/>
      <point x="61.5596" y="594.988"/>
      <point x="61.5596" y="594.988" type="curve" smooth="yes"/>
      <point x="61.5596" y="610.851"/>
      <point x="77.7103" y="624.6"/>
      <point x="98.6101" y="624.6" type="curve" smooth="yes"/>
      <point x="119.511" y="624.6"/>
      <point x="135.661" y="610.73"/>
      <point x="135.661" y="594.726" type="curve" smooth="yes"/>
      <point x="135.661" y="594.726"/>
      <point x="135.634" y="425.642"/>
      <point x="135.634" y="306.66" type="curve" smooth="yes"/>
      <point x="135.634" y="187.678"/>
      <point x="237.98" y="82.4707"/>
      <point x="363.717" y="82.4707" type="curve" smooth="yes"/>
      <point x="489.455" y="82.4707"/>
      <point x="591.801" y="187.678"/>
      <point x="591.801" y="306.66" type="curve" smooth="yes"/>
      <point x="591.801" y="425.642"/>
      <point x="591.774" y="594.726"/>
      <point x="591.774" y="594.726" type="curve" smooth="yes"/>
      <point x="591.774" y="610.73"/>
      <point x="607.924" y="624.6"/>
      <point x="628.825" y="624.6" type="curve" smooth="yes"/>
      <point x="649.724" y="624.6"/>
      <point x="665.875" y="610.851"/>
    </contour>
  </outline>
</glyph>
<glyph name="w" format="1">
  <advance width="1105"/>
  <unicode hex="0077"/>
  <outline>
    <contour>
      <point x="62.0099" y="594.988" type="curve" smooth="yes"/>
      <point x="62.0099" y="610.851"/>
      <point x="78.1606" y="624.6"/>
      <point x="99.0614" y="624.6" type="curve" smooth="yes"/>
      <point x="119.962" y="624.6"/>
      <point x="136.111" y="610.73"/>
      <point x="136.111" y="594.726" type="curve" smooth="yes"/>
      <point x="136.111" y="594.726"/>
      <point x="136.084" y="425.642"/>
      <point x="136.084" y="306.66" type="curve" smooth="yes"/>
      <point x="136.084" y="187.678"/>
      <point x="201.418" y="82.4707"/>
      <point x="327.154" y="82.4707" type="curve" smooth="yes"/>
      <point x="452.893" y="82.4707"/>
      <point x="518.224" y="187.678"/>
      <point x="518.224" y="306.66" type="curve" smooth="yes"/>
      <point x="518.224" y="425.642"/>
      <point x="518.197" y="594.726"/>
      <point x="518.197" y="594.726" type="curve" smooth="yes"/>
      <point x="518.197" y="610.73"/>
      <point x="534.348" y="624.6"/>
      <point x="555.249" y="624.6" type="curve" smooth="yes"/>
      <point x="555.374" y="624.6"/>
      <point x="555.499" y="624.599"/>
      <point x="555.623" y="624.599" type="curve" smooth="yes"/>
      <point x="555.748" y="624.599"/>
      <point x="555.872" y="624.6"/>
      <point x="555.996" y="624.6" type="curve" smooth="yes"/>
      <point x="576.897" y="624.6"/>
      <point x="593.048" y="610.73"/>
      <point x="593.048" y="594.726" type="curve" smooth="yes"/>
      <point x="593.048" y="594.726"/>
      <point x="593.021" y="425.642"/>
      <point x="593.021" y="306.66" type="curve" smooth="yes"/>
      <point x="593.021" y="187.678"/>
      <point x="658.352" y="82.4707"/>
      <point x="784.091" y="82.4707" type="curve" smooth="yes"/>
      <point x="909.828" y="82.4707"/>
      <point x="976.218" y="187.678"/>
      <point x="976.218" y="306.66" type="curve" smooth="yes"/>
      <point x="976.218" y="425.642"/>
      <point x="976.192" y="594.726"/>
      <point x="976.192" y="594.726" type="curve" smooth="yes"/>
      <point x="976.192" y="610.73"/>
      <point x="992.34" y="624.6"/>
      <point x="1013.24" y="624.6" type="curve" smooth="yes"/>
      <point x="1034.14" y="624.6"/>
      <point x="1050.29" y="610.851"/>
      <point x="1050.29" y="594.988" type="curve" smooth="yes"/>
      <point x="1050.29" y="594.988"/>
      <point x="1051.01" y="480.241"/>
      <point x="1051.01" y="309.444" type="curve" smooth="yes"/>
      <point x="1051.01" y="138.647"/>
      <point x="950.442" y="0"/>
      <point x="783.276" y="0" type="curve" smooth="yes"/>
      <point x="670.098" y="0"/>
      <point x="607.714" y="61.8896"/>
      <point x="555.623" y="153.483" type="curve"/>
      <point x="503.533" y="61.8896"/>
      <point x="441.15" y="0"/>
      <point x="327.975" y="0" type="curve" smooth="yes"/>
      <point x="160.814" y="0"/>
      <point x="61.2892" y="138.647"/>
      <point x="61.2892" y="309.444" type="curve" smooth="yes"/>
      <point x="61.2892" y="480.241"/>
      <point x="62.0099" y="594.988"/>
    </contour>
  </outline>
</glyph>
<glyph name="y" format="1">
  <advance width="683"/>
  <unicode hex="0079"/>
  <outline>
    <contour>
      <point x="593.382" y="624.6" type="line" smooth="yes"/>
      <point x="614.282" y="624.6"/>
      <point x="630.432" y="610.713"/>
      <point x="630.432" y="594.69" type="curve" smooth="yes"/>
      <point x="630.432" y="594.69"/>
      <point x="631.154" y="594.156"/>
      <point x="631.154" y="421.645" type="curve" smooth="yes"/>
      <point x="631.154" y="413.265"/>
      <point x="630.832" y="404.963"/>
      <point x="630.199" y="396.749" type="curve" smooth="yes"/>
      <point x="630.243" y="222.174"/>
      <point x="630.274" y="192.421"/>
      <point x="630.14" y="192.317" type="curve" smooth="yes"/>
      <point x="639.066" y="8.74274"/>
      <point x="501.964" y="-65.3223"/>
      <point x="332.773" y="-65.3223" type="curve" smooth="yes"/>
      <point x="163.583" y="-65.3223"/>
      <point x="203.916" y="-64.6006"/>
      <point x="203.916" y="-64.6006" type="curve" smooth="yes"/>
      <point x="188.202" y="-64.6006"/>
      <point x="174.583" y="-48.4498"/>
      <point x="174.583" y="-27.5499" type="curve" smooth="yes"/>
      <point x="174.583" y="-6.64903"/>
      <point x="188.33" y="9.50075"/>
      <point x="204.192" y="9.50075" type="curve" smooth="yes"/>
      <point x="204.192" y="9.50075"/>
      <point x="216.331" y="9.47363"/>
      <point x="334.261" y="9.47363" type="curve" smooth="yes"/>
      <point x="452.189" y="9.47363"/>
      <point x="556.465" y="49.7776"/>
      <point x="556.465" y="173.353" type="curve" smooth="yes"/>
      <point x="556.465" y="178.958"/>
      <point x="556.463" y="184.134"/>
      <point x="556.463" y="188.909" type="curve" smooth="yes"/>
      <point x="556.247" y="190.099"/>
      <point x="556.12" y="191.308"/>
      <point x="556.087" y="192.529" type="curve" smooth="yes"/>
      <point x="556.087" y="212.12" type="line"/>
      <point x="500.312" y="152.315"/>
      <point x="438.586" y="114.718"/>
      <point x="349.118" y="114.718" type="curve" smooth="yes"/>
      <point x="181.228" y="114.718"/>
      <point x="59.2516" y="253.229"/>
      <point x="59.2516" y="423.859" type="curve" smooth="yes"/>
      <point x="59.2516" y="594.488"/>
      <point x="59.9733" y="595.017"/>
      <point x="59.9733" y="595.017" type="curve" smooth="yes"/>
      <point x="59.9733" y="610.865"/>
      <point x="76.124" y="624.6"/>
      <point x="97.0238" y="624.6" type="curve" smooth="yes"/>
      <point x="117.925" y="624.6"/>
      <point x="134.074" y="610.713"/>
      <point x="134.074" y="594.69" type="curve" smooth="yes"/>
      <point x="134.074" y="594.69"/>
      <point x="134.048" y="540.769"/>
      <point x="134.048" y="421.645" type="curve" smooth="yes"/>
      <point x="134.048" y="302.521"/>
      <point x="221.588" y="197.189"/>
      <point x="347.326" y="197.189" type="curve" smooth="yes"/>
      <point x="469.203" y="197.189"/>
      <point x="550.068" y="296.153"/>
      <point x="556.087" y="410.715" type="curve"/>
      <point x="556.087" y="594.69" type="line" smooth="yes"/>
      <point x="556.087" y="610.713"/>
      <point x="572.237" y="624.6"/>
      <point x="593.136" y="624.6" type="curve" smooth="yes"/>
    </contour>
    <contour>
      <point x="556.445" y="216.18" type="curve" smooth="yes"/>
      <point x="556.377" y="271.55"/>
      <point x="556.157" y="218.999"/>
      <point x="556.096" y="212.718" type="curve"/>
      <point x="556.128" y="213.886"/>
      <point x="556.247" y="215.041"/>
    </contour>
  </outline>
</glyph>
<glyph name="braceleft" format="1">
  <advance width="355"/>
  <unicode hex="007B"/>
  <outline>
    <contour>
      <point x="243.595" y="614.075" type="curve"/>
      <point x="259.458" y="614.075"/>
      <point x="273.205" y="597.925"/>
      <point x="273.205" y="577.025" type="curve" smooth="yes"/>
      <point x="273.205" y="556.125"/>
      <point x="259.458" y="539.976"/>
      <point x="243.595" y="539.976" type="curve" smooth="yes"/>
      <point x="125.659" y="539.976"/>
      <point x="173.661" y="332.095"/>
      <point x="173.661" y="309.792" type="curve" smooth="yes"/>
      <point x="173.661" y="283.22"/>
      <point x="125.659" y="79.6085"/>
      <point x="243.595" y="79.6085" type="curve" smooth="yes"/>
      <point x="259.458" y="79.6085"/>
      <point x="273.205" y="62.3727"/>
      <point x="273.205" y="40.0664" type="curve" smooth="yes"/>
      <point x="273.205" y="17.7612"/>
      <point x="259.458" y="0.524414"/>
      <point x="243.595" y="0.524414" type="curve"/>
      <point x="243.595" y="0.524414"/>
      <point x="243.595" y="-0.171875"/>
      <point x="243.595" y="-0.171875" type="curve" smooth="yes"/>
      <point x="99.4183" y="-0.171875"/>
      <point x="90.7702" y="104.372"/>
      <point x="90.9484" y="243.258" type="curve"/>
      <point x="73.5109" y="263.287"/>
      <point x="54.9201" y="284.648"/>
      <point x="54.8791" y="284.722" type="curve" smooth="yes"/>
      <point x="47.3791" y="287.645"/>
      <point x="40.8791" y="298.724"/>
      <point x="40.8791" y="309.786" type="curve" smooth="yes"/>
      <point x="40.8791" y="320.848"/>
      <point x="47.5034" y="331.927"/>
      <point x="55.1469" y="334.849" type="curve" smooth="yes"/>
      <point x="55.1887" y="334.924"/>
      <point x="74.1331" y="356.282"/>
      <point x="91.9041" y="376.311" type="curve"/>
      <point x="91.9538" y="512.714"/>
      <point x="102.037" y="614.771"/>
      <point x="243.595" y="614.771" type="curve" smooth="yes"/>
      <point x="243.595" y="614.771"/>
      <point x="243.595" y="614.075"/>
    </contour>
  </outline>
</glyph>
<glyph name="bar" format="1">
  <advance width="199"/>
  <unicode hex="007C"/>
  <outline>
    <contour>
      <point x="140.191" y="650" type="curve" smooth="yes"/>
      <point x="140.191" y="-22" type="line" smooth="yes"/>
      <point x="140.191" y="-37"/>
      <point x="124.041" y="-50"/>
      <point x="103.141" y="-50" type="curve" smooth="yes"/>
      <point x="82.2409" y="-50"/>
      <point x="66.0905" y="-36.793"/>
      <point x="66.0915" y="-22" type="curve" smooth="yes"/>
      <point x="66.0915" y="-22"/>
      <point x="66.0915" y="649.843"/>
      <point x="66.0915" y="650" type="curve" smooth="yes"/>
      <point x="66.0915" y="665"/>
      <point x="82.2409" y="678"/>
      <point x="103.141" y="678" type="curve" smooth="yes"/>
      <point x="124.041" y="678"/>
      <point x="139.765" y="665"/>
    </contour>
  </outline>
</glyph>
<glyph name="braceright" format="1">
  <advance width="356"/>
  <unicode hex="007D"/>
  <outline>
    <contour>
      <point x="117.316" y="614.075" type="curve"/>
      <point x="117.316" y="614.075"/>
      <point x="117.316" y="614.771"/>
      <point x="117.316" y="614.771" type="curve" smooth="yes"/>
      <point x="258.875" y="614.771"/>
      <point x="268.957" y="512.714"/>
      <point x="269.007" y="376.311" type="curve"/>
      <point x="286.777" y="356.282"/>
      <point x="305.721" y="334.924"/>
      <point x="305.763" y="334.849" type="curve" smooth="yes"/>
      <point x="313.407" y="331.927"/>
      <point x="320.031" y="320.848"/>
      <point x="320.031" y="309.786" type="curve" smooth="yes"/>
      <point x="320.031" y="298.724"/>
      <point x="313.531" y="287.645"/>
      <point x="306.031" y="284.722" type="curve" smooth="yes"/>
      <point x="305.99" y="284.648"/>
      <point x="287.399" y="263.287"/>
      <point x="269.963" y="243.258" type="curve"/>
      <point x="270.141" y="104.372"/>
      <point x="261.493" y="-0.171875"/>
      <point x="117.316" y="-0.171875" type="curve" smooth="yes"/>
      <point x="117.316" y="-0.171875"/>
      <point x="117.316" y="0.524414"/>
      <point x="117.316" y="0.524414" type="curve"/>
      <point x="101.453" y="0.524414"/>
      <point x="87.7047" y="16.6748"/>
      <point x="87.7047" y="37.5742" type="curve" smooth="yes"/>
      <point x="87.7047" y="58.4746"/>
      <point x="101.453" y="74.624"/>
      <point x="117.316" y="74.624" type="curve" smooth="yes"/>
      <point x="235.251" y="74.624"/>
      <point x="187.249" y="278.235"/>
      <point x="187.249" y="304.808" type="curve" smooth="yes"/>
      <point x="187.249" y="327.111"/>
      <point x="235.251" y="534.991"/>
      <point x="117.316" y="534.991" type="curve" smooth="yes"/>
      <point x="101.453" y="534.991"/>
      <point x="87.7047" y="552.227"/>
      <point x="87.7047" y="574.533" type="curve" smooth="yes"/>
      <point x="87.7047" y="596.838"/>
      <point x="101.453" y="614.075"/>
    </contour>
  </outline>
</glyph>
<glyph name="asciitilde" format="1">
  <advance width="489"/>
  <unicode hex="007E"/>
  <outline>
    <contour>
      <point x="263.54" y="393.298" type="curve"/>
      <point x="278.879" y="378.951"/>
      <point x="271.639" y="379.179"/>
      <point x="277.307" y="354.985" type="curve" smooth="yes"/>
      <point x="282.608" y="332.354"/>
      <point x="299.009" y="313.97"/>
      <point x="336.592" y="325.488" type="curve" smooth="yes"/>
      <point x="376.041" y="337.578"/>
      <point x="379.548" y="365.692"/>
      <point x="375.039" y="384.937" type="curve" smooth="yes"/>
      <point x="372.104" y="397.467"/>
      <point x="383.821" y="440.152"/>
      <point x="389.36" y="417.968" type="curve"/>
      <point x="389.66" y="418.165"/>
      <point x="395.053" y="421.126"/>
      <point x="397.964" y="422.017" type="curve" smooth="yes"/>
      <point x="412" y="426.32"/>
      <point x="429.497" y="420.725"/>
      <point x="433.672" y="402.907" type="curve" smooth="yes"/>
      <point x="456.034" y="307.448"/>
      <point x="391.109" y="265.514"/>
      <point x="353.352" y="253.941" type="curve" smooth="yes"/>
      <point x="322.416" y="244.461"/>
      <point x="263.864" y="238.217"/>
      <point x="232.442" y="298.702" type="curve"/>
      <point x="217.102" y="313.049"/>
      <point x="224.342" y="312.821"/>
      <point x="218.674" y="337.015" type="curve" smooth="yes"/>
      <point x="213.373" y="359.646"/>
      <point x="196.972" y="378.03"/>
      <point x="159.39" y="366.512" type="curve" smooth="yes"/>
      <point x="119.941" y="354.422"/>
      <point x="116.434" y="326.308"/>
      <point x="120.943" y="307.063" type="curve" smooth="yes"/>
      <point x="123.878" y="294.533"/>
      <point x="112.16" y="251.848"/>
      <point x="106.621" y="274.032" type="curve"/>
      <point x="106.321" y="273.835"/>
      <point x="100.928" y="270.874"/>
      <point x="98.0177" y="269.983" type="curve" smooth="yes"/>
      <point x="83.9817" y="265.68"/>
      <point x="66.4839" y="271.275"/>
      <point x="62.3096" y="289.093" type="curve" smooth="yes"/>
      <point x="39.9476" y="384.552"/>
      <point x="104.872" y="426.486"/>
      <point x="142.629" y="438.059" type="curve" smooth="yes"/>
      <point x="173.565" y="447.539"/>
      <point x="232.117" y="453.783"/>
    </contour>
  </outline>
</glyph>
<glyph name="exclamdown" format="1">
  <advance width="199"/>
  <unicode hex="00A1"/>
  <outline>
    <contour>
      <point x="143.875" y="567.75" type="curve" smooth="yes"/>
      <point x="143.875" y="542.75"/>
      <point x="125.125" y="521.5"/>
      <point x="100.125" y="521.5" type="curve" smooth="yes"/>
      <point x="75.125" y="521.5"/>
      <point x="55.125" y="542.75"/>
      <point x="55.125" y="567.75" type="curve" smooth="yes"/>
      <point x="55.125" y="592.75"/>
      <point x="75.125" y="614"/>
      <point x="100.125" y="614" type="curve" smooth="yes"/>
      <point x="125.125" y="614"/>
      <point x="143.875" y="592.75"/>
    </contour>
    <contour>
      <point x="62.4043" y="29.7018" type="curve" smooth="yes"/>
      <point x="62.4043" y="453.306" type="line" smooth="yes"/>
      <point x="62.4043" y="469.352"/>
      <point x="78.5547" y="483.258"/>
      <point x="99.4541" y="483.258" type="curve" smooth="yes"/>
      <point x="120.354" y="483.258"/>
      <point x="136.505" y="469.13"/>
      <point x="136.504" y="453.306" type="curve" smooth="yes"/>
      <point x="136.504" y="453.306"/>
      <point x="136.712" y="29.87"/>
      <point x="136.504" y="29.7018" type="curve" smooth="yes"/>
      <point x="136.504" y="13.6562"/>
      <point x="120.354" y="-0.25"/>
      <point x="99.4541" y="-0.25" type="curve" smooth="yes"/>
      <point x="78.5547" y="-0.25"/>
      <point x="62.8301" y="13.6562"/>
    </contour>
  </outline>
</glyph>
<glyph name="cent" format="1">
  <advance width="549"/>
  <unicode hex="00A2"/>
  <outline>
    <contour>
      <point x="254.881" y="483.685" type="curve"/>
      <point x="175.29" y="472.723"/>
      <point x="108.939" y="399.821"/>
      <point x="108.939" y="311.843" type="curve" smooth="yes"/>
      <point x="108.939" y="223.845"/>
      <point x="175.322" y="150.928"/>
      <point x="254.938" y="139.994" type="curve"/>
      <point x="254.907" y="239.726"/>
      <point x="254.881" y="383.857"/>
    </contour>
    <contour>
      <point x="329.074" y="594.008" type="curve" smooth="yes"/>
      <point x="329.074" y="541.168" type="line"/>
      <point x="424.622" y="541.047"/>
      <point x="485.487" y="540.664"/>
      <point x="485.487" y="540.664" type="curve" smooth="yes"/>
      <point x="497.385" y="540.664"/>
      <point x="507.695" y="528.552"/>
      <point x="507.695" y="512.876" type="curve" smooth="yes"/>
      <point x="507.695" y="497.2"/>
      <point x="497.385" y="485.088"/>
      <point x="485.487" y="485.088" type="curve" smooth="yes"/>
      <point x="485.487" y="485.088"/>
      <point x="406.076" y="485.101"/>
      <point x="329.074" y="485.107" type="curve"/>
      <point x="329.074" y="138.58" type="line"/>
      <point x="406.076" y="138.585"/>
      <point x="485.487" y="138.598"/>
      <point x="485.487" y="138.598" type="curve" smooth="yes"/>
      <point x="497.385" y="138.598"/>
      <point x="507.695" y="126.486"/>
      <point x="507.695" y="110.81" type="curve" smooth="yes"/>
      <point x="507.695" y="95.1346"/>
      <point x="497.385" y="83.0221"/>
      <point x="485.487" y="83.0221" type="curve" smooth="yes"/>
      <point x="485.487" y="83.0221"/>
      <point x="424.622" y="82.6392"/>
      <point x="329.074" y="82.5181" type="curve"/>
      <point x="329.074" y="29.9921" type="line" smooth="yes"/>
      <point x="329.074" y="13.9249"/>
      <point x="312.924" y="0"/>
      <point x="292.024" y="0" type="curve" smooth="yes"/>
      <point x="271.124" y="0"/>
      <point x="254.974" y="14.1368"/>
      <point x="254.975" y="29.9713" type="curve" smooth="yes"/>
      <point x="254.975" y="29.9713"/>
      <point x="254.967" y="50.3183"/>
      <point x="254.957" y="83.3336" type="curve"/>
      <point x="138.514" y="93.6871"/>
      <point x="47.0869" y="192.244"/>
      <point x="47.0869" y="311.843" type="curve" smooth="yes"/>
      <point x="47.0869" y="431.421"/>
      <point x="138.481" y="529.964"/>
      <point x="254.895" y="540.347" type="curve"/>
      <point x="254.909" y="573.525"/>
      <point x="254.933" y="593.997"/>
      <point x="254.972" y="594.029" type="curve" smooth="yes"/>
      <point x="254.972" y="610.085"/>
      <point x="271.122" y="624"/>
      <point x="292.023" y="624" type="curve" smooth="yes"/>
      <point x="312.923" y="624"/>
      <point x="328.648" y="610.075"/>
    </contour>
  </outline>
</glyph>
<glyph name="sterling" format="1">
  <advance width="715"/>
  <unicode hex="00A3"/>
  <outline>
    <contour>
      <point x="642.978" y="74.0996" type="line" smooth="yes"/>
      <point x="658.841" y="73.6738"/>
      <point x="672.589" y="57.9492"/>
      <point x="672.589" y="37.0498" type="curve" smooth="yes"/>
      <point x="672.589" y="16.1494"/>
      <point x="658.841" y="0"/>
      <point x="642.978" y="0" type="curve" smooth="yes"/>
      <point x="642.812" y="-0.208008"/>
      <point x="78.2572" y="0"/>
      <point x="78.2572" y="0" type="curve" smooth="yes"/>
      <point x="62.6132" y="-0.000976562"/>
      <point x="48.6464" y="16.1494"/>
      <point x="48.6464" y="37.0498" type="curve" smooth="yes"/>
      <point x="48.6464" y="122.509"/>
      <point x="61.3264" y="199.483"/>
      <point x="99.1135" y="252.689" type="curve"/>
      <point x="86.3508" y="252.696"/>
      <point x="78.8913" y="252.7"/>
      <point x="78.8913" y="252.7" type="curve" smooth="yes"/>
      <point x="63.2473" y="252.699"/>
      <point x="49.2805" y="268.85"/>
      <point x="49.2805" y="289.75" type="curve" smooth="yes"/>
      <point x="49.2805" y="449.882"/>
      <point x="187.922" y="580.222"/>
      <point x="358.713" y="580.222" type="curve" smooth="yes"/>
      <point x="529.504" y="580.222"/>
      <point x="559.644" y="579.5"/>
      <point x="559.644" y="579.5" type="curve" smooth="yes"/>
      <point x="575.507" y="579.5"/>
      <point x="589.255" y="563.35"/>
      <point x="589.255" y="542.45" type="curve" smooth="yes"/>
      <point x="589.255" y="521.55"/>
      <point x="575.507" y="505.4"/>
      <point x="559.644" y="505.4" type="curve" smooth="yes"/>
      <point x="559.644" y="505.4"/>
      <point x="476.649" y="505.426"/>
      <point x="358.713" y="505.426" type="curve" smooth="yes"/>
      <point x="253.516" y="505.426"/>
      <point x="178.981" y="426.552"/>
      <point x="146.446" y="326.8" type="curve"/>
      <point x="242.524" y="326.8" type="line" smooth="yes"/>
      <point x="249.438" y="327.278"/>
      <point x="256.581" y="327.521"/>
      <point x="263.959" y="327.521" type="curve" smooth="yes"/>
      <point x="434.75" y="327.521"/>
      <point x="436.336" y="326.8"/>
      <point x="436.336" y="326.8" type="curve" smooth="yes"/>
      <point x="452.199" y="326.8"/>
      <point x="465.947" y="310.649"/>
      <point x="465.947" y="289.75" type="curve" smooth="yes"/>
      <point x="465.947" y="268.85"/>
      <point x="452.199" y="252.7"/>
      <point x="436.336" y="252.7" type="curve" smooth="yes"/>
      <point x="436.253" y="252.596"/>
      <point x="346.864" y="252.622"/>
      <point x="257.508" y="252.622" type="curve" smooth="yes"/>
      <point x="159.56" y="249.41"/>
      <point x="177.665" y="171.761"/>
      <point x="145.812" y="74.0996" type="curve"/>
    </contour>
  </outline>
</glyph>
<glyph name="currency" format="1">
  <advance width="519"/>
  <unicode hex="00A4"/>
  <outline>
    <contour>
      <point x="127.314" y="309.6" type="curve" smooth="yes"/>
      <point x="127.314" y="239.856"/>
      <point x="187.914" y="178.188"/>
      <point x="262.363" y="178.188" type="curve" smooth="yes"/>
      <point x="336.813" y="178.188"/>
      <point x="397.413" y="239.856"/>
      <point x="397.413" y="309.6" type="curve" smooth="yes"/>
      <point x="397.413" y="379.342"/>
      <point x="336.813" y="441.011"/>
      <point x="262.363" y="441.011" type="curve" smooth="yes"/>
      <point x="187.914" y="441.011"/>
      <point x="127.314" y="379.342"/>
    </contour>
    <contour>
      <point x="404.387" y="94.1504" type="curve" smooth="yes"/>
      <point x="360.815" y="158.031" type="line"/>
      <point x="332.417" y="141.434"/>
      <point x="298.61" y="131.798"/>
      <point x="262.363" y="131.798" type="curve" smooth="yes"/>
      <point x="226.118" y="131.798"/>
      <point x="192.309" y="141.434"/>
      <point x="163.913" y="158.031" type="curve"/>
      <point x="120.339" y="94.1504" type="line" smooth="yes"/>
      <point x="112.405" y="83.6504"/>
      <point x="91.0952" y="73.1504"/>
      <point x="70.8236" y="73.1504" type="curve" smooth="yes"/>
      <point x="50.548" y="73.1504"/>
      <point x="41.0115" y="83.6504"/>
      <point x="48.4605" y="94.1504" type="curve" smooth="yes"/>
      <point x="48.6933" y="94.1504"/>
      <point x="95.4006" y="163.799"/>
      <point x="118.54" y="198.325" type="curve"/>
      <point x="96.2764" y="229.166"/>
      <point x="83.0264" y="267.751"/>
      <point x="83.0264" y="309.6" type="curve" smooth="yes"/>
      <point x="83.0264" y="351.448"/>
      <point x="96.2764" y="390.033"/>
      <point x="118.54" y="420.874" type="curve"/>
      <point x="95.4006" y="455.4"/>
      <point x="48.6933" y="525.049"/>
      <point x="48.4605" y="525.049" type="curve" smooth="yes"/>
      <point x="41.0115" y="535.549"/>
      <point x="50.548" y="546.049"/>
      <point x="70.8236" y="546.049" type="curve" smooth="yes"/>
      <point x="91.0952" y="546.049"/>
      <point x="112.405" y="535.549"/>
      <point x="120.339" y="525.049" type="curve" smooth="yes"/>
      <point x="163.913" y="461.168" type="line"/>
      <point x="192.309" y="477.765"/>
      <point x="226.118" y="487.401"/>
      <point x="262.363" y="487.401" type="curve" smooth="yes"/>
      <point x="298.61" y="487.401"/>
      <point x="332.417" y="477.765"/>
      <point x="360.815" y="461.168" type="curve"/>
      <point x="404.387" y="525.049" type="line" smooth="yes"/>
      <point x="412.321" y="535.549"/>
      <point x="433.632" y="546.049"/>
      <point x="453.903" y="546.049" type="curve" smooth="yes"/>
      <point x="474.179" y="546.049"/>
      <point x="483.715" y="535.549"/>
      <point x="476.266" y="525.049" type="curve" smooth="yes"/>
      <point x="476.034" y="525.049"/>
      <point x="429.327" y="455.4"/>
      <point x="406.187" y="420.874" type="curve"/>
      <point x="428.451" y="390.033"/>
      <point x="441.7" y="351.448"/>
      <point x="441.7" y="309.6" type="curve" smooth="yes"/>
      <point x="441.7" y="267.751"/>
      <point x="428.451" y="229.166"/>
      <point x="406.187" y="198.325" type="curve"/>
      <point x="429.327" y="163.799"/>
      <point x="476.034" y="94.1504"/>
      <point x="476.266" y="94.1504" type="curve" smooth="yes"/>
      <point x="483.715" y="83.6504"/>
      <point x="474.179" y="73.1504"/>
      <point x="453.903" y="73.1504" type="curve" smooth="yes"/>
      <point x="433.632" y="73.1504"/>
      <point x="412.321" y="83.6504"/>
    </contour>
  </outline>
</glyph>
<glyph name="yen" format="1">
  <advance width="710"/>
  <unicode hex="00A5"/>
  <outline>
    <contour>
      <point x="582.818" y="624.6" type="line" smooth="yes"/>
      <point x="603.733" y="624.6"/>
      <point x="619.894" y="610.673"/>
      <point x="619.894" y="594.604" type="curve" smooth="yes"/>
      <point x="619.894" y="594.604"/>
      <point x="620.615" y="594.068"/>
      <point x="620.615" y="421.055" type="curve" smooth="yes"/>
      <point x="620.615" y="412.651"/>
      <point x="620.291" y="404.325"/>
      <point x="619.653" y="396.087" type="curve" smooth="yes"/>
      <point x="619.675" y="308.349"/>
      <point x="619.694" y="207.18"/>
      <point x="619.689" y="129.002" type="curve"/>
      <point x="652.372" y="129.002" type="line" smooth="yes"/>
      <point x="660.304" y="129.002"/>
      <point x="667.178" y="120.927"/>
      <point x="667.178" y="110.477" type="curve" smooth="yes"/>
      <point x="667.178" y="100.027"/>
      <point x="660.194" y="91.9512"/>
      <point x="652.372" y="91.9522" type="curve" smooth="yes"/>
      <point x="652.372" y="91.9522"/>
      <point x="638.953" y="91.9428"/>
      <point x="619.685" y="91.9333" type="curve"/>
      <point x="619.685" y="83.2637"/>
      <point x="619.679" y="75.0512"/>
      <point x="619.679" y="67.3649" type="curve"/>
      <point x="652.372" y="67.3649" type="line" smooth="yes"/>
      <point x="660.304" y="67.3649"/>
      <point x="667.178" y="59.2897"/>
      <point x="667.178" y="48.8405" type="curve" smooth="yes"/>
      <point x="667.178" y="38.3893"/>
      <point x="660.194" y="30.3151"/>
      <point x="652.372" y="30.3151" type="curve" smooth="yes"/>
      <point x="652.372" y="30.3151"/>
      <point x="638.94" y="30.3067"/>
      <point x="619.657" y="30.2963" type="curve"/>
      <point x="619.643" y="12.7205"/>
      <point x="619.623" y="2.61757"/>
      <point x="619.597" y="2.5956" type="curve" smooth="yes"/>
      <point x="619.597" y="-13.4737"/>
      <point x="603.446" y="-27.4004"/>
      <point x="582.546" y="-27.4004" type="curve" smooth="yes"/>
      <point x="561.647" y="-27.4004"/>
      <point x="545.922" y="-13.4737"/>
      <point x="545.497" y="2.5956" type="curve" smooth="yes"/>
      <point x="545.497" y="30.267" type="line"/>
      <point x="513.955" y="30.2618"/>
      <point x="487.995" y="30.2712"/>
      <point x="487.963" y="30.3151" type="curve" smooth="yes"/>
      <point x="480.031" y="30.3151"/>
      <point x="473.157" y="38.3893"/>
      <point x="473.157" y="48.8405" type="curve" smooth="yes"/>
      <point x="473.157" y="59.2897"/>
      <point x="480.031" y="67.152"/>
      <point x="487.963" y="67.3649" type="curve" smooth="yes"/>
      <point x="545.497" y="67.3649" type="line"/>
      <point x="545.497" y="91.903" type="line"/>
      <point x="513.955" y="91.8988"/>
      <point x="487.995" y="91.9082"/>
      <point x="487.963" y="91.9522" type="curve" smooth="yes"/>
      <point x="480.031" y="91.9522"/>
      <point x="473.157" y="100.027"/>
      <point x="473.157" y="110.477" type="curve" smooth="yes"/>
      <point x="473.157" y="120.927"/>
      <point x="480.031" y="128.789"/>
      <point x="487.963" y="129.002" type="curve" smooth="yes"/>
      <point x="545.497" y="129.002" type="line"/>
      <point x="545.497" y="210.922" type="line"/>
      <point x="489.722" y="151.091"/>
      <point x="427.997" y="113.477"/>
      <point x="338.528" y="113.477" type="curve" smooth="yes"/>
      <point x="170.637" y="113.477"/>
      <point x="48.6608" y="252.325"/>
      <point x="48.6608" y="423.37" type="curve" smooth="yes"/>
      <point x="48.6608" y="594.415"/>
      <point x="49.3835" y="594.945"/>
      <point x="49.3835" y="594.945" type="curve" smooth="yes"/>
      <point x="49.3835" y="610.831"/>
      <point x="65.5342" y="624.6"/>
      <point x="86.433" y="624.6" type="curve" smooth="yes"/>
      <point x="107.334" y="624.6"/>
      <point x="123.485" y="610.673"/>
      <point x="123.485" y="594.604" type="curve" smooth="yes"/>
      <point x="123.485" y="594.604"/>
      <point x="123.458" y="540.526"/>
      <point x="123.458" y="421.055" type="curve" smooth="yes"/>
      <point x="123.458" y="301.586"/>
      <point x="210.997" y="195.947"/>
      <point x="336.736" y="195.947" type="curve" smooth="yes"/>
      <point x="458.612" y="195.947"/>
      <point x="539.478" y="295.199"/>
      <point x="545.497" y="410.094" type="curve"/>
      <point x="545.497" y="594.604" type="line" smooth="yes"/>
      <point x="545.497" y="610.673"/>
      <point x="561.658" y="624.6"/>
      <point x="582.571" y="624.6" type="curve" smooth="yes"/>
    </contour>
  </outline>
</glyph>
<glyph name="brokenbar" format="1">
  <advance width="198"/>
  <unicode hex="00A6"/>
  <outline>
    <contour>
      <point x="139.951" y="300" type="curve" smooth="yes"/>
      <point x="139.951" y="28" type="line" smooth="yes"/>
      <point x="139.951" y="13"/>
      <point x="123.801" y="0"/>
      <point x="102.902" y="0" type="curve" smooth="yes"/>
      <point x="82.0013" y="0"/>
      <point x="65.8509" y="13.207"/>
      <point x="65.8519" y="28" type="curve" smooth="yes"/>
      <point x="65.8519" y="28"/>
      <point x="65.8519" y="299.843"/>
      <point x="65.8519" y="300" type="curve" smooth="yes"/>
      <point x="65.8519" y="315"/>
      <point x="82.0013" y="328"/>
      <point x="102.902" y="328" type="curve" smooth="yes"/>
      <point x="123.801" y="328"/>
      <point x="139.526" y="315"/>
    </contour>
    <contour>
      <point x="139.406" y="672" type="curve" smooth="yes"/>
      <point x="139.406" y="400" type="line" smooth="yes"/>
      <point x="139.406" y="385"/>
      <point x="123.255" y="372"/>
      <point x="102.356" y="372" type="curve" smooth="yes"/>
      <point x="81.4377" y="372"/>
      <point x="65.2736" y="385.207"/>
      <point x="65.2746" y="400" type="curve" smooth="yes"/>
      <point x="65.2746" y="400"/>
      <point x="65.2746" y="671.843"/>
      <point x="65.2746" y="672" type="curve" smooth="yes"/>
      <point x="65.2746" y="687"/>
      <point x="81.4377" y="700"/>
      <point x="102.356" y="700" type="curve" smooth="yes"/>
      <point x="123.255" y="700"/>
      <point x="138.98" y="687"/>
    </contour>
  </outline>
</glyph>
<glyph name="section" format="1">
  <advance width="714"/>
  <unicode hex="00A7"/>
  <outline>
    <contour>
      <point x="203.879" y="343.552" type="curve"/>
      <point x="220.673" y="412.439"/>
      <point x="284.121" y="463.729"/>
      <point x="359.573" y="463.729" type="curve" smooth="yes"/>
      <point x="434.816" y="463.729"/>
      <point x="498.122" y="413.356"/>
      <point x="515.125" y="345.608" type="curve"/>
      <point x="588.472" y="346.948"/>
      <point x="669.022" y="352.036"/>
      <point x="669.022" y="194.908" type="curve" smooth="yes"/>
      <point x="669.022" y="29.9431"/>
      <point x="532.453" y="0"/>
      <point x="364.216" y="0" type="curve" smooth="yes"/>
      <point x="195.979" y="0"/>
      <point x="82.9525" y="0.721714"/>
      <point x="82.9525" y="0.721714" type="curve" smooth="yes"/>
      <point x="67.3268" y="0.721714"/>
      <point x="53.7845" y="16.8729"/>
      <point x="53.7845" y="37.7733" type="curve" smooth="yes"/>
      <point x="53.7845" y="58.6747"/>
      <point x="67.4148" y="74.8249"/>
      <point x="83.1421" y="74.8249" type="curve" smooth="yes"/>
      <point x="83.1421" y="74.8249"/>
      <point x="249.306" y="74.7959"/>
      <point x="366.233" y="74.7959" type="curve" smooth="yes"/>
      <point x="483.16" y="74.7959"/>
      <point x="586.551" y="100.854"/>
      <point x="586.551" y="194.987" type="curve" smooth="yes"/>
      <point x="586.551" y="196.973"/>
      <point x="607.164" y="262.954"/>
      <point x="516.44" y="268.747" type="curve"/>
      <point x="497.07" y="203.894"/>
      <point x="435.478" y="156.439"/>
      <point x="362.728" y="156.439" type="curve" smooth="yes"/>
      <point x="290.156" y="156.439"/>
      <point x="228.688" y="203.24"/>
      <point x="209.159" y="267.272" type="curve"/>
      <point x="134.753" y="266.108"/>
      <point x="51.1848" y="257.867"/>
      <point x="51.1848" y="417.71" type="curve" smooth="yes"/>
      <point x="51.1848" y="582.464"/>
      <point x="187.753" y="612.369"/>
      <point x="355.991" y="612.369" type="curve" smooth="yes"/>
      <point x="524.228" y="612.369"/>
      <point x="637.254" y="611.647"/>
      <point x="637.254" y="611.647" type="curve" smooth="yes"/>
      <point x="652.88" y="611.647"/>
      <point x="666.422" y="595.496"/>
      <point x="666.422" y="574.596" type="curve" smooth="yes"/>
      <point x="666.422" y="553.694"/>
      <point x="652.792" y="537.544"/>
      <point x="637.064" y="537.544" type="curve" smooth="yes"/>
      <point x="637.064" y="537.544"/>
      <point x="470.901" y="537.573"/>
      <point x="353.973" y="537.573" type="curve" smooth="yes"/>
      <point x="237.046" y="537.573"/>
      <point x="133.656" y="511.509"/>
      <point x="133.656" y="417.353" type="curve" smooth="yes"/>
      <point x="133.656" y="415.366"/>
      <point x="113.025" y="349.191"/>
    </contour>
    <contour>
      <point x="454.98" y="343.958" type="curve"/>
      <point x="439.364" y="380.029"/>
      <point x="403.183" y="406.733"/>
      <point x="361.161" y="406.733" type="curve" smooth="yes"/>
      <point x="318.937" y="406.733"/>
      <point x="282.61" y="379.772"/>
      <point x="267.118" y="343.437" type="curve"/>
      <point x="308.529" y="343.638"/>
      <point x="373.74" y="343.884"/>
    </contour>
    <contour>
      <point x="271.108" y="268.422" type="curve"/>
      <point x="288.303" y="236.361"/>
      <point x="322.224" y="213.434"/>
      <point x="361.161" y="213.434" type="curve" smooth="yes"/>
      <point x="400.329" y="213.434"/>
      <point x="434.423" y="236.605"/>
      <point x="451.519" y="268.925" type="curve"/>
      <point x="411.098" y="268.747"/>
      <point x="348.698" y="268.504"/>
    </contour>
  </outline>
</glyph>
<glyph name="dieresis" format="1">
  <advance width="369"/>
  <unicode hex="00A8"/>
  <outline>
    <contour>
      <point x="112.874" y="611.25" type="curve" smooth="yes"/>
      <point x="87.8744" y="611.25"/>
      <point x="66.6244" y="630"/>
      <point x="66.6244" y="655" type="curve" smooth="yes"/>
      <point x="66.6244" y="680"/>
      <point x="87.8744" y="700"/>
      <point x="112.874" y="700" type="curve" smooth="yes"/>
      <point x="137.874" y="700"/>
      <point x="159.124" y="680"/>
      <point x="159.124" y="655" type="curve" smooth="yes"/>
      <point x="159.124" y="630"/>
      <point x="137.874" y="611.25"/>
    </contour>
    <contour>
      <point x="263.538" y="611.25" type="curve" smooth="yes"/>
      <point x="238.538" y="611.25"/>
      <point x="217.288" y="630"/>
      <point x="217.288" y="655" type="curve" smooth="yes"/>
      <point x="217.288" y="680"/>
      <point x="238.538" y="700"/>
      <point x="263.538" y="700" type="curve" smooth="yes"/>
      <point x="288.538" y="700"/>
      <point x="309.788" y="680"/>
      <point x="309.788" y="655" type="curve" smooth="yes"/>
      <point x="309.788" y="630"/>
      <point x="288.538" y="611.25"/>
    </contour>
  </outline>
</glyph>
<glyph name="copyright" format="1">
  <advance width="731"/>
  <unicode hex="00A9"/>
  <outline>
    <contour>
      <point x="129.748" y="309.6" type="curve" smooth="yes"/>
      <point x="129.748" y="189.057"/>
      <point x="236.948" y="82.4707"/>
      <point x="368.65" y="82.4707" type="curve" smooth="yes"/>
      <point x="500.351" y="82.4707"/>
      <point x="607.552" y="189.057"/>
      <point x="607.552" y="309.6" type="curve" smooth="yes"/>
      <point x="607.552" y="430.141"/>
      <point x="500.351" y="536.729"/>
      <point x="368.65" y="536.729" type="curve" smooth="yes"/>
      <point x="236.948" y="536.729"/>
      <point x="129.748" y="430.141"/>
    </contour>
    <contour>
      <point x="51.0155" y="309.6" type="curve" smooth="yes"/>
      <point x="51.0155" y="480.483"/>
      <point x="193.544" y="619.199"/>
      <point x="368.65" y="619.199" type="curve" smooth="yes"/>
      <point x="543.756" y="619.199"/>
      <point x="686.284" y="480.483"/>
      <point x="686.284" y="309.6" type="curve" smooth="yes"/>
      <point x="686.284" y="138.716"/>
      <point x="543.756" y="0"/>
      <point x="368.65" y="0" type="curve" smooth="yes"/>
      <point x="193.544" y="0"/>
      <point x="51.0155" y="138.716"/>
    </contour>
    <contour>
      <point x="482.477" y="462.562" type="curve" smooth="yes"/>
      <point x="490.348" y="462.562"/>
      <point x="497.17" y="454.486"/>
      <point x="497.17" y="444.037" type="curve" smooth="yes"/>
      <point x="497.17" y="433.585"/>
      <point x="490.296" y="425.511"/>
      <point x="482.365" y="425.511" type="curve" smooth="yes"/>
      <point x="482.365" y="425.511"/>
      <point x="398.566" y="425.525"/>
      <point x="339.598" y="425.525" type="curve" smooth="yes"/>
      <point x="280.631" y="425.525"/>
      <point x="228.489" y="372.373"/>
      <point x="228.489" y="307.073" type="curve" smooth="yes"/>
      <point x="228.489" y="241.774"/>
      <point x="280.631" y="188.622"/>
      <point x="339.598" y="188.622" type="curve" smooth="yes"/>
      <point x="398.566" y="188.622"/>
      <point x="482.365" y="188.636"/>
      <point x="482.365" y="188.636" type="curve" smooth="yes"/>
      <point x="490.296" y="188.636"/>
      <point x="497.17" y="180.562"/>
      <point x="497.17" y="170.11" type="curve" smooth="yes"/>
      <point x="497.17" y="159.661"/>
      <point x="490.348" y="151.585"/>
      <point x="482.477" y="151.585" type="curve" smooth="yes"/>
      <point x="482.477" y="151.585"/>
      <point x="425.542" y="151.225"/>
      <point x="340.795" y="151.225" type="curve" smooth="yes"/>
      <point x="256.048" y="151.225"/>
      <point x="187.253" y="221.157"/>
      <point x="187.253" y="307.073" type="curve" smooth="yes"/>
      <point x="187.253" y="392.99"/>
      <point x="256.048" y="462.922"/>
      <point x="340.795" y="462.922" type="curve" smooth="yes"/>
      <point x="425.542" y="462.922"/>
      <point x="482.477" y="462.562"/>
    </contour>
  </outline>
</glyph>
<glyph name="ordfeminine" format="1">
  <advance width="325"/>
  <unicode hex="00AA"/>
  <outline>
    <contour>
      <point x="276.997" y="498.845" type="line" smooth="yes"/>
      <point x="276.997" y="493.595"/>
      <point x="251.061" y="493.245"/>
      <point x="251.061" y="498.495" type="curve" smooth="yes"/>
      <point x="251.061" y="509.199"/>
      <point x="251.064" y="519.903"/>
      <point x="251.064" y="530.607" type="curve"/>
      <point x="230.459" y="508.913"/>
      <point x="200.046" y="495.18"/>
      <point x="166.187" y="495.18" type="curve" smooth="yes"/>
      <point x="104.294" y="495.18"/>
      <point x="53.9175" y="541.064"/>
      <point x="53.9175" y="597.59" type="curve" smooth="yes"/>
      <point x="53.9175" y="654.115"/>
      <point x="104.009" y="700"/>
      <point x="165.551" y="700" type="curve" smooth="yes"/>
      <point x="227.093" y="700"/>
      <point x="277.185" y="654.115"/>
      <point x="277.185" y="597.59" type="curve" smooth="yes"/>
    </contour>
    <contour>
      <point x="81.4732" y="597.59" type="curve" smooth="yes"/>
      <point x="81.4732" y="558.558"/>
      <point x="119.18" y="524.045"/>
      <point x="165.504" y="524.045" type="curve" smooth="yes"/>
      <point x="211.829" y="524.045"/>
      <point x="249.536" y="558.558"/>
      <point x="249.536" y="597.59" type="curve" smooth="yes"/>
      <point x="249.536" y="636.622"/>
      <point x="211.829" y="671.135"/>
      <point x="165.504" y="671.135" type="curve" smooth="yes"/>
      <point x="119.18" y="671.135"/>
      <point x="81.4732" y="636.622"/>
    </contour>
  </outline>
</glyph>
<glyph name="guillemotleft" format="1">
  <advance width="614"/>
  <unicode hex="00AB"/>
  <outline>
    <contour>
      <point x="285.004" y="360" type="curve" smooth="yes"/>
      <point x="285.004" y="382.754"/>
      <point x="298.752" y="405.544"/>
      <point x="314.615" y="411.555" type="curve" smooth="yes"/>
      <point x="314.781" y="411.845"/>
      <point x="540.926" y="567.558"/>
      <point x="540.926" y="567.558" type="curve"/>
      <point x="556.57" y="572.004"/>
      <point x="570.537" y="562.786"/>
      <point x="570.537" y="545.72" type="curve" smooth="yes"/>
      <point x="570.537" y="528.655"/>
      <point x="556.789" y="511.562"/>
      <point x="540.926" y="507.055" type="curve"/>
      <point x="355.507" y="360" type="line"/>
      <point x="540.926" y="212.945" type="line"/>
      <point x="556.789" y="208.438"/>
      <point x="570.537" y="191.345"/>
      <point x="570.537" y="174.28" type="curve" smooth="yes"/>
      <point x="570.537" y="157.214"/>
      <point x="556.57" y="147.996"/>
      <point x="540.926" y="152.442" type="curve"/>
      <point x="540.926" y="152.442"/>
      <point x="314.781" y="308.155"/>
      <point x="314.615" y="308.445" type="curve" smooth="yes"/>
      <point x="298.752" y="314.456"/>
      <point x="285.004" y="337.246"/>
    </contour>
    <contour>
      <point x="49.1751" y="360" type="curve" smooth="yes"/>
      <point x="49.1751" y="382.754"/>
      <point x="62.923" y="405.544"/>
      <point x="78.786" y="411.555" type="curve" smooth="yes"/>
      <point x="78.9522" y="411.845"/>
      <point x="305.097" y="567.558"/>
      <point x="305.097" y="567.558" type="curve"/>
      <point x="320.741" y="572.004"/>
      <point x="334.708" y="562.786"/>
      <point x="334.708" y="545.72" type="curve" smooth="yes"/>
      <point x="334.708" y="528.655"/>
      <point x="320.96" y="511.562"/>
      <point x="305.097" y="507.055" type="curve"/>
      <point x="119.677" y="360" type="line"/>
      <point x="305.097" y="212.945" type="line"/>
      <point x="320.96" y="208.438"/>
      <point x="334.708" y="191.345"/>
      <point x="334.708" y="174.28" type="curve" smooth="yes"/>
      <point x="334.708" y="157.214"/>
      <point x="320.741" y="147.996"/>
      <point x="305.097" y="152.442" type="curve"/>
      <point x="305.097" y="152.442"/>
      <point x="78.9522" y="308.155"/>
      <point x="78.786" y="308.445" type="curve" smooth="yes"/>
      <point x="62.923" y="314.456"/>
      <point x="49.1751" y="337.246"/>
    </contour>
  </outline>
</glyph>
<glyph name="logicalnot" format="1">
  <advance width="616"/>
  <unicode hex="00AC"/>
  <outline>
    <contour>
      <point x="487.847" y="305.879" type="curve"/>
      <point x="90.4188" y="305.879" type="line" smooth="yes"/>
      <point x="74.5558" y="305.879"/>
      <point x="60.808" y="322.029"/>
      <point x="60.808" y="342.928" type="curve" smooth="yes"/>
      <point x="60.808" y="363.829"/>
      <point x="74.657" y="379.979"/>
      <point x="90.1691" y="379.978" type="curve" smooth="yes"/>
      <point x="90.1691" y="379.978"/>
      <point x="532.518" y="379.978"/>
      <point x="532.683" y="379.978" type="curve" smooth="yes"/>
      <point x="548.412" y="379.978"/>
      <point x="562.044" y="361.03"/>
      <point x="562.044" y="336.508" type="curve" smooth="yes"/>
      <point x="562.044" y="182.806" type="line" smooth="yes"/>
      <point x="562.044" y="165.207"/>
      <point x="545.894" y="149.954"/>
      <point x="524.994" y="149.954" type="curve" smooth="yes"/>
      <point x="504.094" y="149.954"/>
      <point x="487.944" y="166.84"/>
      <point x="487.945" y="185.755" type="curve" smooth="yes"/>
      <point x="487.945" y="185.755"/>
      <point x="487.847" y="256.351"/>
    </contour>
  </outline>
</glyph>
<glyph name="registered" format="1">
  <advance width="731"/>
  <unicode hex="00AE"/>
  <outline>
    <contour>
      <point x="129.748" y="309.6" type="curve" smooth="yes"/>
      <point x="129.748" y="189.057"/>
      <point x="236.948" y="82.4707"/>
      <point x="368.65" y="82.4707" type="curve" smooth="yes"/>
      <point x="500.351" y="82.4707"/>
      <point x="607.552" y="189.057"/>
      <point x="607.552" y="309.6" type="curve" smooth="yes"/>
      <point x="607.552" y="430.141"/>
      <point x="500.351" y="536.729"/>
      <point x="368.65" y="536.729" type="curve" smooth="yes"/>
      <point x="236.948" y="536.729"/>
      <point x="129.748" y="430.141"/>
    </contour>
    <contour>
      <point x="51.0155" y="309.6" type="curve" smooth="yes"/>
      <point x="51.0155" y="480.483"/>
      <point x="193.544" y="619.199"/>
      <point x="368.65" y="619.199" type="curve" smooth="yes"/>
      <point x="543.756" y="619.199"/>
      <point x="686.284" y="480.483"/>
      <point x="686.284" y="309.6" type="curve" smooth="yes"/>
      <point x="686.284" y="138.716"/>
      <point x="543.756" y="0"/>
      <point x="368.65" y="0" type="curve" smooth="yes"/>
      <point x="193.544" y="0"/>
      <point x="51.0155" y="138.716"/>
    </contour>
    <contour>
      <point x="249.312" y="166.007" type="curve"/>
      <point x="249.286" y="157.841"/>
      <point x="241.234" y="150.763"/>
      <point x="230.781" y="150.763" type="curve" smooth="yes"/>
      <point x="220.329" y="150.763"/>
      <point x="212.275" y="157.841"/>
      <point x="212.25" y="166.007" type="curve"/>
      <point x="212.275" y="166.007"/>
      <point x="207.875" y="308.803"/>
      <point x="207.875" y="308.803" type="curve"/>
      <point x="213.375" y="393.964"/>
      <point x="276.67" y="463.615"/>
      <point x="361.417" y="463.615" type="curve" smooth="yes"/>
      <point x="446.164" y="463.615"/>
      <point x="503.099" y="463.254"/>
      <point x="503.099" y="463.254" type="curve" smooth="yes"/>
      <point x="510.97" y="463.254"/>
      <point x="517.792" y="455.179"/>
      <point x="517.792" y="444.729" type="curve" smooth="yes"/>
      <point x="517.792" y="434.278"/>
      <point x="510.918" y="426.204"/>
      <point x="502.987" y="426.204" type="curve" smooth="yes"/>
      <point x="502.987" y="426.204"/>
      <point x="419.188" y="426.217"/>
      <point x="360.22" y="426.217" type="curve" smooth="yes"/>
      <point x="301.252" y="426.217"/>
      <point x="249.111" y="373.53"/>
      <point x="249.111" y="308.803" type="curve" smooth="yes"/>
      <point x="249.111" y="244.075"/>
      <point x="249.285" y="166.007"/>
    </contour>
  </outline>
</glyph>
<glyph name="macron" format="1">
  <advance width="904"/>
  <unicode hex="00AF"/>
  <outline>
    <contour>
      <point x="100.994" y="700" type="curve" smooth="yes"/>
      <point x="811.654" y="700" type="line" smooth="yes"/>
      <point x="827.517" y="700"/>
      <point x="841.265" y="683.85"/>
      <point x="841.265" y="662.95" type="curve" smooth="yes"/>
      <point x="841.265" y="642.05"/>
      <point x="827.298" y="625.899"/>
      <point x="811.654" y="625.9" type="curve" smooth="yes"/>
      <point x="811.654" y="625.9"/>
      <point x="101.16" y="625.692"/>
      <point x="100.994" y="625.9" type="curve" smooth="yes"/>
      <point x="85.1311" y="625.9"/>
      <point x="71.3832" y="642.05"/>
      <point x="71.3832" y="662.95" type="curve" smooth="yes"/>
      <point x="71.3832" y="683.85"/>
      <point x="85.1311" y="699.574"/>
    </contour>
  </outline>
</glyph>
<glyph name="degree" format="1">
  <advance width="354"/>
  <unicode hex="00B0"/>
  <outline>
    <contour>
      <point x="83.4361" y="582.59" type="curve" smooth="yes"/>
      <point x="83.4361" y="537.703"/>
      <point x="126.799" y="498.014"/>
      <point x="180.072" y="498.014" type="curve" smooth="yes"/>
      <point x="233.345" y="498.014"/>
      <point x="276.708" y="537.703"/>
      <point x="276.708" y="582.59" type="curve" smooth="yes"/>
      <point x="276.708" y="627.477"/>
      <point x="233.345" y="667.166"/>
      <point x="180.072" y="667.166" type="curve" smooth="yes"/>
      <point x="126.799" y="667.166"/>
      <point x="83.4361" y="627.477"/>
    </contour>
    <contour>
      <point x="51.7467" y="582.59" type="curve" smooth="yes"/>
      <point x="51.7467" y="647.594"/>
      <point x="109.328" y="700.361"/>
      <point x="180.072" y="700.361" type="curve" smooth="yes"/>
      <point x="250.816" y="700.361"/>
      <point x="308.397" y="647.594"/>
      <point x="308.397" y="582.59" type="curve" smooth="yes"/>
      <point x="308.397" y="517.586"/>
      <point x="250.816" y="464.818"/>
      <point x="180.072" y="464.818" type="curve" smooth="yes"/>
      <point x="109.328" y="464.818"/>
      <point x="51.7467" y="517.586"/>
    </contour>
  </outline>
</glyph>
<glyph name="plusminus" format="1">
  <advance width="594"/>
  <unicode hex="00B1"/>
  <outline>
    <contour>
      <point x="520.786" y="0" type="curve" smooth="yes"/>
      <point x="78.2719" y="0" type="line" smooth="yes"/>
      <point x="62.5427" y="0"/>
      <point x="48.9107" y="16.1504"/>
      <point x="48.9107" y="37.0498" type="curve" smooth="yes"/>
      <point x="48.9107" y="57.9502"/>
      <point x="62.7598" y="74.1006"/>
      <point x="78.2719" y="74.0996" type="curve" smooth="yes"/>
      <point x="78.2719" y="74.0996"/>
      <point x="520.621" y="74.0996"/>
      <point x="520.786" y="74.0996" type="curve" smooth="yes"/>
      <point x="536.515" y="74.0996"/>
      <point x="550.147" y="57.9502"/>
      <point x="550.147" y="37.0498" type="curve" smooth="yes"/>
      <point x="550.147" y="16.1504"/>
      <point x="536.515" y="0.425781"/>
    </contour>
    <contour>
      <point x="521.065" y="349.003" type="curve" smooth="yes"/>
      <point x="337.198" y="349.003" type="line"/>
      <point x="337.216" y="250.422"/>
      <point x="337.205" y="162.21"/>
      <point x="337.107" y="162.135" type="curve" smooth="yes"/>
      <point x="337.107" y="146.022"/>
      <point x="320.958" y="132.056"/>
      <point x="300.058" y="132.056" type="curve" smooth="yes"/>
      <point x="279.158" y="132.056"/>
      <point x="263.434" y="146.022"/>
      <point x="263.008" y="162.135" type="curve" smooth="yes"/>
      <point x="263.008" y="349.003" type="line"/>
      <point x="79.0503" y="349.003" type="line" smooth="yes"/>
      <point x="63.1874" y="349.003"/>
      <point x="49.4395" y="365.154"/>
      <point x="49.4395" y="386.053" type="curve" smooth="yes"/>
      <point x="49.4395" y="406.953"/>
      <point x="63.4063" y="423.104"/>
      <point x="79.0503" y="423.103" type="curve" smooth="yes"/>
      <point x="79.0503" y="423.103"/>
      <point x="165.921" y="423.146"/>
      <point x="263.008" y="423.176" type="curve"/>
      <point x="263.008" y="609.971" type="line" smooth="yes"/>
      <point x="263.008" y="626.084"/>
      <point x="279.158" y="640.05"/>
      <point x="300.058" y="640.05" type="curve" smooth="yes"/>
      <point x="320.958" y="640.05"/>
      <point x="337.108" y="625.862"/>
      <point x="337.107" y="609.971" type="curve" smooth="yes"/>
      <point x="337.107" y="609.971"/>
      <point x="337.15" y="521.78"/>
      <point x="337.179" y="423.195" type="curve"/>
      <point x="434.196" y="423.213"/>
      <point x="520.992" y="423.201"/>
      <point x="521.065" y="423.103" type="curve" smooth="yes"/>
      <point x="536.928" y="423.103"/>
      <point x="550.676" y="406.953"/>
      <point x="550.676" y="386.053" type="curve" smooth="yes"/>
      <point x="550.676" y="365.154"/>
      <point x="536.928" y="349.429"/>
    </contour>
  </outline>
</glyph>
<glyph name="uni00B2" format="1">
  <advance width="408"/>
  <unicode hex="00B2"/>
  <outline>
    <contour>
      <point x="345.831" y="411.182" type="curve" smooth="yes"/>
      <point x="345.831" y="411.182"/>
      <point x="289.323" y="410.821"/>
      <point x="205.212" y="410.821" type="curve" smooth="yes"/>
      <point x="121.102" y="410.821"/>
      <point x="52.8238" y="401.491"/>
      <point x="52.8238" y="479.557" type="curve" smooth="yes"/>
      <point x="52.8238" y="559.123"/>
      <point x="98.9978" y="553.293"/>
      <point x="137.52" y="553.293" type="curve" smooth="yes"/>
      <point x="222.164" y="553.293"/>
      <point x="279.03" y="552.932"/>
      <point x="279.03" y="552.932" type="curve" smooth="yes"/>
      <point x="307.604" y="552.932"/>
      <point x="319.978" y="575.321"/>
      <point x="319.978" y="607.27" type="curve" smooth="yes"/>
      <point x="319.978" y="666.719"/>
      <point x="268.288" y="662.607"/>
      <point x="209.831" y="662.607" type="curve" smooth="yes"/>
      <point x="151.374" y="662.607"/>
      <point x="68.3008" y="662.595"/>
      <point x="68.3008" y="662.595" type="curve" smooth="yes"/>
      <point x="60.438" y="662.595"/>
      <point x="53.6236" y="670.67"/>
      <point x="53.6236" y="681.12" type="curve" smooth="yes"/>
      <point x="53.6236" y="691.569"/>
      <point x="60.3941" y="699.645"/>
      <point x="68.2063" y="699.645" type="curve" smooth="yes"/>
      <point x="68.2063" y="699.645"/>
      <point x="124.714" y="700.006"/>
      <point x="208.825" y="700.006" type="curve" smooth="yes"/>
      <point x="292.936" y="700.006"/>
      <point x="361.213" y="687.336"/>
      <point x="361.213" y="607.27" type="curve" smooth="yes"/>
      <point x="361.213" y="534.204"/>
      <point x="327.094" y="515.534"/>
      <point x="277.041" y="515.534" type="curve" smooth="yes"/>
      <point x="192.398" y="515.534"/>
      <point x="135.531" y="515.895"/>
      <point x="135.531" y="515.895" type="curve" smooth="yes"/>
      <point x="77.0829" y="515.895"/>
      <point x="94.0592" y="480.506"/>
      <point x="94.0592" y="479.557" type="curve" smooth="yes"/>
      <point x="94.0592" y="448.608"/>
      <point x="145.749" y="448.219"/>
      <point x="204.206" y="448.219" type="curve" smooth="yes"/>
      <point x="262.663" y="448.219"/>
      <point x="345.736" y="448.231"/>
      <point x="345.736" y="448.231" type="curve" smooth="yes"/>
      <point x="353.599" y="448.231"/>
      <point x="360.414" y="440.157"/>
      <point x="360.414" y="429.707" type="curve" smooth="yes"/>
      <point x="360.414" y="419.257"/>
      <point x="353.643" y="411.182"/>
    </contour>
  </outline>
</glyph>
<glyph name="uni00B3" format="1">
  <advance width="448"/>
  <unicode hex="00B3"/>
  <outline>
    <contour>
      <point x="64.1778" y="573.14" type="curve" smooth="yes"/>
      <point x="272.511" y="573.14" type="line" smooth="yes"/>
      <point x="280.443" y="573.14"/>
      <point x="287.317" y="564.564"/>
      <point x="287.317" y="554.115" type="curve" smooth="yes"/>
      <point x="287.317" y="543.664"/>
      <point x="280.333" y="536.09"/>
      <point x="272.511" y="536.09" type="curve" smooth="yes"/>
      <point x="272.511" y="536.09"/>
      <point x="64.2614" y="536.09"/>
      <point x="64.1778" y="536.09" type="curve" smooth="yes"/>
      <point x="56.2463" y="536.09"/>
      <point x="49.3724" y="544.164"/>
      <point x="49.3724" y="554.615" type="curve" smooth="yes"/>
      <point x="49.3724" y="565.064"/>
      <point x="56.2463" y="572.927"/>
    </contour>
    <contour>
      <point x="108.828" y="699.64" type="curve" smooth="yes"/>
      <point x="108.828" y="699.64"/>
      <point x="165.763" y="700"/>
      <point x="250.51" y="700" type="curve" smooth="yes"/>
      <point x="335.256" y="700"/>
      <point x="404.051" y="634.83"/>
      <point x="404.051" y="554.765" type="curve" smooth="yes"/>
      <point x="404.051" y="474.699"/>
      <point x="335.256" y="409.529"/>
      <point x="250.51" y="409.529" type="curve" smooth="yes"/>
      <point x="165.763" y="409.529"/>
      <point x="108.828" y="409.89"/>
      <point x="108.828" y="409.89" type="curve" smooth="yes"/>
      <point x="100.956" y="409.89"/>
      <point x="94.1346" y="417.965"/>
      <point x="94.1346" y="428.414" type="curve" smooth="yes"/>
      <point x="94.1346" y="438.865"/>
      <point x="101.009" y="446.939"/>
      <point x="108.94" y="446.939" type="curve" smooth="yes"/>
      <point x="108.94" y="446.939"/>
      <point x="192.739" y="446.927"/>
      <point x="251.707" y="446.927" type="curve" smooth="yes"/>
      <point x="310.674" y="446.927"/>
      <point x="362.815" y="495.316"/>
      <point x="362.815" y="554.765" type="curve" smooth="yes"/>
      <point x="362.815" y="614.213"/>
      <point x="310.674" y="662.603"/>
      <point x="251.707" y="662.603" type="curve" smooth="yes"/>
      <point x="192.739" y="662.603"/>
      <point x="108.94" y="662.59"/>
      <point x="108.94" y="662.59" type="curve" smooth="yes"/>
      <point x="101.009" y="662.59"/>
      <point x="94.1346" y="670.664"/>
      <point x="94.1346" y="681.115" type="curve" smooth="yes"/>
      <point x="94.1346" y="691.564"/>
      <point x="100.956" y="699.64"/>
    </contour>
  </outline>
</glyph>
<glyph name="acute" format="1">
  <advance width="236"/>
  <unicode hex="00B4"/>
  <outline>
    <contour>
      <point x="187.237" y="653.75" type="curve" smooth="yes"/>
      <point x="174.91" y="628.75"/>
      <point x="144.602" y="607.5"/>
      <point x="118.163" y="607.5" type="curve" smooth="yes"/>
      <point x="109.998" y="607.5"/>
      <point x="103.335" y="609.527"/>
      <point x="98.3905" y="613.066" type="curve"/>
      <point x="80.2772" y="577.021"/>
      <point x="103.424" y="571.015"/>
      <point x="126.554" y="557.5" type="curve"/>
      <point x="91.8027" y="562.084"/>
      <point x="48.0277" y="572.5"/>
      <point x="49.6099" y="583.75" type="curve" smooth="yes"/>
      <point x="51.0134" y="600"/>
      <point x="78.0176" y="633.318"/>
      <point x="93.3817" y="653.75" type="curve"/>
      <point x="105.711" y="678.75"/>
      <point x="137.34" y="700"/>
      <point x="163.779" y="700" type="curve" smooth="yes"/>
      <point x="190.217" y="700"/>
      <point x="199.566" y="678.75"/>
    </contour>
  </outline>
</glyph>
<glyph name="mu" format="1">
  <advance width="723"/>
  <unicode hex="00B5"/>
  <outline>
    <contour>
      <point x="62.4562" y="526.146" type="curve" smooth="yes"/>
      <point x="62.4562" y="563.769"/>
      <point x="63.2101" y="595.148"/>
      <point x="63.2101" y="595.148" type="curve" smooth="yes"/>
      <point x="63.2101" y="610.925"/>
      <point x="79.3608" y="624.6"/>
      <point x="100.261" y="624.6" type="curve" smooth="yes"/>
      <point x="121.161" y="624.6"/>
      <point x="137.311" y="610.828"/>
      <point x="137.311" y="594.939" type="curve" smooth="yes"/>
      <point x="137.311" y="594.939"/>
      <point x="137.284" y="427.058"/>
      <point x="137.284" y="308.921" type="curve" smooth="yes"/>
      <point x="137.284" y="190.786"/>
      <point x="239.63" y="86.3267"/>
      <point x="365.368" y="86.3267" type="curve" smooth="yes"/>
      <point x="491.105" y="86.3267"/>
      <point x="593.451" y="190.786"/>
      <point x="593.451" y="308.921" type="curve" smooth="yes"/>
      <point x="593.451" y="427.058"/>
      <point x="593.425" y="594.939"/>
      <point x="593.425" y="594.939" type="curve" smooth="yes"/>
      <point x="593.425" y="610.828"/>
      <point x="609.574" y="624.6"/>
      <point x="630.475" y="624.6" type="curve" smooth="yes"/>
      <point x="651.375" y="624.6"/>
      <point x="667.526" y="610.936"/>
      <point x="667.526" y="595.171" type="curve" smooth="yes"/>
      <point x="667.526" y="595.171"/>
      <point x="668.247" y="481.133"/>
      <point x="668.247" y="311.39" type="curve" smooth="yes"/>
      <point x="668.247" y="141.647"/>
      <point x="531.526" y="3.85603"/>
      <point x="363.555" y="3.85603" type="curve" smooth="yes"/>
      <point x="273.481" y="3.85603"/>
      <point x="192.393" y="41.9013"/>
      <point x="136.556" y="102.32" type="curve"/>
      <point x="136.556" y="-36.1816" type="line" smooth="yes"/>
      <point x="136.556" y="-51.62"/>
      <point x="120.405" y="-65"/>
      <point x="99.506" y="-65" type="curve" smooth="yes"/>
      <point x="78.6056" y="-65"/>
      <point x="62.4552" y="-51.108"/>
      <point x="62.4562" y="-35.5479" type="curve" smooth="yes"/>
      <point x="62.4562" y="-35.5479"/>
      <point x="62.4562" y="525.98"/>
    </contour>
  </outline>
</glyph>
<glyph name="paragraph" format="1">
  <advance width="491"/>
  <unicode hex="00B6"/>
  <outline>
    <contour>
      <point x="442.721" y="594.381" type="curve" smooth="yes"/>
      <point x="442.721" y="29.6133" type="line" smooth="yes"/>
      <point x="442.721" y="13.749"/>
      <point x="426.57" y="0"/>
      <point x="405.671" y="0" type="curve" smooth="yes"/>
      <point x="384.771" y="0"/>
      <point x="368.62" y="14.0773"/>
      <point x="368.621" y="29.845" type="curve" smooth="yes"/>
      <point x="368.621" y="29.845"/>
      <point x="368.474" y="411.732"/>
      <point x="368.541" y="549.894" type="curve"/>
      <point x="321.138" y="549.894" type="line"/>
      <point x="321.138" y="29.845" type="line" smooth="yes"/>
      <point x="321.138" y="13.8566"/>
      <point x="304.987" y="0"/>
      <point x="284.088" y="0" type="curve" smooth="yes"/>
      <point x="263.188" y="0"/>
      <point x="247.037" y="14.0773"/>
      <point x="247.038" y="29.845" type="curve" smooth="yes"/>
      <point x="247.038" y="29.845"/>
      <point x="246.987" y="167.255"/>
      <point x="246.961" y="307.045" type="curve"/>
      <point x="87.3057" y="308.148"/>
      <point x="55.4883" y="433.417"/>
      <point x="55.4883" y="446.096" type="curve" smooth="yes"/>
      <point x="55.4883" y="453.582"/>
      <point x="37.4677" y="623.992"/>
      <point x="200.052" y="623.994" type="curve" smooth="yes"/>
      <point x="200.052" y="623.994"/>
      <point x="405.264" y="623.994"/>
      <point x="405.422" y="623.994" type="curve" smooth="yes"/>
      <point x="426.462" y="623.994"/>
      <point x="442.292" y="610.245"/>
    </contour>
  </outline>
</glyph>
<glyph name="periodcentered" format="1">
  <advance width="200"/>
  <unicode hex="00B7"/>
  <outline>
    <contour>
      <point x="55.625" y="265" type="curve" smooth="yes"/>
      <point x="55.625" y="290"/>
      <point x="74.375" y="311.25"/>
      <point x="99.375" y="311.25" type="curve" smooth="yes"/>
      <point x="124.375" y="311.25"/>
      <point x="144.375" y="290"/>
      <point x="144.375" y="265" type="curve" smooth="yes"/>
      <point x="144.375" y="240"/>
      <point x="124.375" y="218.75"/>
      <point x="99.375" y="218.75" type="curve" smooth="yes"/>
      <point x="74.375" y="218.75"/>
      <point x="55.625" y="240"/>
    </contour>
  </outline>
</glyph>
<glyph name="cedilla" format="1">
  <advance width="204"/>
  <unicode hex="00B8"/>
  <outline>
    <contour>
      <point x="55.2601" y="-4" type="curve" smooth="yes"/>
      <point x="55.2601" y="21"/>
      <point x="74.0101" y="42.25"/>
      <point x="99.0101" y="42.25" type="curve" smooth="yes"/>
      <point x="106.732" y="42.25"/>
      <point x="113.977" y="40.2227"/>
      <point x="120.303" y="36.6836" type="curve"/>
      <point x="120.622" y="94.7853"/>
      <point x="95.9339" y="104.466"/>
      <point x="67.7601" y="126.25" type="curve"/>
      <point x="102.759" y="120.047"/>
      <point x="149.01" y="105.951"/>
      <point x="152.76" y="90.7273" type="curve" smooth="yes"/>
      <point x="159.01" y="68.737"/>
      <point x="149.011" y="23.6491"/>
      <point x="144.01" y="-4" type="curve"/>
      <point x="144.01" y="-29"/>
      <point x="124.01" y="-50.25"/>
      <point x="99.0101" y="-50.25" type="curve" smooth="yes"/>
      <point x="74.0101" y="-50.25"/>
      <point x="55.2601" y="-29"/>
    </contour>
  </outline>
</glyph>
<glyph name="uni00B9" format="1">
  <advance width="198"/>
  <unicode hex="00B9"/>
  <outline>
    <contour>
      <point x="116.478" y="637.559" type="curve"/>
      <point x="81.6725" y="604.647" type="line" smooth="yes"/>
      <point x="76.0647" y="599.344"/>
      <point x="65.1651" y="600.458"/>
      <point x="57.3514" y="607.847" type="curve" smooth="yes"/>
      <point x="49.5366" y="615.236"/>
      <point x="48.4357" y="625.615"/>
      <point x="53.9671" y="630.846" type="curve" smooth="yes"/>
      <point x="53.9671" y="630.846"/>
      <point x="110.962" y="685.934"/>
      <point x="111.072" y="686" type="curve" smooth="yes"/>
      <point x="116.564" y="691.303"/>
      <point x="121.169" y="701"/>
      <point x="134.395" y="700" type="curve" smooth="yes"/>
      <point x="145.213" y="700"/>
      <point x="153.354" y="693.5"/>
      <point x="153.574" y="686" type="curve" smooth="yes"/>
      <point x="153.574" y="419" type="line" smooth="yes"/>
      <point x="153.574" y="411.5"/>
      <point x="145.499" y="405"/>
      <point x="135.05" y="405" type="curve" smooth="yes"/>
      <point x="124.6" y="405"/>
      <point x="116.524" y="411.604"/>
      <point x="116.524" y="419" type="curve" smooth="yes"/>
      <point x="116.524" y="419"/>
      <point x="116.478" y="557.181"/>
    </contour>
  </outline>
</glyph>
<glyph name="ordmasculine" format="1">
  <advance width="320"/>
  <unicode hex="00BA"/>
  <outline>
    <contour>
      <point x="78.8293" y="597.59" type="curve" smooth="yes"/>
      <point x="78.8293" y="558.558"/>
      <point x="116.536" y="524.045"/>
      <point x="162.861" y="524.045" type="curve" smooth="yes"/>
      <point x="209.185" y="524.045"/>
      <point x="246.892" y="558.558"/>
      <point x="246.892" y="597.59" type="curve" smooth="yes"/>
      <point x="246.892" y="636.622"/>
      <point x="209.185" y="671.135"/>
      <point x="162.861" y="671.135" type="curve" smooth="yes"/>
      <point x="116.536" y="671.135"/>
      <point x="78.8293" y="636.622"/>
    </contour>
    <contour>
      <point x="51.2737" y="597.59" type="curve" smooth="yes"/>
      <point x="51.2737" y="654.115"/>
      <point x="101.344" y="700"/>
      <point x="162.861" y="700" type="curve" smooth="yes"/>
      <point x="224.377" y="700"/>
      <point x="274.448" y="654.115"/>
      <point x="274.448" y="597.59" type="curve" smooth="yes"/>
      <point x="274.448" y="541.064"/>
      <point x="224.377" y="495.18"/>
      <point x="162.861" y="495.18" type="curve" smooth="yes"/>
      <point x="101.344" y="495.18"/>
      <point x="51.2737" y="541.064"/>
    </contour>
  </outline>
</glyph>
<glyph name="guillemotright" format="1">
  <advance width="616"/>
  <unicode hex="00BB"/>
  <outline>
    <contour>
      <point x="335.766" y="360" type="curve" smooth="yes"/>
      <point x="335.766" y="337.246"/>
      <point x="322.018" y="314.456"/>
      <point x="306.155" y="308.445" type="curve" smooth="yes"/>
      <point x="305.989" y="308.155"/>
      <point x="79.8435" y="152.442"/>
      <point x="79.8435" y="152.442" type="curve"/>
      <point x="64.1995" y="147.996"/>
      <point x="50.2327" y="157.214"/>
      <point x="50.2327" y="174.28" type="curve" smooth="yes"/>
      <point x="50.2327" y="191.345"/>
      <point x="63.9805" y="208.438"/>
      <point x="79.8435" y="212.945" type="curve"/>
      <point x="265.263" y="360" type="line"/>
      <point x="79.8435" y="507.055" type="line"/>
      <point x="63.9805" y="511.562"/>
      <point x="50.2327" y="528.655"/>
      <point x="50.2327" y="545.72" type="curve" smooth="yes"/>
      <point x="50.2327" y="562.786"/>
      <point x="64.1995" y="572.004"/>
      <point x="79.8435" y="567.558" type="curve"/>
      <point x="79.8435" y="567.558"/>
      <point x="305.989" y="411.845"/>
      <point x="306.155" y="411.555" type="curve" smooth="yes"/>
      <point x="322.018" y="405.544"/>
      <point x="335.766" y="382.754"/>
    </contour>
    <contour>
      <point x="571.595" y="360" type="curve" smooth="yes"/>
      <point x="571.595" y="337.246"/>
      <point x="557.847" y="314.456"/>
      <point x="541.984" y="308.445" type="curve" smooth="yes"/>
      <point x="541.818" y="308.155"/>
      <point x="315.673" y="152.442"/>
      <point x="315.673" y="152.442" type="curve"/>
      <point x="300.029" y="147.996"/>
      <point x="286.062" y="157.214"/>
      <point x="286.062" y="174.28" type="curve" smooth="yes"/>
      <point x="286.062" y="191.345"/>
      <point x="299.81" y="208.438"/>
      <point x="315.673" y="212.945" type="curve"/>
      <point x="501.092" y="360" type="line"/>
      <point x="315.673" y="507.055" type="line"/>
      <point x="299.81" y="511.562"/>
      <point x="286.062" y="528.655"/>
      <point x="286.062" y="545.72" type="curve" smooth="yes"/>
      <point x="286.062" y="562.786"/>
      <point x="300.029" y="572.004"/>
      <point x="315.673" y="567.558" type="curve"/>
      <point x="315.673" y="567.558"/>
      <point x="541.818" y="411.845"/>
      <point x="541.984" y="411.555" type="curve" smooth="yes"/>
      <point x="557.847" y="405.544"/>
      <point x="571.595" y="382.754"/>
    </contour>
  </outline>
</glyph>
